<?xml version="1.0" encoding="utf-8"?>
<!-- Generator: Adobe Illustrator 15.1.0, SVG Export Plug-In . SVG Version: 6.00 Build 0)  -->
<!DOCTYPE svg PUBLIC "-//W3C//DTD SVG 1.0//EN" "http://www.w3.org/TR/2001/REC-SVG-20010904/DTD/svg10.dtd">
<svg version="1.0" id="Layer_1" xmlns="http://www.w3.org/2000/svg" xmlns:xlink="http://www.w3.org/1999/xlink" x="0px" y="0px"
	 width="52.625px" height="53px" viewBox="0 0 52.625 53" enable-background="new 0 0 52.625 53" xml:space="preserve">
<circle fill="#0A8AEE" cx="26.279" cy="26" r="24.875"/>
<g>
	<path fill="#FFFFFF" d="M36.029,32.857c0,4.545-3.689,8.234-8.234,8.234H25.5c-4.275,0-7.785-3.285-8.19-7.47h0.855
		c0.405,3.735,3.555,6.614,7.335,6.614h2.295c4.049,0,7.379-3.33,7.379-7.379c0-4.096-3.33-7.425-7.379-7.425h-3.69v-0.855h1.935
		c4.095,0,7.379-3.33,7.379-7.38c0-4.095-3.284-7.425-7.379-7.425h-0.99c-3.825,0.27-6.885,3.465-6.885,7.38H17.31
		c0-4.365,3.42-8.235,7.74-8.235h0.99c4.544,0,8.234,3.69,8.234,8.28c0,3.33-2.024,6.255-4.904,7.515
		C33.148,25.478,36.029,28.807,36.029,32.857z"/>
</g>
</svg>
