<?xml version="1.0" encoding="utf-8"?>
<!-- Generator: Adobe Illustrator 15.1.0, SVG Export Plug-In . SVG Version: 6.00 Build 0)  -->
<!DOCTYPE svg PUBLIC "-//W3C//DTD SVG 1.0//EN" "http://www.w3.org/TR/2001/REC-SVG-20010904/DTD/svg10.dtd">
<svg version="1.0" id="Layer_1" xmlns="http://www.w3.org/2000/svg" xmlns:xlink="http://www.w3.org/1999/xlink" x="0px" y="0px"
	 width="52.625px" height="53px" viewBox="0 0 52.625 53" enable-background="new 0 0 52.625 53" xml:space="preserve">
<circle fill="#0A8AEE" cx="26.279" cy="26" r="24.875"/>
<g>
	<path fill="#FFFFFF" d="M35.129,31.463c0,5.354-4.32,9.629-9.674,9.629c-2.88,0-5.49-1.215-7.245-3.195v-1.395
		c1.575,2.295,4.229,3.779,7.245,3.779c4.86,0,8.819-3.959,8.819-8.818c0-4.905-3.959-8.865-8.819-8.865
		c-3.015,0-5.67,1.485-7.245,3.78v-1.395V8.918h0.405h0.45h14.083v0.855H19.065v14.354c1.709-1.485,3.915-2.385,6.39-2.385
		C30.809,21.743,35.129,26.107,35.129,31.463z"/>
</g>
</svg>
