<?xml version="1.0" encoding="utf-8"?>
<!-- Generator: Adobe Illustrator 15.1.0, SVG Export Plug-In . SVG Version: 6.00 Build 0)  -->
<!DOCTYPE svg PUBLIC "-//W3C//DTD SVG 1.1//EN" "http://www.w3.org/Graphics/SVG/1.1/DTD/svg11.dtd">
<svg version="1.1" id="Layer_1" xmlns="http://www.w3.org/2000/svg" xmlns:xlink="http://www.w3.org/1999/xlink" x="0px" y="0px"
	 width="1024px" height="745.731px" viewBox="0 -21.532 1024 745.731" enable-background="new 0 -21.532 1024 745.731"
	 xml:space="preserve">
<g>
	<path fill="none" stroke="#FFFFFF" stroke-width="2.5399" stroke-miterlimit="10" d="M254.59,52.74c0,0-0.682,40.252-12.28,67.542
		c0,0-16.374,48.44,6.14,52.533c0,0,7.202,3.257,13.646-2.729c0,0,14.919,1.469,21.742,7.609"/>
	<path fill="none" stroke="#FFFFFF" stroke-width="2.5399" stroke-miterlimit="10" d="M267.122,171.336
		c0,0-6.392,15.124,5.207,13.759c0,0,17.738-4.093,49.121-55.944c0,0,15.01-26.608,4.776-29.336c0,0-7.088-5.436-26.2,16.395"/>
	
		<line fill="none" stroke="#FFFFFF" stroke-width="2.5399" stroke-miterlimit="10" x1="272.329" y1="185.095" x2="329.798" y2="213.068"/>
	<path fill="none" stroke="#FFFFFF" stroke-width="2.5399" stroke-miterlimit="10" d="M339.188,185.182
		c0,0-31.382,68.136-25.925,188.895c0,0,3.732,6.143,16.535,22.516c0,0,13.484,11.597,13.484,21.831"/>
	<path fill="none" stroke="#FFFFFF" stroke-width="2.5399" stroke-miterlimit="10" d="M555.46,616.954
		c0,0,14.327,49.803,77.776,49.803c0,0,30.019-34.11,68.225-62.764l49.804-36.159l10.914,11.598c0,0,22.515-6.142,27.292-19.104
		c0,0-62.767-65.494-60.038-94.831"/>
	<path fill="none" stroke="#FFFFFF" stroke-width="1.5902" stroke-miterlimit="10" d="M696.004,468.906
		c0,0,10.785,47.238,57.582,101.396"/>
	<path fill="none" stroke="#FFFFFF" stroke-width="2.5399" stroke-miterlimit="10" d="M555.46,616.954
		c0,0,105.069-89.61,136.451-153.74"/>
	<path fill="none" stroke="#FFFFFF" stroke-width="2.5399" stroke-miterlimit="10" d="M768.744,577.136
		c0,0,9.128,29.586,51.429,32.995c0,0,87.325,2.048,100.288,6.822c0,0,17.742,8.187,23.199,0c0,0,3.408-10.254,9.549-18.09
		c0,0,3.411-17.225,18.42-28.563c0,0,9.555-22.253-5.457-21.571c0,0-97.56-1.365-103.019-7.506c0,0,2.057-63.446,8.532-94.83
		c0,0,9.208-20.468,4.431-36.841"/>
	<path fill="none" stroke="#FFFFFF" stroke-width="3.1803" stroke-miterlimit="10" d="M312.703,355.608l-17.845,32.701
		c0,0,22.094,4.747,48.423,30.114c0,0-2.288,6.679,4.137,11.351c0,0-0.583,5.256,6.424,8.175c0,0,0.583,9.344,10.511,9.344
		c0,0,49.056,66.575,53.145,79.424c0,0,9.927,15.585,29.783,14.508l28.617-3.411"/>
	<path fill="none" stroke="#FFFFFF" stroke-width="2.5399" stroke-miterlimit="10" d="M326.226,99.815
		c0,0,111.712,43.215,114.632,63.07"/>
	<path fill="none" stroke="#FFFFFF" stroke-width="2.5399" stroke-miterlimit="10" d="M561.582,629.944
		c0,0-0.593,15.556-9.677,19.189c0,0-27.554,7.571-29.068,13.323l-3.937-3.027c0,0-6.359-7.448-10.598,7.327
		c0,0-2.725,12.959,7.874,13.868h1.816c0,0,3.027,3.028,8.781,1.816c0,0,2.699,3.029,8.012,2.12c0,0,1.678,7.268,7.432,6.965
		c0,0,2.725,4.864,11.203,0.009c0,0,17.864-6.276,33.308,2.155c0,0,23.921,8.434,23.921-15.487c0,0,3.369-12.111,13.037-11.844"/>
	<g>
		<path fill="#FFFFFF" d="M597.325,669.118c0.758,0.266,1.4,0.515,1.952,0.585c0.566,0.073,0.835-0.028,1.165-0.231
			c0.34-0.214,0.745-0.636,1.163-1.123c0.432-0.486,0.863-1.044,1.473-1.592c0.198,0.795,0.15,1.564-0.068,2.325
			c-0.234,0.745-0.645,1.533-1.5,2.084c-0.421,0.267-0.966,0.436-1.493,0.414c-0.527-0.018-1.001-0.201-1.371-0.446
			C597.914,670.623,597.465,669.925,597.325,669.118z"/>
	</g>
	<g>
		<path fill="#FFFFFF" d="M517.223,680.823c-0.505-1.507-0.862-3.013-1.108-4.571c-0.255-1.553-0.366-3.142-0.304-4.77
			c0.113-1.615,0.342-3.328,1.28-4.949c0.466-0.799,1.142-1.56,1.995-2.083c0.852-0.532,1.828-0.783,2.744-0.838l0.076-0.004
			c0.059-0.004,0.12,0,0.176,0.01c0.729,0.128,1.19,0.33,1.734,0.627c0.515,0.294,0.99,0.683,1.379,1.148
			c0.791,0.933,1.171,2.126,1.176,3.205l0.001,0.186l-0.001,0.002c-0.055,0.296-0.096,0.69-0.123,1.038
			c-0.026,0.357-0.043,0.715-0.029,1.061c0,0.353,0.057,0.68,0.157,1.002c0.112,0.313,0.317,0.625,0.7,0.866
			c-0.418,0.124-0.971,0.027-1.373-0.289c-0.426-0.295-0.705-0.726-0.937-1.146c-0.218-0.43-0.362-0.876-0.462-1.324
			c-0.096-0.459-0.152-0.875-0.156-1.388v0.188c-0.15-0.732-0.381-1.354-0.799-1.807c-0.205-0.228-0.455-0.416-0.739-0.563
			c-0.256-0.143-0.663-0.263-0.835-0.281l0.25,0.006c-1.206,0.128-2.1,0.651-2.693,1.699c-0.596,1.031-0.916,2.405-1.032,3.809
			c-0.146,1.412-0.101,2.879-0.02,4.351c0.103,1.467,0.263,2.968,0.482,4.419l0.003,0.024c0.066,0.436-0.232,0.842-0.668,0.907
			C517.709,681.417,517.344,681.184,517.223,680.823z"/>
	</g>
	<g>
		<path fill="#FFFFFF" d="M526.025,682.712c-0.44-1.285-0.746-2.549-0.926-3.885c-0.16-1.326-0.221-2.719,0.216-4.137
			c0.222-0.7,0.605-1.411,1.196-1.957c0.586-0.553,1.34-0.886,2.068-1.038c1.477-0.289,2.858-0.04,4.15,0.288
			c0.342,0.087,0.574,0.387,0.59,0.722l0.002,0.047v0.001c-0.062,0.249-0.096,0.572-0.11,0.863
			c-0.013,0.299-0.001,0.598,0.049,0.886c0.052,0.286,0.142,0.566,0.313,0.799c0.167,0.237,0.44,0.41,0.769,0.478
			c-0.321,0.066-0.702,0.022-1.025-0.174c-0.327-0.189-0.583-0.482-0.788-0.79c-0.203-0.311-0.36-0.644-0.49-0.984
			c-0.129-0.349-0.232-0.674-0.307-1.075v-0.003l0.592,0.769c-1.162-0.304-2.374-0.482-3.416-0.269
			c-1.045,0.205-1.762,0.881-2.078,1.923c-0.325,1.031-0.305,2.256-0.152,3.447c0.156,1.192,0.455,2.42,0.844,3.547l0.008,0.026
			c0.143,0.415-0.078,0.867-0.492,1.01C526.621,683.348,526.169,683.127,526.025,682.712L526.025,682.712z"/>
	</g>
	<g>
		<path fill="#FFFFFF" d="M533.999,684.681c-0.299-0.952-0.458-1.895-0.54-2.878c-0.078-0.98-0.068-1.983,0.141-3.044
			c0.117-0.529,0.279-1.08,0.594-1.648c0.311-0.552,0.877-1.169,1.665-1.43c0.782-0.264,1.53-0.146,2.091,0.063
			c0.57,0.211,1.043,0.483,1.467,0.793l0.137,0.101c0.014,0.01,0.026,0.022,0.037,0.034c0.58,0.674,1.205,1.369,1.818,2.048
			c0.307,0.345,0.624,0.676,0.945,1.007c0.334,0.319,0.652,0.653,1.074,0.898c-0.496,0.038-1.006-0.099-1.467-0.267
			c-0.473-0.163-0.913-0.383-1.348-0.608c-0.865-0.469-1.654-1.003-2.434-1.615l0.174,0.135c-0.369-0.171-0.729-0.325-1.047-0.386
			c-0.322-0.06-0.546-0.036-0.646,0.018c-0.167,0.042-0.526,0.601-0.681,1.375c-0.346,1.535-0.331,3.39-0.409,5.165l-0.002,0.035
			c-0.02,0.443-0.396,0.787-0.839,0.768C534.385,685.228,534.098,684.994,533.999,684.681z"/>
	</g>
	<g>
		<path fill="#FFFFFF" d="M541.424,691.598c-0.096-1.257-0.098-2.468-0.012-3.709c0.096-1.235,0.271-2.483,0.707-3.721
			c0.221-0.616,0.515-1.234,0.959-1.801c0.437-0.563,1.073-1.067,1.818-1.294c0.744-0.233,1.51-0.196,2.182-0.045
			c0.677,0.153,1.289,0.412,1.862,0.707l0.135,0.068l0.11,0.128l0,0c0.115,0.237,0.284,0.508,0.448,0.753
			c0.168,0.25,0.349,0.493,0.545,0.725c0.394,0.458,0.839,0.891,1.424,1.151c-0.646,0.002-1.302-0.229-1.904-0.518
			c-0.303-0.146-0.597-0.312-0.884-0.491c-0.29-0.185-0.559-0.363-0.85-0.601l-0.002-0.002l0.244,0.196
			c-0.964-0.503-2.027-0.817-2.834-0.556c-0.803,0.233-1.402,1.098-1.756,2.114c-0.361,1.019-0.533,2.157-0.619,3.3
			c-0.081,1.14-0.077,2.325,0.01,3.449L541.424,691.598z"/>
	</g>
	<path fill="none" stroke="#FFFFFF" stroke-width="2.5399" stroke-miterlimit="10" d="M654.266,395.083
		c0,0,13.928,58.442,31.491,68.131h6.154c0,0,11.71-4.847,18.069-13.93c0,0,19.077-14.837,29.371-18.471
		c0,0,20.635-8.395,29.393-38.564c0,0-30.303-61.059-61.492-88.311"/>
	<g>
		<path fill="#FFFFFF" d="M715.326,313.129l-0.499-5.899c-0.089-0.985-0.223-1.962-0.353-2.941c-0.12-0.988-0.219-1.968-0.257-3.075
			c0.865,0.712,1.43,1.662,1.859,2.627c0.416,0.975,0.708,1.986,0.972,2.999c0.256,1.016,0.452,2.041,0.594,3.072
			c0.14,1.036,0.229,2.056,0.223,3.13L715.326,313.129z"/>
	</g>
	<g>
		<path fill="#FFFFFF" d="M714.346,312.513c-1.274-1.69-2.372-3.497-3.421-5.335c-0.532-0.914-1.018-1.858-1.514-2.796
			c-0.452-0.966-0.845-1.972-0.944-3.169c1.058,0.57,1.822,1.332,2.526,2.133c0.661,0.83,1.332,1.653,1.957,2.507
			c1.265,1.696,2.48,3.426,3.521,5.27L714.346,312.513z"/>
	</g>
	<path fill="none" stroke="#FFFFFF" stroke-width="1.5902" stroke-miterlimit="10" d="M691.911,463.213v3.633
		c0,0-4.946,4.541,22.608,0c0,0,16.049-2.094,22.406-1.35c0,0,38.153-26.206,45.421-58.302"/>
	<path fill="none" stroke="#FFFFFF" stroke-width="3.1803" stroke-miterlimit="10" d="M773.243,428.182
		c0,0,24.241,10.804,43.019,29.578c0,0,44.012-20.413,59.854-48.207c0,0,5.549-8.933,5.246-17.305c0,0-22.104-0.498-49.658-29.265
		c0,0,1.211-12.114-20.29-26.648c0,0-2.118-1.515-5.449,0c0,0-23.923-18.703-40.274-29.187c0,0-18.472-14.42-26.646-27.137
		c0,0-5.837-5.147-22.448-5.449c0,0-12.979-9.389-20.247-9.994c0,0-4.239-10.598-16.048-10.295c0,0,1.213-57.229-71.46-49.356
		c0,0-45.42,4.542-67.827,39.667c0,0-21.199,22.479,6.053,62.565c0,0,13.021,22.219,31.188,20.101c0,0,20.288-8.614,32.399,3.717
		l48.448,43.823c0,0,3.567,13.949-4.576,21.358"/>
	<path fill="none" stroke="#FFFFFF" stroke-width="2.5399" stroke-miterlimit="10" d="M444.408,204.173
		c0,0-1.816,90.368-2.725,92.488c0,0-22.104,5.324-21.196,34.305c0,0-1.211,2.639-3.634,3.242c0,0-4.847,0.306-7.572,10.902
		c0,0,0,4.239-10.9,5.451c0,0-9.388,5.752-15.443,12.414c0,0-9.083,4.846-12.112,3.634c0,0-5.557-1.354-15.746,29.676
		c0,0-7.852,16.114-11.799,22.138"/>
	<path fill="none" stroke="#FFFFFF" stroke-width="2.5399" stroke-miterlimit="10" d="M415.579,522.429
		c0,0-23.243-58.313-21.735-77.693c0,0,7.442-23.016,21.735-48.148c0,0,2.182-5.147,3.695-20.592c0,0,3.937-19.076,9.993-28.767
		c0,0,3.633-14.23,3.633-18.167c0,0,3.332-9.083,47.54,13.021"/>
	<path fill="none" stroke="#FFFFFF" stroke-width="1.5902" stroke-miterlimit="10" d="M501.634,364.491
		c0,0-0.909,9.084-8.478,19.682c0,0-20.893,52.083-20.893,60.257c0,0-2.724,15.745,2.12,17.259"/>
	<path fill="none" stroke="#FFFFFF" stroke-width="1.5902" stroke-miterlimit="10" d="M501.634,364.491
		c0,0,18.169,13.925,23.922,14.53c0,0,13.324-0.887,26.646-20.125c0,0,12.438-25.583,26.052-31.646"/>
	<path fill="none" stroke="#FFFFFF" stroke-width="2.5399" stroke-miterlimit="10" d="M433.812,328.154
		c0,0,23.617-40.271,19.074-67.83c0,0,13.021-8.172,36.335,0c0,0-1.34,45.742-29.133,72.529"/>
	<path fill="none" stroke="#FFFFFF" stroke-width="1.5902" stroke-miterlimit="10" d="M432.899,329.062
		c0,0,10.899,26.351,68.735,35.429"/>
	<path fill="none" stroke="#FFFFFF" stroke-width="1.5902" stroke-miterlimit="10" d="M428.25,348.981
		c0,0,31.295,30.655,64.907,35.191"/>
	<path fill="#0A8AEE" stroke="#FFFFFF" stroke-width="2.5399" stroke-miterlimit="10" d="M474.719,537.954
		c0,0,2.98,2.158-3.219,10.031c0,0-0.466,5.45,3.935,4.239l0.464,4.543l10.668,12.413c0,0,2.353,10.296,8.105,13.627l-6.662,1.817
		c0,0,7.564,4.54,13.624,3.935c0,0,8.784,8.782,15.445,9.992c0,0,11.809,5.453,5.45,13.021c0,0,43.914-15.47,55.567-14.396
		c0,0,24.069-13.643,30.428-26.875c0,0,6.965-5.057,12.111-9.599c0,0,22.131-10.296,4.708-33.913c0,0,9.226-21.807-11.971-43.91
		c0,0-7.873-11.475-9.084-19.666c0,0-14.23,13.912-20.287-8.494l-8.479,3.041c0,0,2.726-23.934,7.57-24.237
		c0,0,18.772,19.305,34.216,4.506"/>
	<path fill="none" stroke="#FFFFFF" stroke-width="2.5399" stroke-miterlimit="10" d="M364.354,447.292
		c0,0,8.13-14.362,42.577-34.203"/>
	<path fill="none" stroke="#FFFFFF" stroke-width="2.5399" stroke-miterlimit="10" d="M342.917,421.976
		c0,0,25.363-24.197,53.647-44.778c0,0,3.332-13.02,20.288-16.653l10.59-10.004"/>
	
		<path fill="none" stroke="#FFFFFF" stroke-width="2.5399" stroke-linecap="round" stroke-linejoin="round" stroke-miterlimit="10" d="
		M352.053,177.591c0,0-12.957,1.847-13.594,9.275c0,0,25.403,21.056,88.991,14.697c0,0-9.689,26.952-11.203,46.027
		c0,0-1.815,83.483,4.24,83.375"/>
	<g>
		<path fill="#FFFFFF" d="M346.76,191.885c1.519-4.57,2.969-9.175,4.322-13.797c0.674-2.312,1.323-4.63,1.917-6.958
			c0.583-2.325,1.148-4.671,1.469-6.994c0.037-0.289,0.072-0.578,0.093-0.862l0.028-0.423c0.022-0.255,0.04-0.352,0.064-0.529
			c0.094-0.631,0.222-1.244,0.375-1.853c0.308-1.216,0.72-2.405,1.241-3.55c1.04-2.286,2.553-4.41,4.544-6.022
			c1.981-1.623,4.411-2.658,6.896-3.102c2.492-0.457,5.024-0.369,7.473-0.009l-0.29,0.01c0.314-0.054,0.429-0.042,0.625-0.046
			c0.175,0.002,0.342,0.012,0.507,0.025c0.329,0.029,0.646,0.075,0.958,0.132c0.623,0.113,1.226,0.265,1.817,0.437
			c1.183,0.346,2.325,0.771,3.445,1.235c2.238,0.932,4.391,2.016,6.499,3.167c4.214,2.31,8.25,4.893,12.205,7.582l-0.127-0.07
			c2.159,0.864,4.57,1.47,6.932,1.953c2.382,0.479,4.796,0.815,7.222,1.042c4.854,0.45,9.751,0.461,14.626,0.141
			c2.438-0.161,4.871-0.407,7.295-0.727c1.211-0.162,2.422-0.337,3.628-0.535c1.213-0.219,2.483-0.376,3.728-0.472
			c2.502-0.187,5.041-0.175,7.567,0.29c1.259,0.237,2.518,0.599,3.712,1.179c1.187,0.581,2.316,1.414,3.14,2.533l-0.912-0.275
			c2.303-0.781,4.601-1.29,6.967-1.631c2.358-0.328,4.758-0.451,7.156-0.252c2.393,0.2,4.797,0.725,7.024,1.746
			c2.227,1.01,4.24,2.544,5.782,4.456l0.122,0.151l0.033,0.161c0.267,1.312,0.263,2.514,0.109,3.764
			c-0.163,1.234-0.524,2.451-1.083,3.573c-1.11,2.266-3.033,4.036-5.162,5.217l0.322-0.337l-0.014,0.026
			c-0.237,0.358-0.375,0.407-0.554,0.536c-0.169,0.104-0.333,0.176-0.493,0.234c-0.32,0.115-0.626,0.174-0.925,0.212
			c-0.596,0.072-1.162,0.057-1.716,0.011c-1.105-0.098-2.16-0.325-3.195-0.596c-2.066-0.551-4.049-1.29-5.999-2.093l0.018,0.006
			l-4.487-1.419l4.598,1.001h-0.001l0.019,0.006c2.002,0.617,4.027,1.164,6.066,1.51c1.017,0.17,2.042,0.29,3.035,0.285
			c0.495-0.004,0.984-0.04,1.425-0.137c0.219-0.049,0.426-0.114,0.593-0.194c0.083-0.04,0.156-0.084,0.207-0.125
			c0.037-0.016,0.11-0.135,0.013,0l-0.012,0.022l0.116-0.222l0.206-0.115c1.922-1.07,3.567-2.605,4.515-4.538
			c0.478-0.96,0.79-2.003,0.93-3.074c0.142-1.053,0.121-2.209-0.077-3.178l0.155,0.312c-1.392-1.722-3.186-3.092-5.208-4.011
			c-2.021-0.928-4.245-1.419-6.494-1.607c-2.254-0.188-4.543-0.073-6.805,0.242c-2.251,0.32-4.527,0.832-6.644,1.55l-0.567,0.192
			l-0.345-0.468c-1.294-1.758-3.572-2.668-5.866-3.093c-2.322-0.429-4.75-0.448-7.15-0.267c-1.209,0.095-2.385,0.239-3.595,0.456
			c-1.223,0.2-2.448,0.378-3.676,0.542c-2.457,0.323-4.924,0.574-7.398,0.736c-4.948,0.325-9.927,0.315-14.878-0.144
			c-2.475-0.232-4.943-0.576-7.388-1.067c-2.454-0.508-4.845-1.09-7.26-2.057l-0.057-0.022l-0.07-0.048
			c-3.925-2.669-7.926-5.229-12.072-7.5c-2.073-1.133-4.183-2.194-6.345-3.094c-1.081-0.448-2.175-0.855-3.28-1.178
			c-0.552-0.161-1.106-0.299-1.655-0.399c-0.274-0.05-0.547-0.089-0.812-0.112c-0.132-0.011-0.262-0.019-0.385-0.02
			c-0.102-0.004-0.287,0.012-0.266,0.009l-0.166,0.028l-0.124-0.019c-2.321-0.341-4.684-0.416-6.951,0.001
			c-2.265,0.406-4.416,1.33-6.18,2.772c-1.771,1.434-3.142,3.344-4.099,5.447c-0.479,1.053-0.862,2.155-1.146,3.28
			c-0.142,0.562-0.26,1.132-0.344,1.695l-0.049,0.369l-0.032,0.48c-0.024,0.318-0.062,0.629-0.102,0.939
			c-0.341,2.464-0.915,4.822-1.504,7.18c-0.6,2.353-1.253,4.687-1.931,7.011c-1.361,4.649-2.813,9.26-4.34,13.857L346.76,191.885z"
			/>
	</g>
	<path fill="none" stroke="#FFFFFF" stroke-width="1.5902" stroke-miterlimit="10" d="M680.301,254.274
		c0,0,3.323,25.77-28.771,46.939c0,0-31.043,21.038-22.487,46.387"/>
	<path fill="none" stroke="#FFFFFF" stroke-width="1.5902" stroke-miterlimit="10" d="M696.349,264.569
		c0,0-3.639,24.876-26.652,47.249c0,0-36.471,25.607-18.538,55.787"/>
	<path fill="none" stroke="#FFFFFF" stroke-width="1.5902" stroke-miterlimit="10" d="M654.526,396.148
		c0,0,15.473-10.478,19.106-8.055c0,0,20.007,43.043,36.348,61.19"/>
	<path fill="none" stroke="#FFFFFF" stroke-width="1.5902" stroke-miterlimit="10" d="M782.347,407.195
		c0,0,29.365,21.171,36.028,24.805c0,0,35.519-28.958,43.647-45.817"/>
	<path fill="none" stroke="#FFFFFF" stroke-width="1.5902" stroke-miterlimit="10" d="M709.98,449.284
		c0,0,17.856,3.308,25.729,2.097c0,0,12.66-16.888,11.779-25.704"/>
	<path fill="none" stroke="#FFFFFF" stroke-width="1.5902" stroke-miterlimit="10" d="M753.586,419.989
		c0,0,66.619-24.279,78.118-57.005"/>
	<path fill="none" stroke="#FFFFFF" stroke-width="1.5902" stroke-miterlimit="10" d="M805.965,336.335
		c0,0,8.146,3.009-20.761,32.381c0,0-14.274,13.672-20.984,14.859"/>
	<path fill="none" stroke="#FFFFFF" stroke-width="1.5902" stroke-miterlimit="10" d="M812.25,387.73c0,0,8.243,13.688,6.125,44.27"
		/>
	<path fill="none" stroke="#FFFFFF" stroke-width="1.5902" stroke-miterlimit="10" d="M831.704,362.984
		c0,0,10.75,24.968,7.34,50.625"/>
	<path fill="none" stroke="#FFFFFF" stroke-width="1.5902" stroke-miterlimit="10" d="M782.347,407.195
		c0,0,42.241,1.347,56.697,6.414"/>
	<path fill="none" stroke="#FFFFFF" stroke-width="1.5902" stroke-miterlimit="10" d="M815.487,384.949c0,0,34.173,1.8,44.268,5.198
		"/>
	<path fill="none" stroke="#FFFFFF" stroke-width="1.5902" stroke-miterlimit="10" d="M655.62,395.427c0,0-5.903-1.477-6.811-7.131
		c0,0-0.605-3.767-4.845-3.348c0,0,3.026,11.019-10.296,13.743c0,0-13.626,5.147-16.654,5.147c0,0-14.534,8.68-4.542,16.149
		c0,0-2.12,7.471,2.423,12.011l2.414,6.029c0,0-1.505,5.174,3.036,6.99c0,0-0.908,8.529,9.992,4.265c0,0,7.872,4.517,31.491-8.806
		c0,0,6.374-2.613,7.706,0.216"/>
	<path fill="none" stroke="#FFFFFF" stroke-width="1.5902" stroke-miterlimit="10" d="M615.505,433.523
		c0,0-9.088,10.586-14.235,1.504c0,0-9.378-11.809,14.235-39.969c0,0,26.915-31.012,37.982-25.347"/>
	
		<line fill="none" stroke="#FFFFFF" stroke-width="1.5902" stroke-miterlimit="10" x1="636.804" y1="375.102" x2="644.178" y2="386.182"/>
	
		<line fill="none" stroke="#FFFFFF" stroke-width="1.5902" stroke-miterlimit="10" x1="608.063" y1="404.939" x2="610.124" y2="410.402"/>
	<path fill="none" stroke="#FFFFFF" stroke-width="1.5902" stroke-miterlimit="10" d="M669.535,440.694
		c0,0-1.532,4.259,1.739,10.953c0,0,5.694,8.513-7.325,20.019c0,0-6.731,10.296-17.749,9.993c0,0-4.698,2.737-6.948,0.006
		c0,0-10.246-2.125-11.7-8.183c0,0-2.362,0.909-5.087-2.725l-5.45-5.261c0,0-3.936-5.944,2.726-8.972c0,0,3.955,1.515,3.945,3.331
		c-0.01,1.817-0.01,1.817-0.01,1.817l2.783,1.54c0,0,8.117-3.004,3.879-13.93"/>
	
		<path fill="none" stroke="#FFFFFF" stroke-width="1.5902" stroke-linecap="round" stroke-linejoin="bevel" stroke-miterlimit="10" d="
		M602.783,390.147c0,0,12.016-5.688,6.311-18.707c0,0-3.888-1.154-8.127,3.662c0,0-6.662,4.838-17.563,3.919h-13.929
		c0,0-5.147,1.81-3.634,5.895c0,0,0.27,7.068,19.985,5.231c0,0-10.901,4.608-14.232,4.911c0,0-10.598,4.926,0.303,9.881
		c0,0,3.33,0.797,12.718,0c0,0-5.45-0.691-8.781,5.463c0,0-1.517,3.895,2.421,3.207c0,0-4.237,2.241-2.421,6.38
		c0,0,1.817,2.321,3.634,2.321c0,0-3.33,11.507,3.028,9.689c0,0,3.631-2.352,5.601-6.323c0,0,12.199-5.626,13.77-9.178"/>
	<path fill="none" stroke="#FFFFFF" stroke-width="1.5902" stroke-miterlimit="10" d="M602.783,390.147c0,0,8.179,10.07,5.28,14.792
		"/>
	<g>
		<path fill="#FFFFFF" d="M367.807,180.966c3.652,1.599,7.44,2.882,11.293,3.798c1.927,0.451,3.876,0.798,5.828,0.977
			c1.949,0.176,3.91,0.185,5.792-0.113l0.173-0.027l0.214,0.075l0.003,0.001l18.977,7.447l9.472,3.772
			c3.163,1.29,6.284,2.496,9.464,3.948l-0.052-0.024c1.182,0.465,2.461,0.866,3.723,1.209c1.27,0.343,2.555,0.629,3.849,0.854
			c2.587,0.448,5.216,0.651,7.816,0.496l0.231-0.014l0.214,0.119c1.021,0.566,2.147,1.077,3.265,1.483
			c1.123,0.404,2.279,0.717,3.414,0.812c1.126,0.097,2.243-0.063,2.99-0.663c0.76-0.581,1.139-1.624,1.263-2.741l0.092-0.836
			l0.862,0.146c0.657,0.111,1.499,0.077,2.207-0.108c0.728-0.184,1.401-0.523,1.966-1.003c1.143-0.959,1.814-2.457,2.153-4.032
			l0.142-0.659l0.696,0.036c0.761,0.038,1.627-0.031,2.389-0.214c0.771-0.184,1.489-0.499,1.997-0.973
			c0.51-0.471,0.793-1.102,0.856-1.835c0.065-0.731-0.073-1.531-0.311-2.313l-0.249-0.818l0.852-0.192
			c0.817-0.185,1.696-0.49,2.466-0.87c0.775-0.384,1.493-0.871,1.982-1.472c0.495-0.599,0.714-1.294,0.627-2.042
			c-0.082-0.749-0.446-1.523-0.922-2.241l1.323-0.882c0.557,0.847,1.049,1.815,1.18,2.951c0.151,1.133-0.252,2.375-0.976,3.218
			c-0.71,0.864-1.605,1.44-2.51,1.893c-0.922,0.449-1.835,0.771-2.856,1.003l0.603-1.011c0.272,0.907,0.461,1.882,0.373,2.919
			c-0.073,1.029-0.548,2.127-1.355,2.855c-0.797,0.736-1.769,1.127-2.71,1.356c-0.961,0.222-1.876,0.302-2.881,0.253l0.837-0.624
			c-0.383,1.768-1.157,3.619-2.68,4.909c-0.75,0.638-1.657,1.094-2.602,1.331c-0.963,0.231-1.882,0.296-2.926,0.123l0.954-0.69
			c-0.146,1.317-0.614,2.84-1.859,3.814c-1.239,0.969-2.784,1.105-4.102,0.999c-1.348-0.115-2.611-0.467-3.826-0.901
			c-1.218-0.445-2.366-0.962-3.519-1.601l0.445,0.104c-2.75,0.165-5.497-0.051-8.185-0.516c-1.344-0.234-2.676-0.53-3.992-0.886
			c-1.322-0.361-2.604-0.758-3.914-1.273l-0.001,0l-0.052-0.024c-3-1.369-6.218-2.621-9.346-3.895l-9.464-3.769l-18.969-7.444
			l-0.003-0.001l0.387,0.048c-2.08,0.188-4.134,0.034-6.138-0.281c-2.005-0.319-3.966-0.807-5.887-1.393
			C375.054,184.345,371.348,182.805,367.807,180.966z"/>
	</g>
	<path fill="none" stroke="#FFFFFF" stroke-width="2.5399" stroke-miterlimit="10" d="M320.845,130.145
		c0,0-10.477-0.264-20.819-13.935c0,0-7.618-13.67-11.252-26.994c0,0-4.239-18.47-12.112-28.16c0,0-3.331-8.781-4.24-13.626
		c0,0,7.355-17.559-7.057-19.682c0,0-8.528-5.45-7.851,16.351v6.965c0,0-6.562,3.15-3.396,11.264"/>
	<path fill="none" stroke="#FFFFFF" stroke-width="1.5902" stroke-miterlimit="10" d="M738.099,340.451
		c0,0,16.969-11.372,67.43,3.151"/>
	<path fill="none" stroke="#FFFFFF" stroke-width="1.5902" stroke-miterlimit="10" d="M782.347,318.613
		c0,0-3.202,30.682,5.628,47.252"/>
	
		<line fill="none" stroke="#FFFFFF" stroke-width="1.5902" stroke-miterlimit="10" x1="753.586" y1="364.762" x2="790.69" y2="362.984"/>
	<path fill="none" stroke="#FFFFFF" stroke-width="1.5902" stroke-miterlimit="10" d="M721.513,318.613
		c0,0,17.856-8.067,53.028-5.527"/>
	<path fill="none" stroke="#FFFFFF" stroke-width="1.5902" stroke-miterlimit="10" d="M741.083,282.938
		c0,0,4.395,40.157,1.815,64.663"/>
	<path fill="none" stroke="#FFFFFF" stroke-width="1.5902" stroke-miterlimit="10" d="M763.27,305.19c0,0,3.756,47.821-1.527,73.831
		"/>
	<path fill="none" stroke="#FFFFFF" stroke-width="1.5902" stroke-miterlimit="10" d="M764.22,307.149c0,0-56.836-23.044-88.3-1.959
		"/>
	<path fill="none" stroke="#FFFFFF" stroke-width="1.5902" stroke-miterlimit="10" d="M648.477,338.398
		c0,0-2.726,11.864,12.119,27.467c0,0,18.715,16.255,16.78,29.97"/>
	<path fill="none" stroke="#FFFFFF" stroke-width="1.5902" stroke-miterlimit="10" d="M649.235,365.865
		c0,0,27.855-36.295,98.792-10.241"/>
	<path fill="none" stroke="#FFFFFF" stroke-width="1.5902" stroke-miterlimit="10" d="M675.92,387.546
		c0,0,38.171-2.92,80.819,28.746"/>
	<path fill="none" stroke="#FFFFFF" stroke-width="1.5902" stroke-miterlimit="10" d="M728.758,436.23c0,0,0.082,9.21,6.952,15.15"
		/>
	<path fill="none" stroke="#FFFFFF" stroke-width="2.5399" stroke-miterlimit="10" d="M494.672,582.807
		c0,0,24.872-3.151,42.3-10.253l-13.233-2.253c0,0,25.498-22.601,53.257-23.892c0,0,20.979-5.163,24.853-13.556
		c0,0-9.359-10.973-15.17-25.82c0,0-14.02-4.519-31.219-27.437c0,0-12.234-2.904-22.302-1.291c0,0,7.225-10.773,22.302-12.81
		c0,0,7.653-7.902,8.622-18.204c0,0,8.857,11.394,11.441,10.468"/>
	<path fill="none" stroke="#FFFFFF" stroke-width="1.5902" stroke-miterlimit="10" d="M474.719,537.954
		c0,0,34.816-27.05,33.202-83.21c0,0-2.563-77.863-6.287-90.253"/>
	<path fill="none" stroke="#FFFFFF" stroke-width="1.5902" stroke-miterlimit="10" d="M507.696,448.444
		c0,0,33.46,10.37,40.564,18.823"/>
	<path fill="none" stroke="#FFFFFF" stroke-width="1.5902" stroke-miterlimit="10" d="M506.635,423.45
		c0,0,32.563,9.933,56.623,28.197"/>
	<path fill="none" stroke="#FFFFFF" stroke-width="1.5902" stroke-miterlimit="10" d="M474.719,537.954
		c0,0,14.585-37.384,16.629-67.724"/>
	<path fill="none" stroke="#FFFFFF" stroke-width="1.5902" stroke-miterlimit="10" d="M488.569,395.834
		c0,0,4.286,54.063,2.779,64.714"/>
	<path fill="none" stroke="#FFFFFF" stroke-width="2.5399" stroke-miterlimit="10" d="M479.198,533.819
		c0,0,1.484,21.13,7.369,35.361"/>
	<path fill="none" stroke="#FFFFFF" stroke-width="1.5902" stroke-miterlimit="10" d="M395.437,378.026
		c0,0-1.132,7.887,5.969,12.121c0,0-1.937,3.78,0,7.396c0,0-1.488,10.808,6.841,12.859"/>
	<g>
		<path fill="#FFFFFF" d="M566.981,287.208c0.563,2.046,0.849,4.161,0.883,6.311c0.005,1.074-0.041,2.165-0.27,3.255
			c-0.226,1.082-0.603,2.196-1.377,3.151l0.099-0.195v-0.001c-0.288,1.196-0.236,2.629,0.347,3.702
			c0.572,1.097,1.662,1.937,2.959,2.438c1.282,0.544,2.724,0.817,4.179,0.993c1.459,0.183,2.95,0.231,4.454,0.287
			c-1.469,0.335-2.968,0.538-4.493,0.586c-1.523,0.037-3.078-0.089-4.614-0.548c-1.497-0.481-3.075-1.398-3.938-2.963
			c-0.426-0.765-0.663-1.624-0.725-2.473c-0.037-0.864,0.029-1.662,0.324-2.53l0.001-0.005l0.004-0.014l0.095-0.182
			c0.406-0.781,0.686-1.695,0.924-2.643c0.229-0.952,0.426-1.944,0.569-2.955C566.693,291.399,566.85,289.32,566.981,287.208z"/>
	</g>
	<path fill="none" stroke="#FFFFFF" stroke-width="1.5902" stroke-miterlimit="10" d="M721.513,318.613
		c0,0-45.923-9.327-54.877-4.389"/>
	<path fill="none" stroke="#FFFFFF" stroke-width="1.5902" stroke-miterlimit="10" d="M734.001,334.638
		c0,0-42.502-11.879-68.699-3.672"/>
	<path fill="none" stroke="#FFFFFF" stroke-width="1.5902" stroke-miterlimit="10" d="M692.608,277.425
		c0,0,44.488,1.142,49.789,7.226"/>
	<path fill="none" stroke="#FFFFFF" stroke-width="1.5902" stroke-miterlimit="10" d="M741.083,429.964
		c0,0,9.078-64.131-19.57-111.352"/>
	<path fill="none" stroke="#FFFFFF" stroke-width="1.5902" stroke-miterlimit="10" d="M755.605,417.697
		c0,0,7.565-28.193-7.578-62.073"/>
	<path fill="none" stroke="#FFFFFF" stroke-width="1.5902" stroke-miterlimit="10" d="M728.758,436.23
		c0,0-5.74-96.413-36.149-126.43c0,0,2.007-27.758,0-34.214"/>
	<path fill="none" stroke="#FFFFFF" stroke-width="1.5902" stroke-miterlimit="10" d="M709.98,449.284
		c0,0,2.868-79.127-37.466-126.251l1.677-15.884"/>
	<path fill="none" stroke="#FFFFFF" stroke-width="1.5902" stroke-miterlimit="10" d="M671.274,377.837
		c0,0,53.7-11.554,86.221,15.882"/>
	<path fill="none" stroke="#FFFFFF" stroke-width="1.5902" stroke-miterlimit="10" d="M676.334,393.719
		c0,0,33.456,18.659,57.667,38.476"/>
	<path fill="none" stroke="#FFFFFF" stroke-width="1.5902" stroke-miterlimit="10" d="M689.339,418.506
		c0,0,27.19,18.338,28.163,25.217"/>
	<path fill="none" stroke="#FFFFFF" stroke-width="1.5902" stroke-miterlimit="10" d="M700.114,436.23
		c0,0-2.438-74.496-50.032-101.592"/>
	<path fill="none" stroke="#FFFFFF" stroke-width="1.5902" stroke-miterlimit="10" d="M708.467,303.938
		c0,0-63.378,17.546-51.436,67.381"/>
	
		<path fill="none" stroke="#FFFFFF" stroke-width="2.5399" stroke-linecap="round" stroke-linejoin="round" stroke-miterlimit="10" d="
		M484.898,564.604c0,0,32.9-53.395,70.562-64.692c0,0-65.976-5.013-74.836,45.908"/>
	<g>
		<path fill="#FFFFFF" d="M518.042,537.954c-0.815,0.813-1.621,1.567-2.378,2.343c-0.748,0.779-1.465,1.565-1.993,2.407
			c-0.537,0.832-0.838,1.729-0.616,2.545c0.21,0.816,0.875,1.589,1.703,2.199l-0.051-0.032c1.371,0.855,2.734,1.724,4.078,2.627
			c1.345,0.898,2.678,1.818,3.975,2.803c-1.501-0.63-2.965-1.323-4.416-2.039c-1.455-0.71-2.889-1.456-4.314-2.215l-0.015-0.008
			l-0.036-0.024c-0.969-0.659-2.003-1.548-2.385-2.918c-0.388-1.375,0.094-2.787,0.774-3.785c0.697-1.024,1.59-1.818,2.553-2.459
			C515.886,538.759,516.921,538.244,518.042,537.954z"/>
	</g>
	<path fill="none" stroke="#FFFFFF" stroke-width="0.635" stroke-miterlimit="10" d="M536.973,572.554c0,0,72.629,2.282,64.876-39.7
		"/>
	<path fill="none" stroke="#FFFFFF" stroke-width="0.9525" stroke-miterlimit="10" d="M555.46,479.597c0,0,22.817-0.667,34.76-5.508
		c0,0-15.94-13.961-34.76-8.593"/>
	
		<line fill="none" stroke="#FFFFFF" stroke-width="1.5902" stroke-miterlimit="10" x1="441.683" y1="296.662" x2="448.568" y2="294.773"/>
	<path fill="none" stroke="#FFFFFF" stroke-width="0.635" stroke-miterlimit="10" stroke-dasharray="1.905,3.8099" d="
		M439.54,327.25c0,0,22.065-43.594,18.75-69.095"/>
	<g>
		<path fill="#FFFFFF" d="M609.988,378.509c0.894-0.845,1.802-1.634,2.758-2.384c0.479-0.373,0.968-0.732,1.479-1.06
			c0.511-0.321,1.049-0.638,1.635-0.777c-0.537,0.265-0.969,0.673-1.386,1.087c-0.413,0.418-0.8,0.864-1.174,1.319
			c-0.742,0.911-1.446,1.873-2.094,2.838L609.988,378.509z"/>
	</g>
	<g>
		<path fill="#FFFFFF" d="M619.587,371.319c0.399-0.932,1.014-1.627,1.681-2.264c0.339-0.313,0.7-0.601,1.098-0.849
			c0.395-0.25,0.819-0.468,1.32-0.602c-0.183,0.485-0.44,0.887-0.729,1.255c-0.286,0.371-0.608,0.702-0.952,1.009
			C621.306,370.469,620.554,371.013,619.587,371.319z"/>
	</g>
	<g>
		<path fill="#FFFFFF" d="M630.561,362.984c0.477-0.763,0.992-1.496,1.528-2.214c0.523-0.729,1.101-1.411,1.674-2.104
			c0.571-0.695,1.188-1.352,1.854-1.984c0.343-0.308,0.692-0.61,1.089-0.901c0.199-0.146,0.417-0.276,0.682-0.406
			c0.139-0.063,0.282-0.128,0.496-0.176c0.187-0.033,0.605-0.102,1.021,0.251l-1.066,1.18c0.241,0.205,0.414,0.139,0.388,0.152
			l-0.125,0.057c-0.133,0.067-0.289,0.178-0.452,0.285c-0.329,0.221-0.662,0.485-0.99,0.758l-2.016,1.665l-2.022,1.723
			C631.944,361.846,631.262,362.42,630.561,362.984z"/>
	</g>
	<g>
		<path fill="#FFFFFF" d="M638.684,481.109c2.027-1.899,4.025-3.854,5.964-5.855c0.969-1.003,1.923-2.02,2.845-3.065
			c0.917-1.049,1.821-2.114,2.59-3.282c-0.655,1.237-1.461,2.394-2.279,3.531c-0.824,1.135-1.683,2.245-2.558,3.342
			c-1.754,2.191-3.561,4.331-5.425,6.441L638.684,481.109z"/>
	</g>
	<g>
		<path fill="#FFFFFF" d="M645.554,481.196c1.575-1.981,3.129-3.993,4.646-6.026c1.507-2.042,3.015-4.086,4.327-6.264
			c-1.08,2.306-2.374,4.509-3.665,6.704c-1.304,2.191-2.641,4.357-4.015,6.512L645.554,481.196z"/>
	</g>
	<g>
		<path fill="#FFFFFF" d="M579.085,421.613c0.623-0.277,1.281-0.64,1.9-1.015c0.625-0.378,1.232-0.792,1.821-1.234
			c1.176-0.888,2.269-1.904,3.214-3.071c-0.725,1.314-1.642,2.54-2.68,3.66c-0.521,0.56-1.068,1.097-1.646,1.605
			c-0.584,0.511-1.167,0.988-1.844,1.449L579.085,421.613z"/>
	</g>
	<g>
		<path fill="#FFFFFF" d="M577.957,412.872c1.389-0.426,2.784-0.89,4.154-1.397c0.685-0.255,1.366-0.521,2.032-0.818
			c0.657-0.31,1.347-0.593,1.877-1.103c-0.437,0.605-1.083,1.021-1.683,1.449c-0.613,0.42-1.246,0.81-1.884,1.189
			c-1.278,0.757-2.574,1.468-3.901,2.154L577.957,412.872z"/>
	</g>
	<g>
		<path fill="#FFFFFF" d="M776.641,545.952c10.919-7.546,21.718-15.309,32.294-23.346c5.281-4.028,10.51-8.129,15.585-12.414
			c2.534-2.145,5.032-4.335,7.429-6.633c1.196-1.149,2.369-2.326,3.48-3.56c1.102-1.237,2.179-2.515,2.995-3.966
			c-0.771,1.478-1.811,2.795-2.876,4.07c-1.075,1.272-2.213,2.489-3.376,3.681c-2.33,2.381-4.764,4.655-7.234,6.886
			c-4.949,4.455-10.056,8.73-15.218,12.934c-10.34,8.391-20.893,16.498-31.608,24.42L776.641,545.952z"/>
	</g>
	<g>
		<path fill="#FFFFFF" d="M973.364,568.133c0.181,0.318,0.561,0.817,0.909,1.211c0.363,0.414,0.758,0.815,1.174,1.2
			c0.831,0.77,1.74,1.48,2.692,2.138c1.907,1.314,3.984,2.422,6.131,3.383c4.306,1.917,8.894,3.255,13.549,4.264l-0.183-0.026
			c1.032,0.084,1.976,0.225,2.958,0.42c0.973,0.198,1.944,0.452,2.915,0.823c0.964,0.381,1.954,0.851,2.847,1.717
			c0.438,0.435,0.845,1.005,1.063,1.687c0.225,0.679,0.226,1.417,0.088,2.048l-0.001,0.005l-0.438,1.188l-0.804-0.186l-5.486-1.27
			h-0.001l0,0c1.96-0.144,3.935-0.119,5.919,0.14c0.99,0.141,1.993,0.305,3.004,0.659c0.505,0.183,1.017,0.401,1.533,0.746
			c0.492,0.34,1.1,0.852,1.334,1.751l-0.066-0.205c0.173,0.391,0.275,0.692,0.379,1.056c0.098,0.353,0.175,0.718,0.213,1.11
			c0.032,0.392,0.025,0.811-0.061,1.256c-0.083,0.443-0.267,0.921-0.581,1.339l-0.006,0.008l-0.348-1.84
			c0.747,0.48,1.372,0.963,2.011,1.531c0.625,0.567,1.227,1.192,1.738,1.984c0.49,0.77,0.969,1.84,0.746,3.091
			c-0.235,1.256-1.105,2.097-1.859,2.618l0.1-2.012c0.686,0.61,1.212,1.197,1.734,1.895c0.506,0.69,0.963,1.455,1.263,2.358
			c0.298,0.89,0.406,1.986,0.074,3.017c-0.32,1.034-1.008,1.847-1.721,2.428l0.414-1.345c0.432,1.53,0.748,3.005,1.005,4.537
			c0.251,1.523,0.424,3.069,0.457,4.646c0.025,1.576-0.065,3.192-0.536,4.831c-0.24,0.815-0.589,1.641-1.124,2.401
			c-0.529,0.76-1.277,1.437-2.143,1.865l-0.477,0.236l-0.457-0.155c-0.653-0.223-1.076-0.398-1.608-0.604l-1.508-0.602l-2.995-1.225
			l-5.96-2.49l-0.056-0.022l-0.079-0.044c-4.406-2.401-9.125-4.464-13.892-6.187c-4.782-1.713-9.693-3.078-14.679-3.86
			c-4.977-0.774-10.062-0.966-14.944-0.074c-4.871,0.871-9.494,2.967-13.082,6.312l-1.723-1.865
			c3.964-3.703,9.102-6.013,14.346-6.944c5.265-0.958,10.617-0.74,15.795,0.063c5.188,0.813,10.24,2.223,15.145,3.979
			c4.911,1.779,9.657,3.845,14.29,6.37l-0.135-0.066l5.943,2.482l2.976,1.217l1.487,0.593c0.47,0.185,1.046,0.408,1.408,0.534
			l-0.933,0.081c0.952-0.463,1.604-1.463,1.966-2.711c0.362-1.244,0.461-2.653,0.435-4.063c-0.029-1.417-0.188-2.854-0.424-4.284
			c-0.236-1.421-0.553-2.877-0.935-4.229l-0.23-0.815l0.645-0.529c0.459-0.376,0.774-0.792,0.905-1.221
			c0.137-0.427,0.113-0.921-0.065-1.467c-0.178-0.544-0.499-1.107-0.892-1.641c-0.384-0.522-0.886-1.067-1.336-1.467l-1.231-1.093
			l1.331-0.919c0.491-0.34,0.768-0.706,0.807-0.992c0.066-0.285-0.06-0.756-0.388-1.262c-0.321-0.501-0.786-1.002-1.298-1.464
			c-0.506-0.455-1.105-0.91-1.649-1.26l-1.022-0.657l0.675-1.185l0.001-0.001c0.103-0.138,0.217-0.466,0.192-0.919
			c0-0.221-0.027-0.463-0.071-0.708c-0.041-0.234-0.119-0.521-0.178-0.7l-0.067-0.203l0.001-0.002
			c0.014-0.062-0.08-0.311-0.354-0.548c-0.261-0.239-0.619-0.469-1.004-0.671c-0.777-0.408-1.653-0.767-2.552-1.062
			c-1.807-0.593-3.692-1.08-5.603-1.523l0,0h0.001l5.486-1.27l-1.241,1.003v-0.002c0.105-0.569-0.006-0.931-0.46-1.404
			c-0.457-0.455-1.187-0.849-1.967-1.146c-0.786-0.302-1.639-0.528-2.508-0.705c-0.86-0.174-1.781-0.307-2.623-0.374l-0.103-0.009
			l-0.08-0.018c-4.781-1.037-9.521-2.412-14.05-4.427c-2.259-1.013-4.466-2.185-6.538-3.612c-1.035-0.715-2.035-1.494-2.977-2.365
			c-0.471-0.436-0.925-0.896-1.357-1.39c-0.442-0.519-0.823-0.967-1.244-1.696L973.364,568.133z"/>
	</g>
	<circle fill="#FFFFFF" cx="496.282" cy="566.214" r="1.61"/>
	<circle fill="#FFFFFF" cx="545.993" cy="521.872" r="2.267"/>
	<g>
		<path fill="#FFFFFF" d="M397.826,177.591c0.096-0.904,0.338-1.7,0.619-2.471c0.284-0.769,0.632-1.495,1.009-2.204
			c0.378-0.708,0.768-1.406,1.205-2.086c0.425-0.69,0.864-1.357,1.363-2.085c0.167,0.878,0.042,1.758-0.148,2.584
			c-0.187,0.835-0.496,1.621-0.854,2.376c-0.361,0.754-0.789,1.471-1.311,2.129C399.185,176.488,398.598,177.105,397.826,177.591z"
			/>
	</g>
	<g>
		<path fill="#FFFFFF" d="M260.324,135.499c1.268,0.089,2.316,0.464,3.311,0.909c0.494,0.226,0.959,0.491,1.39,0.8
			c0.431,0.309,0.829,0.66,1.144,1.12l-1.606,2.091c-0.525-0.187-0.967-0.481-1.377-0.817c-0.409-0.337-0.785-0.718-1.13-1.137
			C261.368,137.618,260.736,136.701,260.324,135.499z"/>
	</g>
	<g>
		<path fill="#FFFFFF" d="M268.715,146.15c0.935,0.347,1.715,0.892,2.419,1.512c0.696,0.629,1.298,1.36,1.789,2.19
			c0.472,0.831,0.912,1.761,0.942,2.837c0.035,1.034-0.389,2.347-1.537,2.821c-0.393-1.123-0.79-1.65-1.082-2.325
			c-0.303-0.646-0.511-1.36-0.815-2.096l-0.906-2.314C269.23,147.959,268.94,147.114,268.715,146.15z"/>
	</g>
	<g>
		<path fill="#FFFFFF" d="M296.474,148.277c0.204-0.657,0.567-1.23,1-1.75c0.437-0.516,0.967-0.976,1.604-1.304
			c0.62-0.351,1.406-0.533,2.174-0.392c0.767,0.153,1.417,0.66,1.678,1.318c-0.687-0.191-1.243-0.286-1.76-0.212
			c-0.513,0.044-1,0.231-1.521,0.443c-0.508,0.241-1.02,0.541-1.542,0.868C297.583,147.576,297.06,147.93,296.474,148.277z"/>
	</g>
	<g>
		<path fill="#FFFFFF" d="M267.424,83.856c0.657-1.184,1.25-2.223,1.787-3.294c0.537-1.06,1.06-2.097,1.497-3.189
			c0.44-1.089,0.81-2.217,1.106-3.395c0.314-1.177,0.548-2.395,0.842-3.679c0.483,1.228,0.675,2.541,0.687,3.866
			c0.004,1.325-0.222,2.663-0.645,3.939c-0.428,1.274-1.068,2.494-1.957,3.511C269.841,82.609,268.767,83.503,267.424,83.856z"/>
	</g>
	<path fill="none" stroke="#FFFFFF" stroke-width="1.636" stroke-miterlimit="10" d="M393.844,202.479c0,0,15.482-7.633,29.32-3.397
		"/>
	<g>
		<polygon fill="#FFFFFF" points="458.252,203.252 448.568,200.141 458.619,201.706 		"/>
	</g>
	<g>
		<path fill="#FFFFFF" d="M463.642,197.493c-1.919-0.514-3.818-1.055-5.711-1.636c-0.945-0.292-1.888-0.595-2.822-0.923
			c-0.929-0.336-1.872-0.664-2.734-1.149c0.916,0.364,1.882,0.559,2.841,0.767c0.962,0.198,1.929,0.37,2.898,0.532
			c1.938,0.32,3.888,0.601,5.831,0.849L463.642,197.493z"/>
	</g>
	<g>
		<polygon fill="#FFFFFF" points="454.956,188.111 469.667,189.567 469.426,191.138 		"/>
	</g>
	
		<line fill="none" stroke="#FFFFFF" stroke-width="1.5902" stroke-miterlimit="10" x1="481.349" y1="542.339" x2="491.348" y2="555.074"/>
	
		<line fill="none" stroke="#FFFFFF" stroke-width="1.5902" stroke-miterlimit="10" x1="488.569" y1="524.138" x2="501.634" y2="541.697"/>
	
		<line fill="none" stroke="#FFFFFF" stroke-width="1.5902" stroke-miterlimit="10" x1="505.169" y1="510.569" x2="515.59" y2="526.326"/>
	
		<line fill="none" stroke="#FFFFFF" stroke-width="1.5902" stroke-miterlimit="10" x1="526.591" y1="502.431" x2="533.158" y2="511.338"/>
	<path fill="none" stroke="#FFFFFF" stroke-width="0.635" stroke-miterlimit="10" d="M525.068,569.18c0,0,75.535-5.689,76.78-33.77"
		/>
	<path fill="none" stroke="#FFFFFF" stroke-width="0.635" stroke-miterlimit="10" d="M527.978,568.915
		c0,0,64.557-9.942,73.871-33.504"/>
	<path fill="none" stroke="#FFFFFF" stroke-width="0.635" stroke-miterlimit="10" d="M526.591,570.301
		c0,0,70.329-2.605,75.837-29.077"/>
	<path fill="none" stroke="#FFFFFF" stroke-width="0.635" stroke-miterlimit="10" d="M527.978,568.915
		c0,0,56.265,9.065,72.952-23.516"/>
	<path fill="none" stroke="#FFFFFF" stroke-width="0.635" stroke-miterlimit="10" d="M525.068,570.528
		c0,0,24.745-8.576,47.771-17.683c0,0,22.604-8.721,27.236-17.435"/>
	<path fill="none" stroke="#FFFFFF" stroke-width="0.635" stroke-miterlimit="10" d="M526.591,570.301
		c0,0,31.315-13.973,41.644-18.139c0,0,24.949-8.359,31.841-16.752"/>
	<path fill="none" stroke="#FFFFFF" stroke-width="0.635" stroke-miterlimit="10" d="M523.739,570.301
		c0,0,30.114-16.528,56.832-24.902"/>
	<path fill="none" stroke="#FFFFFF" stroke-width="0.9525" stroke-miterlimit="10" d="M522.529,611.573
		c0,0,61.136-28.886,65.567-49.546c0,0,37.991-11.802,35.589-33.627"/>
	<path fill="none" stroke="#FFFFFF" stroke-width="0.9525" stroke-miterlimit="10" d="M590.22,474.089
		c0,0,28.408,22.27,32.583,21.944c0,0-40.596-4.466-36.124,11"/>
	<path fill="none" stroke="#FFFFFF" stroke-width="0.9525" stroke-miterlimit="10" stroke-dasharray="2.5399" d="M444.408,328.076
		c0,0,23.215-42.637,17.843-70.806"/>
	<path fill="none" stroke="#FFFFFF" stroke-width="0.635" stroke-miterlimit="10" stroke-dasharray="1.905,3.8099" d="
		M448.568,329.062c0,0,24.567-48.33,18.699-72.37"/>
	<path fill="none" stroke="#FFFFFF" stroke-width="0.9525" stroke-miterlimit="10" stroke-dasharray="2.5399" d="M452.375,330.059
		c0,0,22.58-43.518,20.644-73.367"/>
	<path fill="none" stroke="#FFFFFF" stroke-width="0.9525" stroke-miterlimit="10" stroke-dasharray="2.5399" d="M458.084,332.076
		c0,0,26.773-37.793,26.179-73.289"/>
	<path fill="none" stroke="#FFFFFF" stroke-width="0.635" stroke-miterlimit="10" stroke-dasharray="1.905,3.8099" d="
		M455.054,330.966c0,0,22.807-38.279,23.451-73.462"/>
	<path fill="none" stroke="#FFFFFF" stroke-width="1.5902" stroke-miterlimit="10" d="M417.981,359.479
		c0,0-18.468,26.132-16.576,30.668"/>
	<path fill="none" stroke="#FFFFFF" stroke-width="0.635" stroke-miterlimit="10" stroke-dasharray="1.905,3.8099" d="
		M343.519,424.821c0,0,41.111-35.604,51.852-41.245"/>
	<path fill="none" stroke="#FFFFFF" stroke-width="0.9525" stroke-miterlimit="10" stroke-dasharray="2.5399" d="M345.625,428.193
		c0,0,33.729-31.791,51.672-42.011"/>
	<path fill="none" stroke="#FFFFFF" stroke-width="0.635" stroke-miterlimit="10" stroke-dasharray="1.905,3.8099" d="
		M347.419,429.774c0,0,37.166-30.921,51.041-42.044"/>
	<path fill="none" stroke="#FFFFFF" stroke-width="0.9525" stroke-miterlimit="10" stroke-dasharray="2.5399" d="M347.419,433.523
		c0,0,42.283-33.309,52.632-44.305"/>
	
		<line fill="none" stroke="#FFFFFF" stroke-width="0.635" stroke-miterlimit="10" stroke-dasharray="1.905,3.8099" x1="349.6" y1="435.136" x2="400.547" y2="394.214"/>
	
		<line fill="none" stroke="#FFFFFF" stroke-width="0.9525" stroke-miterlimit="10" stroke-dasharray="2.5399" x1="352.985" y1="437.548" x2="401.405" y2="397.542"/>
	<path fill="none" stroke="#FFFFFF" stroke-width="0.635" stroke-miterlimit="10" stroke-dasharray="1.905,3.8099" d="
		M354.474,440.694c0,0,43.262-36.255,47.334-37.1"/>
	<path fill="none" stroke="#FFFFFF" stroke-width="0.9525" stroke-miterlimit="10" stroke-dasharray="2.5399" d="M356.095,443.668
		c0,0,33.554-29.138,47.318-36.481"/>
	<path fill="none" stroke="#FFFFFF" stroke-width="0.635" stroke-miterlimit="10" stroke-dasharray="1.905,3.8099" d="
		M358.015,445.5c0,0,37.244-32.051,48.042-35.947"/>
	<path fill="none" stroke="#FFFFFF" stroke-width="0.9525" stroke-miterlimit="10" stroke-dasharray="2.5399" d="M426.246,353.135
		c0,0-19.856,25.496-24.841,37.012"/>
	<path fill="none" stroke="#FFFFFF" stroke-width="0.9525" stroke-miterlimit="10" stroke-dasharray="2.5399" d="M401.405,397.542
		c0,0,6.116-20.422,21.272-34.559"/>
	<path fill="none" stroke="#FFFFFF" stroke-width="0.635" stroke-miterlimit="10" stroke-dasharray="1.905,3.8099" d="
		M420.361,371.319c0,0-15.524,18.643-18.553,30.438"/>
	<path fill="none" stroke="#FFFFFF" stroke-width="0.9525" stroke-miterlimit="10" stroke-dasharray="2.5399" d="M418.809,380.263
		c0,0-10.883,7.176-16.586,24.676"/>
	<path fill="none" stroke="#FFFFFF" stroke-width="0.635" stroke-miterlimit="10" stroke-dasharray="1.905,3.8099" d="
		M408.247,410.402c0,0-9.796-8.657,9.734-26.229"/>
	<path fill="none" stroke="#FFFFFF" stroke-width="0.9525" stroke-miterlimit="10" stroke-dasharray="2.5399" d="M409.868,407.187
		c0,0-6.764-10.915,7.857-19.457"/>
	<path fill="none" stroke="#FFFFFF" stroke-width="0.635" stroke-miterlimit="10" stroke-dasharray="1.905,3.8099" d="
		M413.826,399.722c0,0-10.596-1.837,2.994-7.474"/>
	<path fill="none" stroke="#FFFFFF" stroke-width="0.635" stroke-miterlimit="10" stroke-dasharray="1.905,3.8099" d="
		M397.297,374.289c0,0-2.577,9.456,4.511,11.146"/>
	<path fill="none" stroke="#FFFFFF" stroke-width="0.9525" stroke-miterlimit="10" stroke-dasharray="2.5399" d="M398.46,372.979
		c0,0-2.157,13.553,4.954,7.663"/>
	
		<line fill="none" stroke="#FFFFFF" stroke-width="0.635" stroke-miterlimit="10" stroke-dasharray="1.905,3.8099" x1="398.46" y1="372.979" x2="403.414" y2="380.642"/>
	<path fill="none" stroke="#FFFFFF" stroke-width="0.9525" stroke-miterlimit="10" stroke-dasharray="2.5399" d="M398.46,372.979
		c0,0,8.316-0.912,4.954,7.663"/>
	<path fill="none" stroke="#FFFFFF" stroke-width="0.9525" stroke-miterlimit="10" stroke-dasharray="2.5399" d="M399.324,371.319
		c0,0,7.062-1.669,7.607,5.202"/>
	<path fill="none" stroke="#FFFFFF" stroke-width="0.9525" stroke-miterlimit="10" stroke-dasharray="2.5399" d="M402.223,368.138
		c0,0,7.998,0.832,7.402,4.841"/>
	<path fill="none" stroke="#FFFFFF" stroke-width="0.9525" stroke-miterlimit="10" stroke-dasharray="2.5399" d="M404.214,367.116
		c0,0,5.087-2.188,7.354,1.904"/>
	<path fill="none" stroke="#FFFFFF" stroke-width="0.9525" stroke-miterlimit="10" stroke-dasharray="2.5399" d="M408.305,363.64
		c0,0,4.656,0.688,5.521,2.894"/>
	
		<line fill="none" stroke="#FFFFFF" stroke-width="1.5902" stroke-miterlimit="10" x1="413.016" y1="361.602" x2="413.826" y2="365.086"/>
	<path fill="none" stroke="#FFFFFF" stroke-width="0.9525" stroke-miterlimit="10" d="M533.158,478.306
		c0,0,24.998-21.769,54.938-5.851"/>
	<path fill="none" stroke="#FFFFFF" stroke-width="0.9525" stroke-miterlimit="10" d="M534.945,476.915
		c0,0,29.526-14.516,55.274-2.825"/>
	<path fill="none" stroke="#FFFFFF" stroke-width="0.9525" stroke-miterlimit="10" d="M536.973,476.915
		c0,0,29.017-6.496,51.124-2.825"/>
	<path fill="none" stroke="#FFFFFF" stroke-width="0.9525" stroke-miterlimit="10" d="M538.771,475.283
		c0,0,15.119,4.515,50.371-2.056"/>
	<path fill="none" stroke="#FFFFFF" stroke-width="0.635" stroke-miterlimit="10" d="M501.634,588.559
		c0,0,75.699-15.927,84.701-25.527"/>
	<path fill="none" stroke="#FFFFFF" stroke-width="0.635" stroke-miterlimit="10" d="M488.569,584.94
		c0,0,60.739-6.726,81.934-16.025"/>
	<path fill="none" stroke="#FFFFFF" stroke-width="1.27" stroke-miterlimit="10" d="M501.634,588.559
		c0,0,68.608-3.719,84.701-25.527c0,0,20.081-4.587,22.189,7.27"/>
	<path fill="none" stroke="#FFFFFF" stroke-width="0.9525" stroke-miterlimit="10" d="M506.414,592.748
		c0,0,57.365-3.462,78.635-28.144"/>
	<path fill="none" stroke="#FFFFFF" stroke-width="0.9525" stroke-miterlimit="10" d="M515.59,598.163
		c0,0,57.547-8.208,69.459-33.559"/>
	<path fill="none" stroke="#FFFFFF" stroke-width="0.9525" stroke-miterlimit="10" d="M522.529,602.608
		c0,0,46.39-7.421,62.52-38.004"/>
	<g>
		<path fill="#FFFFFF" d="M627.311,472.724c1.343-0.312,2.721-0.764,4.008-1.35c1.275-0.601,2.553-1.324,3.412-2.51
			c-0.631,1.332-1.816,2.343-3.015,3.198c-0.609,0.429-1.245,0.818-1.897,1.179c-0.657,0.361-1.312,0.692-2.025,0.998
			L627.311,472.724z"/>
	</g>
	<path fill="none" stroke="#FFFFFF" stroke-width="0.9525" stroke-miterlimit="10" d="M555.46,479.597"/>
	<g>
		<path fill="#FFFFFF" d="M1015.037,609.398c-1.057-0.186-2.058-0.544-3.035-0.935c-0.977-0.403-1.944-0.838-2.933-1.224
			c-0.986-0.394-1.982-0.767-2.994-1.114c-1.014-0.348-2.041-0.672-3.106-0.952c2.191-0.289,4.441-0.074,6.605,0.371
			c1.082,0.23,2.161,0.493,3.207,0.853c1.042,0.375,2.043,0.836,2.943,1.567L1015.037,609.398z"/>
	</g>
	<g>
		<path fill="#FFFFFF" d="M1013.741,601.683c-0.866-0.17-1.771-0.382-2.648-0.595c-0.884-0.214-1.771-0.425-2.673-0.547
			c-1.795-0.249-3.655-0.311-5.451,0.394c0.725-0.633,1.637-1.083,2.588-1.353c0.952-0.284,1.946-0.42,2.937-0.451
			c0.99-0.024,1.982,0.025,2.955,0.183c0.978,0.163,1.91,0.426,2.834,0.873L1013.741,601.683z"/>
	</g>
	<g>
		<path fill="#FFFFFF" d="M1011.265,594.611c-1.434,0.147-2.779-0.241-4.146-0.492c-0.682-0.134-1.365-0.253-2.052-0.332
			c-0.69-0.073-1.38-0.149-2.099,0.047c0.505-0.574,1.282-0.883,2.008-1.088c0.742-0.203,1.496-0.298,2.245-0.351
			c1.496-0.072,2.996-0.054,4.373,0.661L1011.265,594.611z"/>
	</g>
	<g>
		<path fill="#FFFFFF" d="M436.45,185.182c1.662-2.492,3.361-4.77,4.447-7.242c0.537-1.228,0.9-2.473,0.944-3.753
			c0.041-1.283-0.324-2.601-0.982-3.979c1.31,0.763,2.337,2.185,2.616,3.827c0.321,1.64-0.061,3.319-0.714,4.742
			c-0.663,1.435-1.593,2.686-2.661,3.759C439.029,183.607,437.828,184.542,436.45,185.182z"/>
	</g>
	<g>
		<path fill="#FFFFFF" d="M373.77,199.364c0.914,0.242,1.95,0.378,2.932,0.371c0.988-0.011,1.982-0.171,2.83-0.628
			c0.852-0.446,1.494-1.255,1.778-2.232c0.295-0.974,0.295-2.047,0.171-3.09c0.251,1.02,0.398,2.096,0.216,3.181
			c-0.164,1.08-0.786,2.152-1.738,2.812c-0.941,0.673-2.065,0.994-3.166,1.146c-1.118,0.145-2.202,0.146-3.355-0.005L373.77,199.364
			z"/>
	</g>
	<path fill="none" stroke="#FFFFFF" stroke-width="0.9525" stroke-miterlimit="10" d="M557.037,481.659
		c0,0,47.74,5.592,61.834,14.053"/>
	<path fill="none" stroke="#FFFFFF" stroke-width="0.9525" stroke-miterlimit="10" d="M558.002,482.877
		c0,0,37.663,12.293,57.858,12.67"/>
	<path fill="none" stroke="#FFFFFF" stroke-width="0.9525" stroke-miterlimit="10" d="M560.628,486.067
		c0,0,20.405,12.549,40.302,9.48"/>
	<path fill="none" stroke="#FFFFFF" stroke-width="0.9525" stroke-miterlimit="10" d="M569.705,495.547
		c0,0,13.373,5.646,25.124,0.486"/>
	<path fill="none" stroke="#FFFFFF" stroke-width="0.9525" stroke-miterlimit="10" d="M576.697,501.317
		c0,0,8.159,1.909,12.445-1.693"/>
	<path fill="none" stroke="#FFFFFF" stroke-width="0.9525" stroke-miterlimit="10" d="M561.493,456.41
		c0,0,19.958,5.728,23.556,14.548"/>
	<path fill="none" stroke="#FFFFFF" stroke-width="0.9525" stroke-miterlimit="10" d="M576.697,457.338c0,0,11.622,12.624,19,20.968
		"/>
	<path fill="none" stroke="#FFFFFF" stroke-width="1.5902" stroke-miterlimit="10" d="M584.002,454.719
		c0,0,8.186,23.961,36.99,40.828"/>
	<path fill="none" stroke="#FFFFFF" stroke-width="0.9525" stroke-miterlimit="10" d="M596.926,467.267
		c0,0,12.096,18.695,24.066,26.94"/>
	<path fill="none" stroke="#FFFFFF" stroke-width="0.9525" stroke-miterlimit="10" d="M600.93,466.632
		c0,0,10.497,20.187,20.063,26.114"/>
	<path fill="none" stroke="#FFFFFF" stroke-width="0.9525" stroke-miterlimit="10" d="M536.973,606.755
		c0,0,61.329-13.545,63.103-43.724"/>
	<path fill="none" stroke="#FFFFFF" stroke-width="0.9525" stroke-miterlimit="10" d="M534.945,606.755
		c0,0,33.563-7.479,61.98-43.724"/>
	<path fill="none" stroke="#FFFFFF" stroke-width="0.9525" stroke-miterlimit="10" d="M594.829,556.915
		c0,0,26.744-14.676,27.974-27.869"/>
	<path fill="none" stroke="#FFFFFF" stroke-width="0.9525" stroke-miterlimit="10" d="M600.93,547.636
		c0,0,16.337-8.809,20.063-17.549"/>
	<path fill="none" stroke="#FFFFFF" stroke-width="1.5902" stroke-miterlimit="10" d="M602.497,537.954c0,0,8.462-1.087,16.374-5.1"
		/>
	<path fill="none" stroke="#FFFFFF" stroke-width="0.9525" stroke-miterlimit="10" d="M592.425,562.159
		c0,0,41.445-10.218,32.919-33.759"/>
	<path fill="none" stroke="#FFFFFF" stroke-width="1.5902" stroke-miterlimit="10" d="M600.075,563.032
		c0,0,31.092-8.776,29.117-30.063"/>
	<path fill="none" stroke="#FFFFFF" stroke-width="1.5902" stroke-miterlimit="10" d="M604.875,564.604
		c0,0,26.207-5.907,26.977-23.38"/>
	<path fill="none" stroke="#FFFFFF" stroke-width="0.9525" stroke-miterlimit="10" d="M586.931,504.091
		c0,0,36.019,6.963,38.413,22.698c1.461,9.604-23.495,6.064-23.495,6.064"/>
	<path fill="none" stroke="#FFFFFF" stroke-width="0.9525" stroke-miterlimit="10" d="M586.378,504.091
		c0,0,41.053,0.053,38.966,22.698"/>
	<path fill="none" stroke="#FFFFFF" stroke-width="0.9525" stroke-miterlimit="10" d="M587.953,501.822
		c0,0,33.938-8.385,38.506,17.782"/>
	<path fill="none" stroke="#FFFFFF" stroke-width="0.9525" stroke-miterlimit="10" d="M594.829,497.086
		c0,0,30.403-0.475,32.723,16.36"/>
	<path fill="none" stroke="#FFFFFF" stroke-width="0.9525" stroke-miterlimit="10" d="M611.19,495.283
		c0,0,14.333,3.647,14.697,8.809"/>
	<path fill="none" stroke="#FFFFFF" stroke-width="0.9525" stroke-miterlimit="10" d="M588.097,510.075
		c0,0,24.249,18.086,35.589,20.863"/>
	<path fill="none" stroke="#FFFFFF" stroke-width="0.9525" stroke-miterlimit="10" d="M586.931,510.075
		c0,0,32.626,4.364,36.755,18.325v2.538"/>
	<path fill="none" stroke="#FFFFFF" stroke-width="0.9525" stroke-miterlimit="10" d="M589.824,511.338
		c0,0,24.405,8.073,32.979,17.707"/>
	<path fill="none" stroke="#FFFFFF" stroke-width="0.9525" stroke-miterlimit="10" d="M592.117,518.447
		c0,0,15.644,12.606,26.754,14.407"/>
	<path fill="none" stroke="#FFFFFF" stroke-width="0.9525" stroke-miterlimit="10" d="M597.309,526.79c0,0,11.751,6.955,17.37,7.924
		"/>
	<path fill="none" stroke="#FFFFFF" stroke-width="1.5902" stroke-miterlimit="10" d="M522.862,378.217
		c0,0,15.003,8.422,14.11,15.997"/>
	<path fill="#FFFFFF" d="M464.622,334.9l-0.357-0.524c0,0,0.566-0.385,1.611-1.062l0.345,0.534
		C465.185,334.517,464.624,334.899,464.622,334.9z M469.448,331.812l-0.333-0.541c0.509-0.314,1.054-0.646,1.633-0.996l0.329,0.543
		C470.499,331.167,469.956,331.499,469.448,331.812z M474.355,328.873l-0.32-0.548c0.535-0.312,1.086-0.63,1.656-0.954l0.314,0.552
		C475.438,328.245,474.887,328.563,474.355,328.873z M479.332,326.06l-0.305-0.557c0.548-0.301,1.107-0.605,1.678-0.912l0.3,0.559
		C480.437,325.456,479.878,325.759,479.332,326.06z M484.377,323.374l-0.292-0.564c0.56-0.289,1.127-0.578,1.702-0.868l0.287,0.567
		C485.5,322.797,484.935,323.085,484.377,323.374z M489.491,320.823l-0.275-0.571c0.569-0.274,1.145-0.548,1.725-0.82l0.271,0.574
		C490.632,320.278,490.059,320.55,489.491,320.823z M516.164,310.813l-0.152-0.616c0.621-0.154,1.242-0.303,1.861-0.441l0.141,0.618
		C517.397,310.513,516.781,310.66,516.164,310.813z M521.734,309.62l-0.109-0.625c0.631-0.112,1.26-0.216,1.889-0.31l0.094,0.627
		C522.986,309.407,522.361,309.508,521.734,309.62z M540.545,309.475c-0.607-0.134-1.231-0.252-1.854-0.353l0.101-0.626
		c0.634,0.102,1.271,0.223,1.89,0.358L540.545,309.475z M527.372,308.855l-0.058-0.633c0.641-0.058,1.278-0.105,1.91-0.143
		l0.037,0.634C528.636,308.75,528.006,308.797,527.372,308.855z M534.936,308.71c-0.623-0.039-1.254-0.063-1.889-0.075l0.012-0.635
		c0.645,0.012,1.283,0.037,1.918,0.076L534.936,308.71z"/>
	<path fill="#FFFFFF" d="M468.933,336.906l-0.48-0.822c0,0,0.798-0.467,2.233-1.269l0.465,0.83
		C469.728,336.442,468.936,336.904,468.933,336.906z M473.378,334.416l-0.456-0.836c0.682-0.373,1.432-0.779,2.245-1.214l0.449,0.84
		C474.806,333.639,474.058,334.043,473.378,334.416z M477.863,332.015l-0.443-0.843c0.721-0.379,1.476-0.771,2.264-1.176
		l0.435,0.848C479.334,331.247,478.582,331.638,477.863,332.015z M482.384,329.691l-0.429-0.851c0.739-0.373,1.5-0.753,2.282-1.138
		l0.421,0.854C483.879,328.941,483.121,329.32,482.384,329.691z M515.159,316.086l-0.271-0.912c0.823-0.246,1.642-0.479,2.456-0.701
		l0.25,0.919C516.787,315.611,515.976,315.843,515.159,316.086z M541.977,315.298c-0.654-0.424-1.386-0.794-2.175-1.1l0.343-0.888
		c0.852,0.329,1.643,0.729,2.35,1.188L541.977,315.298z M520.044,314.76l-0.225-0.926c0.841-0.204,1.672-0.393,2.494-0.566
		l0.196,0.933C521.697,314.372,520.874,314.558,520.044,314.76z M524.989,313.729l-0.16-0.939c0.859-0.146,1.706-0.272,2.536-0.375
		l0.117,0.945C526.666,313.461,525.834,313.584,524.989,313.729z M537.439,313.506c-0.764-0.163-1.59-0.286-2.454-0.365l0.087-0.949
		c0.902,0.082,1.766,0.212,2.566,0.383L537.439,313.506z M529.986,313.116l-0.064-0.95c0.861-0.059,1.709-0.088,2.516-0.089
		l0.055,0.952C531.652,313.03,530.826,313.059,529.986,313.116z"/>
	<path fill="#FFFFFF" d="M474.882,339.559l-0.325-0.546c0,0,0.592-0.352,1.668-0.962l0.314,0.552
		C475.471,339.209,474.883,339.558,474.882,339.559z M479.877,336.751l-0.304-0.558c0.527-0.287,1.089-0.59,1.685-0.906l0.298,0.561
		C480.963,336.164,480.402,336.466,479.877,336.751z M484.936,334.083l-0.289-0.565c0.551-0.282,1.12-0.571,1.704-0.864l0.285,0.566
		C486.052,333.513,485.486,333.8,484.936,334.083z M516.628,321.167l-0.167-0.612c0.619-0.169,1.236-0.33,1.852-0.483l0.153,0.616
		C517.855,320.839,517.242,321,516.628,321.167z M540.703,320.628c-0.542-0.261-1.123-0.497-1.727-0.702l0.203-0.602
		c0.629,0.213,1.234,0.459,1.799,0.732L540.703,320.628z M522.172,319.856l-0.123-0.623c0.634-0.124,1.262-0.239,1.886-0.344
		l0.104,0.627C523.422,319.619,522.799,319.732,522.172,319.856z M535.328,319.088c-0.598-0.081-1.229-0.144-1.873-0.186
		l0.041-0.633c0.66,0.042,1.306,0.106,1.917,0.189L535.328,319.088z M527.797,319.022l-0.061-0.632
		c0.647-0.061,1.286-0.107,1.916-0.138l0.03,0.634C529.063,318.917,528.434,318.962,527.797,319.022z"/>
	<path fill="#FFFFFF" d="M478.75,341.531l-0.49-0.816c0,0,0.793-0.477,2.233-1.274l0.461,0.833
		C479.538,341.058,478.754,341.528,478.75,341.531z M511.276,327.517l-0.264-0.915c0.815-0.235,1.635-0.462,2.46-0.68l0.244,0.921
		C512.898,327.059,512.083,327.285,511.276,327.517z M516.166,326.229l-0.219-0.927c0.826-0.196,1.658-0.383,2.491-0.559
		l0.196,0.933C517.809,325.85,516.986,326.035,516.166,326.229z M521.117,325.192l-0.168-0.938c0.841-0.151,1.684-0.29,2.527-0.415
		l0.139,0.942C522.781,324.905,521.949,325.042,521.117,325.192z M542.67,324.99c-0.496-0.107-0.996-0.204-1.498-0.292l0.164-0.938
		c0.515,0.09,1.025,0.189,1.535,0.299L542.67,324.99z M526.119,324.454l-0.107-0.946c0.85-0.097,1.699-0.178,2.547-0.242l0.072,0.95
		C527.795,324.278,526.957,324.358,526.119,324.454z M538.687,324.341c-0.829-0.094-1.664-0.165-2.505-0.214l0.056-0.951
		c0.858,0.051,1.711,0.123,2.556,0.219L538.687,324.341z M531.148,324.075l-0.033-0.952c0.68-0.023,1.357-0.036,2.033-0.036
		l0.527,0.003l-0.01,0.952l-0.518-0.003C532.484,324.039,531.816,324.051,531.148,324.075z"/>
	<path fill="#FFFFFF" d="M510.746,332.374l-0.216-0.597c0,0,0.667-0.241,1.823-0.614l0.194,0.604
		C511.408,332.134,510.749,332.374,510.746,332.374z M516.19,330.668l-0.173-0.611c0.583-0.164,1.199-0.332,1.847-0.502l0.161,0.614
		C517.383,330.337,516.77,330.505,516.19,330.668z M521.721,329.277l-0.137-0.62c0.611-0.135,1.237-0.267,1.873-0.392l0.123,0.623
		C522.949,329.013,522.328,329.143,521.721,329.277z M540.433,328.487c-0.57-0.165-1.184-0.306-1.822-0.417l0.108-0.625
		c0.662,0.115,1.298,0.261,1.891,0.432L540.433,328.487z M527.32,328.249l-0.089-0.629c0.632-0.091,1.267-0.172,1.901-0.242
		l0.069,0.631C528.574,328.078,527.946,328.159,527.32,328.249z M532.979,327.734l-0.019-0.635c0.649-0.02,1.292-0.022,1.921-0.009
		l-0.014,0.635C534.247,327.711,533.616,327.715,532.979,327.734z"/>
	<path fill="#FFFFFF" d="M508.158,336.934l-0.365-0.88c0.036-0.015,0.889-0.367,2.421-0.885l0.305,0.903
		C509.021,336.578,508.167,336.931,508.158,336.934z M512.926,335.31l-0.271-0.913c0.749-0.222,1.572-0.454,2.464-0.687l0.241,0.921
		C514.479,334.862,513.665,335.09,512.926,335.31z M517.814,334.032l-0.213-0.929c0.797-0.182,1.633-0.358,2.502-0.527l0.182,0.936
		C519.426,333.677,518.602,333.853,517.814,334.032z M522.771,333.07l-0.151-0.94c0.821-0.132,1.665-0.254,2.532-0.363l0.118,0.945
		C524.416,332.819,523.582,332.94,522.771,333.07z M540.365,332.503c-0.842-0.093-1.68-0.166-2.51-0.221l0.063-0.95
		c0.845,0.056,1.695,0.13,2.551,0.225L540.365,332.503z M527.78,332.438l-0.087-0.949c0.836-0.076,1.687-0.139,2.551-0.187
		l0.053,0.951C529.443,332.3,528.604,332.363,527.78,332.438z M535.339,332.171c-0.521-0.013-1.036-0.016-1.548-0.018
		c-0.326,0-0.65,0.004-0.973,0.009l-0.017-0.952c0.356-0.006,0.712-0.009,1.079-0.009c0.49,0,0.983,0.006,1.48,0.018
		L535.339,332.171z"/>
	<path fill="#FFFFFF" d="M505.927,344.278l-0.391-0.501c0.023-0.018,0.571-0.444,1.581-1.117l0.352,0.528
		C506.481,343.847,505.932,344.274,505.927,344.278z M510.707,341.218l-0.31-0.555c0.527-0.294,1.092-0.598,1.691-0.904l0.289,0.565
		C511.785,340.627,511.227,340.927,510.707,341.218z M515.81,338.718l-0.248-0.584c0.574-0.244,1.168-0.483,1.78-0.717l0.226,0.593
		C516.963,338.241,516.377,338.478,515.81,338.718z M521.154,336.8l-0.178-0.608c0.604-0.178,1.223-0.346,1.852-0.502l0.152,0.616
		C522.359,336.46,521.751,336.625,521.154,336.8z M539.825,335.88c-0.615-0.134-1.238-0.252-1.854-0.351l0.101-0.627
		c0.627,0.101,1.263,0.221,1.89,0.357L539.825,335.88z M526.688,335.557l-0.098-0.627c0.627-0.097,1.262-0.181,1.904-0.25
		l0.066,0.632C527.93,335.379,527.303,335.461,526.688,335.557z M534.219,335.141c-0.574-0.027-1.145-0.041-1.711-0.041h-0.178
		v-0.635l0.175-0.001c0.579,0,1.159,0.014,1.745,0.043L534.219,335.141z"/>
	<g>
		<path fill="#FFFFFF" d="M638.371,257.504c0.835-0.463,1.746-0.774,2.695-0.99c0.951-0.188,1.963-0.285,3.007-0.029
			c1.043,0.208,2.104,1.011,2.559,2.08c0.461,1.06,0.455,2.151,0.357,3.151l0.006-0.095c-0.034,0.678-0.139,1.247-0.337,1.852
			c-0.217,0.582-0.5,1.169-0.946,1.646c-0.426,0.49-1.01,0.854-1.616,1.019c-0.613,0.155-1.229,0.129-1.78-0.051
			c0.555-0.171,1.063-0.361,1.464-0.661c0.408-0.282,0.709-0.647,0.94-1.049c0.216-0.414,0.4-0.852,0.497-1.332
			c0.112-0.46,0.191-0.994,0.188-1.425l-0.001-0.05l0.007-0.045c0.115-0.847,0.096-1.696-0.165-2.378
			c-0.234-0.696-0.782-1.174-1.535-1.478c-0.757-0.286-1.657-0.386-2.561-0.381C640.238,257.281,639.312,257.376,638.371,257.504z"
			/>
	</g>
	<path fill="none" stroke="#FFFFFF" stroke-width="1.5902" stroke-miterlimit="10" d="M759.735,572.577l2.403,2.783
		c0,0,18.523-10.152,20.208-15.528l-3.031-2.095L759.735,572.577z"/>
	<path fill="none" stroke="#FFFFFF" stroke-width="1.5902" stroke-miterlimit="10" d="M754.768,566.398l2.403,2.782
		c0,0,18.523-10.151,20.205-15.527l-3.028-2.095L754.768,566.398z"/>
	<path fill="none" stroke="#FFFFFF" stroke-width="1.5902" stroke-miterlimit="10" d="M750.02,560.202l2.403,2.782
		c0,0,18.524-10.151,20.208-15.527l-3.031-2.095L750.02,560.202z"/>
	<path fill="none" stroke="#FFFFFF" stroke-width="1.5902" stroke-miterlimit="10" d="M745.247,553.665l2.406,2.783
		c0,0,18.523-10.15,20.205-15.527l-3.028-2.095L745.247,553.665z"/>
	<path fill="none" stroke="#FFFFFF" stroke-width="1.5902" stroke-miterlimit="10" d="M740.304,547.253l2.403,2.782
		c0,0,18.526-10.15,20.208-15.527l-3.028-2.094L740.304,547.253z"/>
	<path fill="none" stroke="#FFFFFF" stroke-width="1.5902" stroke-miterlimit="10" d="M735.534,541.439l2.403,2.783
		c0,0,18.523-10.151,20.208-15.527l-3.031-2.095L735.534,541.439z"/>
	<path fill="none" stroke="#FFFFFF" stroke-width="1.5902" stroke-miterlimit="10" d="M730.762,535.078l2.406,2.783
		c0,0,18.523-10.15,20.205-15.527l-3.028-2.095L730.762,535.078z"/>
	<path fill="none" stroke="#FFFFFF" stroke-width="1.5902" stroke-miterlimit="10" d="M725.992,528.718l2.405,2.783
		c0,0,18.524-10.152,20.206-15.528l-3.029-2.095L725.992,528.718z"/>
	<path fill="none" stroke="#FFFFFF" stroke-width="1.5902" stroke-miterlimit="10" d="M721.222,520.767l2.404,2.783
		c0,0,18.523-10.152,20.207-15.528l-3.028-2.095L721.222,520.767z"/>
	<path fill="none" stroke="#FFFFFF" stroke-width="0.9525" stroke-miterlimit="10" d="M556.332,480.737
		c0,0,35.596-2.851,58.347,12.01"/>
	<path fill="none" stroke="#FFFFFF" stroke-width="0.9525" stroke-miterlimit="10" d="M576.697,477.539c0,0,14.97,0.851,33.9,10.993
		"/>
	
		<line fill="none" stroke="#FFFFFF" stroke-width="0.9525" stroke-miterlimit="10" x1="587.953" y1="475.286" x2="600.93" y2="483.956"/>
	<g>
		<path fill="#FFFFFF" d="M591.928,275.751c0.485-0.91,1.247-1.63,2.075-2.233c0.837-0.597,1.779-1.059,2.774-1.35
			c0.991-0.302,2.037-0.439,3.067-0.36c1.028,0.093,2.044,0.346,2.938,0.915c-1.025,0.263-1.959,0.396-2.874,0.567
			c-0.91,0.166-1.8,0.316-2.684,0.53C595.455,274.249,593.743,274.875,591.928,275.751z"/>
	</g>
	<g>
		<path fill="#FFFFFF" d="M539.944,290.081c-0.055-1.217,0.587-2.151,1.38-2.793c0.824-0.621,1.813-1.006,2.814-1.217
			c1.004-0.205,2.038-0.216,3.01-0.008c0.972,0.194,1.889,0.57,2.677,1.146c-0.971,0.11-1.864,0.207-2.712,0.355
			c-0.846,0.155-1.639,0.362-2.389,0.638c-0.758,0.26-1.44,0.647-2.143,1.015C541.857,289.574,541.102,289.847,539.944,290.081z"/>
	</g>
	<ellipse fill="#FFFFFF" cx="596.797" cy="282.846" rx="2.22" ry="1.806"/>
	<ellipse fill="#FFFFFF" cx="547.605" cy="297.267" rx="2.22" ry="1.806"/>
	<g>
		<path fill="#FFFFFF" d="M581.918,320.429c-0.124-0.847,0.205-1.604,0.659-2.222c0.467-0.621,1.133-1.07,1.848-1.358
			c0.715-0.291,1.486-0.425,2.235-0.378c0.749,0.059,1.476,0.24,2.117,0.661c-0.696,0.317-1.319,0.533-1.896,0.791
			c-0.578,0.24-1.106,0.492-1.61,0.76c-0.508,0.268-0.97,0.572-1.501,0.847C583.232,319.813,582.679,320.094,581.918,320.429z"/>
	</g>
	<path fill="#0A8AEE" stroke="#FFFFFF" stroke-width="1.5902" stroke-miterlimit="10" d="M648.278,301.725l-4.864,2.334h-5.043
		l-3.903-0.121l-3.907,0.121l-0.933,3.09c0,0-2.337-2.417-3.038-3.09c-0.701-0.672-3.738,3.09-3.738,3.09h-4.206l-4.439,0.174
		l-2.337,0.555c0,0-1.168,1.294-2.57,1.995c-1.402,0.7-4.206-1.562-4.206-1.562l-3.271-4.373c0,0-3.972,1.028-5.023,1.252
		c-1.052,0.225-2.688,0.242-3.389,0s-3.973,0-3.973,0l-3.388,1.959l-1.986,0.729c0,0-5.808-0.729-7.243,0
		c-1.437,0.729-2.104,1.761-3.506,3.063c-1.402,1.301-3.038,0.74-3.038,0.74s-5.374,0.996-6.309,1.102
		c-0.934,0.105-1.402,3.305-1.402,3.305c-1.636,3.645-6.543,4.035-6.543,4.035l2.337,3.441l4.206,2.956l2.744,0.73l2.396,1.813
		l4.077-0.986h4.851l3.691,1.662h3.972h4.674c0,0,3.505-1.172,4.673-1.662c1.169-0.489,2.104-0.826,2.104-0.826h6.883l6.71,2.488
		l2.541,2.338l6.298-3.17l3.459,0.832l3.707-1.662l2.208-1.557l3.009-5.045l1.539,0.857c5.277-9.974,17.136-18.272,17.136-18.272
		L648.278,301.725z M601.821,320.122l-2.804,1.353c0,0-4.907,1.717-5.608,2.089c-0.701,0.37-3.271,0-3.271,0l-2.805-2.089
		l-0.936,2.089l-3.738-0.854v2.586l-4.405-0.771v0.771l-4.24-0.771l-3.739-4.402v-1.341l2.805-3.083h5.175l4.405-2.612l3.389-1.268
		c0,0,6.893-0.31,8.528,0c1.637,0.311,2.778,0,2.778,0l4.466,3.451V320.122z"/>
	<g>
		<path fill="#FFFFFF" d="M519.288,277.713l-6.959,16.985l-3.417,8.518l-1.668,4.274c-0.527,1.434-1.127,2.849-1.512,4.327
			c0.321-1.497,0.86-2.938,1.325-4.395l1.482-4.345l3.047-8.662l6.22-17.279L519.288,277.713z"/>
	</g>
	<g>
		<polygon fill="#FFFFFF" points="526.51,279.743 514.416,310.94 525.014,279.204 		"/>
	</g>
	<path fill="none" stroke="#FFFFFF" stroke-width="2.5399" stroke-miterlimit="10" d="M501.634,364.491
		c0,0-0.452-11.516,6.341-27.996c0,0,7.135-11.017,7.479-23.713c0,0,7.123-16.451,12.522-28.13c0,0,0.531-5.521-2.216-5.178
		c0,0-2.062-5.471-7.215-2.048c0,0-3.092-3.766-6.184,0c0,0-4.929,1.754-5.728,7.226c0,0-9.25,23.12-11.962,25.743
		c0,0-7.447,12.038-8.105,20.963c0,0-10.656,17.98-8.062,27.539C478.505,358.896,490.73,363.217,501.634,364.491z"/>
	<g>
		<path fill="none" stroke="#FFFFFF" stroke-width="2.5399" stroke-miterlimit="10" d="M486.567,331.357
			c0.498-6.747,4.872-15.266,6.978-19.024c-19.767,8.508-33.456,20.521-33.456,20.521c8.449,3.886,15.499,6.837,21.314,9.088
			C483.78,336.066,486.567,331.357,486.567,331.357z"/>
		<path fill="none" stroke="#FFFFFF" stroke-width="2.5399" stroke-miterlimit="10" d="M518.889,304.921
			c-2.031,4.621-3.434,7.86-3.434,7.86c-0.345,12.696-7.479,23.713-7.479,23.713c-1.893,4.591-3.208,8.777-4.142,12.456
			c0.132,0.021,0.205,0.03,0.205,0.03c10.973-11.173,38.731-12.646,38.731-12.646V305.19
			C534.648,303.684,526.598,303.787,518.889,304.921z"/>
	</g>
</g>
<circle fill="#EF214A" cx="134.042" cy="372.249" r="116.85"/>
<path fill="#FFFFFF" d="M40.046,74.057c0,0,12.706,12.403,26.318,16.336c0,0,24.806-3.328,22.991-16.336c0,0-4.84-7.26-22.083-4.537
	c0,0-17.243-7.26-25.412-2.117C41.861,67.402,37.093,71.407,40.046,74.057z"/>
<path fill="#FFFFFF" d="M112.649,60.443l19.361,15.73c0,0,1.512,77.141,10.89,77.747c0,0-16.335,0.302-17.848,3.025
	c0,0-2.722,2.117,2.723,7.865c0,0,7.865,6.958,7.865,9.984l3.933,31.159c0,0-18.151,11.797-36.906,8.47l-1.815-20.874
	c0,0,33.579,8.168,30.856-7.865c0,0-3.328-12.101-16.335-9.076c0,0-7.865,1.815-9.983,7.26c0,0-3.025,0.605-4.538-4.538
	c0,0-13.613-15.73-27.832-11.797c0,0-7.26,0,1.815,14.822c0,0,3.63,5.144,6.958,7.563c0,0,2.118,43.864,9.983,43.562
	c0,0,7.563,0,9.378-7.866c0,0,56.268,5.143,55.662-10.891c0,0-1.814-1.815-5.445-5.142c0,0,0.615-22.386,5.45-29.647
	c0,0,9.978-8.773-11.198-23.595c0,0,10.891-9.984,10.286-19.967c0,0,10.285-2.42,18.151,1.512c0,0,16.94,8.471,20.571-9.076
	c0,0-0.908-6.352-16.335-8.47c0,0-12.403-0.302-15.731,5.749c0,0-6.655,2.722-7.26-0.605l-0.605-55.663
	c0,0-12.102-17.546-37.21-17.244C117.489,52.577,111.44,53.789,112.649,60.443z"/>
<path fill="#FFFFFF" d="M104.783,134.86c-2.118-29.646-40.517-25.411-40.517-25.411c-19.038,5.748-25.185,20.268-25.185,20.268
	c-7.619,36,36.056,32.066,36.056,32.066C109.32,161.179,104.783,134.86,104.783,134.86z M71.461,146.961
	c0,0-13.568-0.303-15.988-9.681c0,0-4.378-13.009,16.112-12.403c0,0,14.441-1.897,16.257,10.698
	C87.842,135.575,90.777,147.566,71.461,146.961z"/>
<path fill="#FFFFFF" d="M20.684,95.836c0,0-3.025,16.336,24.504,17.546c0,0,8.47-10.891,52.032-8.772c0,0,12.5,0.302,7.763-16.336
	c0,0-4.868-10.015-27.124,4.839c0,0-11.797,3.631-42.352,3.025C35.507,96.138,23.104,91.903,20.684,95.836z"/>
<path fill="#FFFFFF" d="M51.843,410.148c0,0,63.528-37.814,62.016-45.378c0,0-7.866-19.965-29.344-16.637
	c0,0-37.209,5.142-36.302-13.613c0,0,3.036-17.547,32.828-9.379c0,0,35.843-0.302,46.431,39.629c0,0,10.89,8.773,5.445,16.337
	c0,0-68.67,44.771-92.569,33.578C40.348,414.685,40.349,409.542,51.843,410.148z"/>
<path fill="#FFFFFF" d="M182.831,309.411c0,0-20.269-25.713-43.562-13.31c0,0-5.748,6.353,19.059,22.083l8.773,143.996
	C167.101,462.18,193.419,453.407,182.831,309.411z"/>
<path fill="#FFFFFF" d="M87.54,577.738c-0.478-0.979-20.571-1.209-21.479-14.822c0,0-0.605-9.076,29.042-2.724
	c0,0,27.831,0,48.402-13.612c0,0,16.033-9.075,26.923,9.378c0,0-1.21,17.545-62.62,16.638c0,0-8.47,3.327-7.865,26.319
	c0,0,0.908,12.705,14.823,9.075c0,0,30.857-15.73,42.352-14.219c0,0,14.219,2.817,13.311,14.871c0,0,1.815,9.33-28.133,8.726
	c0,0-31.159,2.723-40.235,6.353c0,0-11.193,0.605-16.638-19.36C85.422,604.36,93.288,589.537,87.54,577.738z"/>
<path fill="#FFFFFF" d="M114.766,630.375c0,0,15.429,14.823,18.756,27.227c0,0-58.083,7.866-86.821,1.209c0,0-16.94,0-3.328,13.312
	c0,0,25.412,14.823,35.696,4.235c0,0,70.183-10.588,100.737-5.144c0,0,4.538,6.051,11.192,3.933c0,0,10.588-6.353,10.286-13.311
	c0,0-9.075-7.866-16.638-10.285c0,0-11.496-2.539-19.059,3.722c0,0-4.84,3.997-19.058,1.421c0,0-1.814-11.797,0.605-14.218
	c0,0,6.655-6.954-19.361-18.754C127.774,623.722,114.766,620.695,114.766,630.375z"/>
</svg>
