<?xml version="1.0" encoding="utf-8"?>
<!-- Generator: Adobe Illustrator 15.1.0, SVG Export Plug-In . SVG Version: 6.00 Build 0)  -->
<!DOCTYPE svg PUBLIC "-//W3C//DTD SVG 1.1//EN" "http://www.w3.org/Graphics/SVG/1.1/DTD/svg11.dtd">
<svg version="1.1" id="Layer_1" xmlns="http://www.w3.org/2000/svg" xmlns:xlink="http://www.w3.org/1999/xlink" x="0px" y="0px"
	 width="1024px" height="577.399px" viewBox="0 0 1024 577.399" enable-background="new 0 0 1024 577.399" xml:space="preserve">
<image overflow="visible" width="500" height="415" xlink:href="portada.png"  transform="matrix(0.9999 0 0 0.9999 161.5 102.1997)">
</image>
<path fill="none" stroke="#FFFFFF" stroke-miterlimit="10" d="M178.316,96.17c0,0-0.429,25.313-7.723,42.475
	c0,0-10.297,30.462,3.861,33.036c0,0,3.004,2.574,8.581-1.716c0,0,6.007,0.858,10.297,4.72"/>
<path fill="none" stroke="#FFFFFF" stroke-miterlimit="10" d="M186.197,170.75c0,0-4.019,9.511,3.274,8.653
	c0,0,11.155-2.574,30.891-35.181c0,0,9.439-16.733,3.003-18.449c0,0-5.995-1.716-18.014,12.013"/>
<line fill="none" stroke="#FFFFFF" stroke-miterlimit="10" x1="189.471" y1="179.403" x2="225.611" y2="196.994"/>
<path fill="none" stroke="#FFFFFF" stroke-miterlimit="10" d="M231.517,179.458c0,0-19.735,42.848-16.303,118.789
	c0,0,2.347,3.862,10.398,14.159c0,0,8.479,7.293,8.479,13.729"/>
<path fill="none" stroke="#FFFFFF" stroke-miterlimit="10" d="M367.522,450.983c0,0,9.01,31.319,48.91,31.319
	c0,0,18.878-21.451,42.904-39.471l31.32-22.739l6.864,7.294c0,0,14.159-3.862,17.162-12.014c0,0-39.472-41.187-37.755-59.636"/>
<path fill="none" stroke="#FFFFFF" stroke-miterlimit="10" d="M455.904,357.881c0,0,6.784,29.706,36.213,63.764"/>
<path fill="none" stroke="#FFFFFF" stroke-miterlimit="10" d="M367.522,450.983c0,0,66.073-54.917,85.809-95.246"/>
<path fill="none" stroke="#FFFFFF" stroke-miterlimit="10" d="M501.649,425.943c0,0,5.74,18.605,32.34,20.75
	c0,0,54.916,1.287,63.068,4.29c0,0,11.156,5.148,14.588,0c0,0,2.145-6.448,6.006-11.376c0,0,2.145-10.832,11.584-17.962
	c0,0,6.008-13.994-3.432-13.565c0,0-61.353-0.858-64.785-4.72c0,0,1.293-39.899,5.366-59.636c0,0,5.79-12.871,2.786-23.168"/>
<path fill="none" stroke="#FFFFFF" stroke-miterlimit="10" d="M214.861,286.633l-11.222,20.564c0,0,13.895,2.985,30.452,18.938
	c0,0-1.438,4.2,2.602,7.138c0,0-0.367,3.306,4.04,5.142c0,0,0.367,5.876,6.61,5.876c0,0,30.85,41.866,33.42,49.946
	c0,0,6.243,9.801,18.73,9.124l17.996-2.146"/>
<path fill="none" stroke="#FFFFFF" stroke-miterlimit="10" d="M223.365,125.773c0,0,70.251,27.176,72.088,39.663"/>
<path fill="none" stroke="#FFFFFF" stroke-miterlimit="10" d="M371.372,459.152c0,0-0.373,9.782-6.085,12.067
	c0,0-17.328,4.762-18.28,8.379l-2.475-1.904c0,0-4-4.684-6.665,4.608c0,0-1.713,8.149,4.951,8.721h1.143
	c0,0,1.904,1.904,5.522,1.143c0,0,1.698,1.904,5.038,1.333c0,0,1.056,4.57,4.673,4.38c0,0,1.714,3.059,7.045,0.006
	c0,0,11.234-3.947,20.946,1.355c0,0,15.043,5.303,15.043-9.74c0,0,2.119-7.615,8.199-7.448"/>
<path fill="none" stroke="#FFFFFF" stroke-miterlimit="10" d="M393.849,483.787c0,0,2.285,2.934,3.618-1.484"/>
<path fill="none" stroke="#FFFFFF" stroke-miterlimit="10" d="M343.96,491.023c0,0-2.476-9.521,2.475-9.901
	c0,0,1.904,0.231,2.095,2.4c0,0-0.19,2.361,1.143,2.551"/>
<path fill="none" stroke="#FFFFFF" stroke-miterlimit="10" d="M349.482,492.166c0,0-2.856-7.806,3.618-6.093
	c0,0,0,1.903,1.142,1.903"/>
<path fill="none" stroke="#FFFFFF" stroke-miterlimit="10" d="M354.52,493.499c0,0-1.04-6.719,2.579-4.502
	c0,0,1.904,1.836,2.856,2.026"/>
<path fill="none" stroke="#FFFFFF" stroke-miterlimit="10" d="M359.193,497.878c0,0-0.762-8.188,3.999-5.713
	c0,0,0.952,1.143,1.904,1.333"/>
<path fill="none" stroke="#FFFFFF" stroke-miterlimit="10" d="M429.657,311.457c0,0,8.759,36.752,19.803,42.845h3.87
	c0,0,7.364-3.048,11.363-8.76c0,0,11.997-9.33,18.471-11.615c0,0,12.976-5.279,18.484-24.252c0,0-19.058-38.397-38.67-55.535"/>
<path fill="none" stroke="#FFFFFF" stroke-miterlimit="10" d="M468.854,259.891c0,0-0.163-4.8-1.496-7.466"/>
<line fill="none" stroke="#FFFFFF" stroke-miterlimit="10" x1="468.106" y1="259.094" x2="464.883" y2="254.139"/>
<path fill="none" stroke="#FFFFFF" stroke-miterlimit="10" d="M453.331,354.301v2.284c0,0-3.11,2.856,14.218,0
	c0,0,10.092-1.316,14.091-0.849c0,0,23.993-16.479,28.563-36.664"/>
<path fill="none" stroke="#FFFFFF" stroke-miterlimit="10" d="M504.477,332.272c0,0,15.246,6.794,27.052,18.6
	c0,0,27.679-12.836,37.642-30.315c0,0,3.489-5.617,3.299-10.882c0,0-13.9-0.313-31.229-18.403c0,0,0.761-7.618-12.759-16.758
	c0,0-1.332-0.952-3.427,0c0,0-15.046-11.762-25.328-18.354c0,0-11.616-9.068-16.757-17.065c0,0-3.669-3.237-14.117-3.427
	c0,0-8.162-5.904-12.732-6.284c0,0-2.666-6.665-10.092-6.474c0,0,0.762-35.989-44.939-31.039c0,0-28.563,2.856-42.654,24.945
	c0,0-13.331,14.136,3.807,39.345c0,0,8.188,13.973,19.613,12.641c0,0,12.758-5.417,20.375,2.337l30.467,27.559
	c0,0,2.243,8.772-2.876,13.432"/>
<path fill="none" stroke="#FFFFFF" stroke-miterlimit="10" d="M297.685,193.58c0,0-1.142,54.65-1.713,55.983
	c0,0-13.9,3.349-13.329,21.573c0,0-0.762,1.659-2.285,2.039c0,0-3.048,0.191-4.762,6.856c0,0,0,2.666-6.855,3.428
	c0,0-5.903,3.618-9.711,7.807c0,0-5.712,3.047-7.617,2.285c0,0-3.494-0.852-9.902,18.662c0,0-4.938,10.133-7.42,13.921"/>
<path fill="none" stroke="#FFFFFF" stroke-miterlimit="10" d="M279.556,391.54c0,0-14.617-36.671-13.668-48.858
	c0,0,4.68-14.474,13.668-30.278c0,0,1.372-3.237,2.324-12.949c0,0,2.476-11.997,6.284-18.09c0,0,2.285-8.949,2.285-11.425
	c0,0,2.095-5.712,29.896,8.188"/>
<path fill="none" stroke="#FFFFFF" stroke-miterlimit="10" d="M333.673,292.218c0,0-0.571,5.713-5.332,12.377
	c0,0-13.139,32.753-13.139,37.894c0,0-1.713,9.901,1.333,10.854"/>
<path fill="none" stroke="#FFFFFF" stroke-miterlimit="10" d="M333.673,292.218c0,0,11.426,8.757,15.044,9.138
	c0,0,8.378-0.558,16.757-12.656c0,0,7.821-16.088,16.383-19.901"/>
<path fill="none" stroke="#FFFFFF" stroke-miterlimit="10" d="M291.022,269.368c0,0,14.852-25.326,11.995-42.656
	c0,0,8.188-5.139,22.85,0c0,0-0.843,28.766-18.321,45.61"/>
<path fill="none" stroke="#FFFFFF" stroke-miterlimit="10" d="M290.448,269.938c0,0,6.854,16.571,43.225,22.28"/>
<path fill="none" stroke="#FFFFFF" stroke-miterlimit="10" d="M287.524,282.465c0,0,19.68,19.278,40.817,22.13"/>
<path fill="none" stroke="#FFFFFF" stroke-miterlimit="10" d="M316.747,401.303c0,0,1.874,1.356-2.024,6.308
	c0,0-0.292,3.428,2.475,2.666l0.292,2.856l6.709,7.807c0,0,1.479,6.475,5.097,8.569l-4.189,1.143c0,0,4.757,2.855,8.567,2.475
	c0,0,5.524,5.522,9.713,6.284c0,0,7.426,3.429,3.427,8.188c0,0,27.616-9.729,34.944-9.054c0,0,15.136-8.579,19.135-16.9
	c0,0,4.38-3.18,7.617-6.036c0,0,13.917-6.475,2.96-21.327c0,0,5.801-13.713-7.528-27.613c0,0-4.951-7.216-5.712-12.367
	c0,0-8.949,8.749-12.758-5.342l-5.332,1.912c0,0,1.714-15.051,4.761-15.241c0,0,11.806,12.14,21.517,2.833"/>
<path fill="none" stroke="#FFFFFF" stroke-miterlimit="10" d="M247.343,344.29c0,0,5.113-9.032,26.775-21.51"/>
<path fill="none" stroke="#FFFFFF" stroke-miterlimit="10" d="M233.862,328.369c0,0,15.95-15.217,33.737-28.159
	c0,0,2.095-8.188,12.758-10.473l6.66-6.291"/>
<path fill="none" stroke="#FFFFFF" stroke-miterlimit="10" d="M239.607,174.684c0,0-8.148,1.161-8.549,5.833
	c0,0,15.975,13.241,55.963,9.242c0,0-6.093,16.949-7.045,28.945c0,0-1.142,52.499,2.667,52.432"/>
<path fill="none" stroke="#FFFFFF" stroke-miterlimit="10" d="M236.752,183.833c0,0,4.758-14.156,4.949-18.396
	c0,0,0.953-10.714,12.377-9c0,0,3.428-0.762,15.995,7.807c0,0,8.867,3.91,25.379,1.193c0,0,8.134-1.574,10.8,2.044
	c0,0,11.044-4.018,16.376,2.561c0,0,1.143,4.674-3.618,7.34c0,0-0.762,1.523-7.617-0.952l-2.856-0.761"/>
<path fill="none" stroke="#FFFFFF" stroke-miterlimit="10" d="M446.03,222.907c0,0,2.09,16.206-18.094,29.518
	c0,0-19.521,13.23-14.14,29.171"/>
<path fill="none" stroke="#FFFFFF" stroke-miterlimit="10" d="M456.122,229.381c0,0-2.289,15.643-16.761,29.713
	c0,0-22.936,16.104-11.658,35.082"/>
<path fill="none" stroke="#FFFFFF" stroke-miterlimit="10" d="M429.822,312.126c0,0,9.729-6.589,12.015-5.065
	c0,0,12.582,27.068,22.857,38.48"/>
<path fill="none" stroke="#FFFFFF" stroke-miterlimit="10" d="M510.202,319.073c0,0,18.468,13.314,22.657,15.6
	c0,0,22.337-18.211,27.449-28.813"/>
<path fill="none" stroke="#FFFFFF" stroke-miterlimit="10" d="M464.694,345.542c0,0,11.229,2.08,16.18,1.318
	c0,0,7.962-10.62,7.409-16.164"/>
<path fill="none" stroke="#FFFFFF" stroke-miterlimit="10" d="M492.117,327.119c0,0,41.893-15.269,49.125-35.848"/>
<path fill="none" stroke="#FFFFFF" stroke-miterlimit="10" d="M525.056,274.513c0,0,5.122,1.892-13.056,20.363
	c0,0-8.978,8.598-13.197,9.345"/>
<path fill="none" stroke="#FFFFFF" stroke-miterlimit="10" d="M529.008,306.833c0,0,5.183,8.608,3.851,27.84"/>
<path fill="none" stroke="#FFFFFF" stroke-miterlimit="10" d="M541.241,291.271c0,0,6.761,15.701,4.616,31.836"/>
<path fill="none" stroke="#FFFFFF" stroke-miterlimit="10" d="M510.202,319.073c0,0,26.565,0.848,35.656,4.034"/>
<path fill="none" stroke="#FFFFFF" stroke-miterlimit="10" d="M531.043,305.083c0,0,21.49,1.132,27.839,3.269"/>
<path fill="none" stroke="#FFFFFF" stroke-miterlimit="10" d="M430.509,311.673c0,0-3.713-0.929-4.284-4.484
	c0,0-0.38-2.369-3.046-2.105c0,0,1.904,6.929-6.474,8.643c0,0-8.569,3.237-10.473,3.237c0,0-9.14,5.458-2.856,10.155
	c0,0-1.333,4.698,1.523,7.554l1.518,3.791c0,0-0.946,3.254,1.91,4.396c0,0-0.571,5.363,6.284,2.682c0,0,4.951,2.84,19.803-5.538
	c0,0,4.009-1.643,4.847,0.136"/>
<path fill="none" stroke="#FFFFFF" stroke-miterlimit="10" d="M405.282,335.63c0,0-5.715,6.657-8.953,0.945
	c0,0-5.897-7.426,8.953-25.135c0,0,16.926-19.502,23.885-15.939"/>
<line fill="none" stroke="#FFFFFF" stroke-miterlimit="10" x1="418.677" y1="298.891" x2="423.314" y2="305.859"/>
<line fill="none" stroke="#FFFFFF" stroke-miterlimit="10" x1="400.602" y1="317.655" x2="401.898" y2="321.09"/>
<path fill="none" stroke="#FFFFFF" stroke-miterlimit="10" d="M439.26,340.139c0,0-0.963,2.679,1.094,6.889
	c0,0,3.581,5.354-4.607,12.589c0,0-4.233,6.475-11.162,6.284c0,0-2.954,1.722-4.37,0.004c0,0-6.443-1.337-7.357-5.146
	c0,0-1.486,0.571-3.199-1.714l-3.427-3.309c0,0-2.475-3.738,1.714-5.642c0,0,2.487,0.952,2.481,2.095s-0.006,1.143-0.006,1.143
	l1.75,0.969c0,0,5.105-1.889,2.439-8.76"/>
<path fill="none" stroke="#FFFFFF" stroke-miterlimit="10" d="M397.282,308.352c0,0,7.556-3.576,3.968-11.764
	c0,0-2.445-0.726-5.111,2.303c0,0-4.189,3.043-11.044,2.465h-8.759c0,0-3.237,1.138-2.285,3.707c0,0,0.169,4.444,12.567,3.289
	c0,0-6.855,2.898-8.95,3.089c0,0-6.665,3.098,0.19,6.214c0,0,2.094,0.501,7.998,0c0,0-3.427-0.435-5.522,3.436
	c0,0-0.954,2.448,1.522,2.017c0,0-2.665,1.409-1.522,4.012c0,0,1.143,1.46,2.285,1.46c0,0-2.094,7.236,1.904,6.094
	c0,0,2.284-1.479,3.522-3.977c0,0,7.671-3.538,8.659-5.771"/>
<path fill="none" stroke="#FFFFFF" stroke-miterlimit="10" d="M397.282,308.352c0,0,5.143,6.333,3.32,9.303"/>
<path fill="none" stroke="#FFFFFF" stroke-miterlimit="10" d="M249.514,176.807c0,0,8.378,4.189,14.472,3.428
	c0,0,21.517,8.378,23.802,9.521c0,0,4.752,1.959,9.897,1.646c0,0,7.05,4.066,7.621-1.075c0,0,3.618,0.762,4.57-3.618
	c0,0,4.951,0.38,3.618-3.999c0,0,5.477-1.108,2.929-4.934"/>
<path fill="none" stroke="#FFFFFF" stroke-miterlimit="10" d="M219.981,144.847c0,0-6.588-0.166-13.093-8.763
	c0,0-4.791-8.597-7.076-16.975c0,0-2.666-11.615-7.617-17.709c0,0-2.095-5.522-2.666-8.569c0,0,5.786-13.52-4.438-12.377
	c0,0-5.363-3.427-4.938,10.283v4.38c0,0-4.126,1.98-2.136,7.083"/>
<path fill="none" stroke="#FFFFFF" stroke-miterlimit="10" d="M482.376,277.101c0,0,11.612-6.885,43.345,2.249"/>
<path fill="none" stroke="#FFFFFF" stroke-miterlimit="10" d="M510.202,263.368c0,0-2.013,19.294,3.54,29.715"/>
<line fill="none" stroke="#FFFFFF" stroke-miterlimit="10" x1="492.117" y1="292.389" x2="515.45" y2="291.271"/>
<path fill="none" stroke="#FFFFFF" stroke-miterlimit="10" d="M471.946,263.368c0,0,11.229-5.073,33.348-3.477"/>
<path fill="none" stroke="#FFFFFF" stroke-miterlimit="10" d="M484.252,240.933c0,0,2.765,25.252,1.143,40.664"/>
<path fill="none" stroke="#FFFFFF" stroke-miterlimit="10" d="M498.206,254.926c0,0,2.361,30.073-0.961,46.43"/>
<path fill="none" stroke="#FFFFFF" stroke-miterlimit="10" d="M498.803,256.158c0,0-35.742-14.492-55.528-1.232"/>
<path fill="none" stroke="#FFFFFF" stroke-miterlimit="10" d="M426.016,275.81c0,0-1.714,7.46,7.623,17.273
	c0,0,11.768,10.223,10.552,18.847"/>
<path fill="none" stroke="#FFFFFF" stroke-miterlimit="10" d="M426.494,293.083c0,0,17.517-22.824,62.126-6.44"/>
<path fill="none" stroke="#FFFFFF" stroke-miterlimit="10" d="M443.275,306.717c0,0,24.003-1.836,50.823,18.077"/>
<path fill="none" stroke="#FFFFFF" stroke-miterlimit="10" d="M476.502,337.333c0,0,0.052,5.792,4.372,9.527"/>
<path fill="none" stroke="#FFFFFF" stroke-miterlimit="10" d="M329.295,429.509c0,0,15.641-1.981,26.601-6.447l-8.322-1.417
	c0,0,16.035-14.213,33.491-15.024c0,0,13.193-3.247,15.629-8.524c0,0-5.886-6.901-9.54-16.238c0,0-8.816-2.841-19.632-17.253
	c0,0-7.694-1.827-14.025-0.813c0,0,4.543-6.774,14.025-8.056c0,0,4.813-4.97,5.422-11.447c0,0,5.57,7.165,7.195,6.582"/>
<path fill="none" stroke="#FFFFFF" stroke-miterlimit="10" d="M316.747,401.303c0,0,21.895-17.011,20.879-52.328
	c0,0-1.612-48.966-3.954-56.757"/>
<path fill="none" stroke="#FFFFFF" stroke-miterlimit="10" d="M337.485,345.013c0,0,21.042,6.521,25.509,11.838"/>
<path fill="none" stroke="#FFFFFF" stroke-miterlimit="10" d="M336.817,329.295c0,0,20.478,6.246,35.608,17.732"/>
<path fill="none" stroke="#FFFFFF" stroke-miterlimit="10" d="M316.747,401.303c0,0,9.172-23.51,10.457-42.589"/>
<path fill="none" stroke="#FFFFFF" stroke-miterlimit="10" d="M325.457,311.929c0,0,2.695,33.998,1.747,40.696"/>
<path fill="none" stroke="#FFFFFF" stroke-miterlimit="10" d="M319.563,398.703c0,0,0.934,13.287,4.634,22.237"/>
<path fill="none" stroke="#FFFFFF" stroke-miterlimit="10" d="M266.889,300.73c0,0-0.712,4.96,3.753,7.622c0,0-1.218,2.378,0,4.651
	c0,0-0.936,6.797,4.302,8.087"/>
<path fill="none" stroke="#FFFFFF" stroke-miterlimit="10" d="M307.546,272.322c0,0,25.405-22.327,51.995-17.396v19.586
	c0,0-17.456,0.925-24.357,7.952"/>
<path fill="none" stroke="#FFFFFF" stroke-miterlimit="10" d="M374.767,243.618c0,0,0.652,5.48-0.892,7.713
	c0,0-1.979,5.798,7.981,4.827"/>
<path fill="none" stroke="#FFFFFF" stroke-miterlimit="10" d="M471.946,263.368c0,0-28.878-5.866-34.51-2.76"/>
<path fill="none" stroke="#FFFFFF" stroke-miterlimit="10" d="M479.8,273.445c0,0-28.239-7.47-44.714-2.309"/>
<path fill="none" stroke="#FFFFFF" stroke-miterlimit="10" d="M453.769,237.466c0,0,27.977,0.718,31.31,4.544"/>
<path fill="none" stroke="#FFFFFF" stroke-miterlimit="10" d="M484.252,333.392c0,0,5.709-40.329-12.307-70.024"/>
<path fill="none" stroke="#FFFFFF" stroke-miterlimit="10" d="M493.386,325.677c0,0,4.757-17.729-4.766-39.035"/>
<path fill="none" stroke="#FFFFFF" stroke-miterlimit="10" d="M476.502,337.333c0,0-3.609-60.63-22.733-79.507
	c0,0,1.262-17.456,0-21.516"/>
<path fill="none" stroke="#FFFFFF" stroke-miterlimit="10" d="M464.694,345.542c0,0,1.804-49.76-23.561-79.395l1.054-9.989"/>
<path fill="none" stroke="#FFFFFF" stroke-miterlimit="10" d="M440.354,300.612c0,0,33.771-7.266,54.22,9.987"/>
<path fill="none" stroke="#FFFFFF" stroke-miterlimit="10" d="M443.536,310.599c0,0,19.927,11.611,35.152,24.073"/>
<path fill="none" stroke="#FFFFFF" stroke-miterlimit="10" d="M451.713,326.187c0,0,17.099,11.531,17.711,15.857"/>
<path fill="none" stroke="#FFFFFF" stroke-miterlimit="10" d="M458.489,337.333c0,0-1.533-46.848-31.464-63.888"/>
<path fill="none" stroke="#FFFFFF" stroke-miterlimit="10" d="M462.979,254.139c0,0-39.092,11.034-31.582,42.373"/>
<path fill="none" stroke="#FFFFFF" stroke-miterlimit="10" d="M323.148,418.062c0,0,20.689-33.578,44.374-40.683
	c0,0-41.49-3.152-47.062,28.87"/>
<path fill="none" stroke="#FFFFFF" stroke-miterlimit="10" d="M343.991,401.303c0,0-6.37,3.478-2.311,6.319l5.277,3.045"/>
<path fill="none" stroke="#FFFFFF" stroke-miterlimit="10" d="M355.896,423.062c0,0,45.674,1.435,40.798-24.966"/>
<path fill="none" stroke="#FFFFFF" stroke-miterlimit="10" d="M367.522,364.605c0,0,14.349-0.42,21.859-3.464
	c0,0-10.024-8.779-21.859-5.404"/>
<line fill="none" stroke="#FFFFFF" stroke-miterlimit="10" x1="295.972" y1="249.563" x2="300.301" y2="248.375"/>
<path fill="none" stroke="#FFFFFF" stroke-miterlimit="10" d="M294.624,268.799c0,0,13.876-27.415,11.791-43.451"/>
<path fill="none" stroke="#FFFFFF" stroke-miterlimit="10" d="M402.196,301.356c0,0,2.184-2.609,3.31-2.977"/>
<line fill="none" stroke="#FFFFFF" stroke-miterlimit="10" x1="407.849" y1="296.512" x2="410.426" y2="294.176"/>
<path fill="none" stroke="#FFFFFF" stroke-miterlimit="10" d="M414.75,291.271c0,0,4.323-4.9,4.912-4.368"/>
<path fill="none" stroke="#FFFFFF" stroke-miterlimit="10" d="M420.215,365.905c0,0,5.283-5.393,6.811-8.023"/>
<path fill="none" stroke="#FFFFFF" stroke-miterlimit="10" d="M424.584,365.901c0,0,3.867-5.389,5.237-8.02"/>
<path fill="none" stroke="#FFFFFF" stroke-miterlimit="10" d="M382.62,328.579c0,0,2.497-1.358,4.121-3.784"/>
<path fill="none" stroke="#FFFFFF" stroke-miterlimit="10" d="M382.62,322.635c0,0,3.512-1.253,4.121-2.079"/>
<path fill="none" stroke="#FFFFFF" stroke-miterlimit="10" d="M507.077,406.984c0,0,34.331-24.33,38.391-32.043"/>
<path fill="none" stroke="#FFFFFF" stroke-miterlimit="10" d="M629.62,420.655c0,0,2.723,5.234,15.916,8.076
	c0,0,6.09,0.407,5.48,3.248h-3.451c0,0,6.292,0.405,6.698,2.232c0,0,0.608,1.42,0,2.232c0,0,4.263,2.64,1.624,4.466
	c0,0,3.347,2.841,0.861,4.871c0,0,2.589,8.728-1.064,10.555c0,0-0.812-0.243-7.51-3.064c0,0-24.142-13.73-36.529-2.288"/>
<circle fill="none" stroke="#FFFFFF" stroke-miterlimit="10" cx="330.307" cy="419.075" r="1.012"/>
<circle fill="none" stroke="#FFFFFF" stroke-miterlimit="10" cx="361.568" cy="391.189" r="1.426"/>
<path fill="none" stroke="#FFFFFF" stroke-miterlimit="10" d="M268.392,174.684c0,0,2.233-3.533,2.639-5.563"/>
<line fill="none" stroke="#FFFFFF" stroke-miterlimit="10" x1="181.922" y1="148.214" x2="185.092" y2="150.65"/>
<path fill="none" stroke="#FFFFFF" stroke-miterlimit="10" d="M187.199,154.912c0,0,3.326,3.653,2.272,5.886"/>
<path fill="none" stroke="#FFFFFF" stroke-miterlimit="10" d="M204.655,156.25c0,0,2.233-2.962,4.06-1.338"/>
<path fill="none" stroke="#FFFFFF" stroke-miterlimit="10" d="M180.155,139.486c0,0-1.887-3.248-0.872-6.698"/>
<path fill="none" stroke="#FFFFFF" stroke-miterlimit="10" d="M179.569,125.773c0,0,2.478-5.976,3.938-6.585"/>
<path fill="none" stroke="#FFFFFF" stroke-miterlimit="10" d="M186.387,115.738c0,0,3.739-2.639,3.291-8.525"/>
<path fill="none" stroke="#FFFFFF" stroke-miterlimit="10" d="M265.888,190.335c0,0,9.198-4.8,17.418-2.137"/>
<line fill="none" stroke="#FFFFFF" stroke-miterlimit="10" x1="306.507" y1="190.335" x2="300.301" y2="188.865"/>
<path fill="none" stroke="#FFFFFF" stroke-miterlimit="10" d="M309.876,186.708c0,0-5.76-1.116-7.181-1.841"/>
<line fill="none" stroke="#FFFFFF" stroke-miterlimit="10" x1="304.319" y1="181.3" x2="313.494" y2="182.709"/>
<line fill="none" stroke="#FFFFFF" stroke-miterlimit="10" x1="320.916" y1="404.061" x2="327.204" y2="412.069"/>
<line fill="none" stroke="#FFFFFF" stroke-miterlimit="10" x1="325.457" y1="392.615" x2="333.673" y2="403.657"/>
<line fill="none" stroke="#FFFFFF" stroke-miterlimit="10" x1="335.896" y1="384.082" x2="342.449" y2="393.991"/>
<line fill="none" stroke="#FFFFFF" stroke-miterlimit="10" x1="349.367" y1="378.963" x2="353.497" y2="384.565"/>
<path fill="none" stroke="#FFFFFF" stroke-miterlimit="10" d="M348.41,420.94c0,0,47.501-3.578,48.284-21.236"/>
<path fill="none" stroke="#FFFFFF" stroke-miterlimit="10" d="M350.239,420.773c0,0,40.597-6.253,46.455-21.069"/>
<path fill="none" stroke="#FFFFFF" stroke-miterlimit="10" d="M349.367,421.645c0,0,44.228-1.639,47.691-18.285"/>
<path fill="none" stroke="#FFFFFF" stroke-miterlimit="10" d="M350.239,420.773c0,0,35.383,5.701,45.877-14.788"/>
<path fill="none" stroke="#FFFFFF" stroke-miterlimit="10" d="M348.41,421.788c0,0,15.561-5.394,30.042-11.12
	c0,0,14.214-5.484,17.127-10.964"/>
<path fill="none" stroke="#FFFFFF" stroke-miterlimit="10" d="M349.367,421.645c0,0,19.693-8.787,26.188-11.406
	c0,0,15.689-5.258,20.023-10.535"/>
<path fill="none" stroke="#FFFFFF" stroke-miterlimit="10" d="M347.574,421.645c0,0,18.938-10.395,35.74-15.66"/>
<path fill="none" stroke="#FFFFFF" stroke-miterlimit="10" d="M346.813,447.599c0,0,38.446-18.165,41.233-31.158"/>
<path fill="none" stroke="#FFFFFF" stroke-miterlimit="10" d="M389.381,361.141c0,0,17.865,14.004,20.49,13.8
	c0,0-25.529-2.809-22.717,6.917"/>
<path fill="none" stroke="#FFFFFF" stroke-miterlimit="10" d="M396.694,398.096c0,0,10.905,0.913,14.775-3.814"/>
<path fill="none" stroke="#FFFFFF" stroke-miterlimit="10" d="M297.685,269.318c0,0,14.599-26.813,11.221-44.527"/>
<path fill="none" stroke="#FFFFFF" stroke-miterlimit="10" d="M300.301,269.938c0,0,15.45-30.393,11.759-45.511"/>
<path fill="none" stroke="#FFFFFF" stroke-miterlimit="10" d="M302.695,270.565c0,0,14.2-27.366,12.982-46.138"/>
<path fill="none" stroke="#FFFFFF" stroke-miterlimit="10" d="M306.286,271.833c0,0,16.837-23.767,16.463-46.088"/>
<path fill="none" stroke="#FFFFFF" stroke-miterlimit="10" d="M304.38,271.136c0,0,14.342-24.073,14.748-46.197"/>
<path fill="none" stroke="#FFFFFF" stroke-miterlimit="10" d="M281.066,289.067c0,0-11.614,16.434-10.424,19.285"/>
<path fill="none" stroke="#FFFFFF" stroke-miterlimit="10" d="M234.24,330.158c0,0,25.853-22.391,32.608-25.938"/>
<path fill="none" stroke="#FFFFFF" stroke-miterlimit="10" d="M235.565,332.278c0,0,21.21-19.991,32.494-26.419"/>
<path fill="none" stroke="#FFFFFF" stroke-miterlimit="10" d="M236.692,333.272c0,0,23.373-19.444,32.098-26.439"/>
<path fill="none" stroke="#FFFFFF" stroke-miterlimit="10" d="M236.692,335.63c0,0,26.59-20.946,33.098-27.862"/>
<line fill="none" stroke="#FFFFFF" stroke-miterlimit="10" x1="238.064" y1="336.645" x2="270.103" y2="310.911"/>
<line fill="none" stroke="#FFFFFF" stroke-miterlimit="10" x1="240.193" y1="338.162" x2="270.643" y2="313.003"/>
<path fill="none" stroke="#FFFFFF" stroke-miterlimit="10" d="M241.129,340.139c0,0,27.206-22.799,29.767-23.33"/>
<path fill="none" stroke="#FFFFFF" stroke-miterlimit="10" d="M242.149,342.01c0,0,21.101-18.324,29.756-22.941"/>
<path fill="none" stroke="#FFFFFF" stroke-miterlimit="10" d="M243.356,343.163c0,0,23.421-20.155,30.211-22.606"/>
<path fill="none" stroke="#FFFFFF" stroke-miterlimit="10" d="M286.264,285.078c0,0-12.487,16.033-15.622,23.274"/>
<path fill="none" stroke="#FFFFFF" stroke-miterlimit="10" d="M270.643,313.003c0,0,3.846-12.843,13.377-21.732"/>
<path fill="none" stroke="#FFFFFF" stroke-miterlimit="10" d="M282.563,296.512c0,0-9.762,11.724-11.667,19.142"/>
<path fill="none" stroke="#FFFFFF" stroke-miterlimit="10" d="M281.587,302.137c0,0-6.844,4.513-10.431,15.518"/>
<path fill="none" stroke="#FFFFFF" stroke-miterlimit="10" d="M274.945,321.09c0,0-6.16-5.444,6.122-16.495"/>
<path fill="none" stroke="#FFFFFF" stroke-miterlimit="10" d="M275.964,319.069c0,0-4.253-6.864,4.941-12.236"/>
<path fill="none" stroke="#FFFFFF" stroke-miterlimit="10" d="M278.453,314.375c0,0-6.663-1.155,1.883-4.7"/>
<path fill="none" stroke="#FFFFFF" stroke-miterlimit="10" d="M268.059,298.379c0,0-1.62,5.947,2.837,7.01"/>
<path fill="none" stroke="#FFFFFF" stroke-miterlimit="10" d="M268.791,297.556c0,0-1.357,8.522,3.115,4.819"/>
<line fill="none" stroke="#FFFFFF" stroke-miterlimit="10" x1="268.791" y1="297.556" x2="271.905" y2="302.375"/>
<path fill="none" stroke="#FFFFFF" stroke-miterlimit="10" d="M268.791,297.556c0,0,5.229-0.573,3.115,4.819"/>
<path fill="none" stroke="#FFFFFF" stroke-miterlimit="10" d="M269.334,296.512c0,0,4.441-1.05,4.784,3.271"/>
<path fill="none" stroke="#FFFFFF" stroke-miterlimit="10" d="M271.157,294.512c0,0,5.029,0.523,4.655,3.044"/>
<path fill="none" stroke="#FFFFFF" stroke-miterlimit="10" d="M272.409,293.87c0,0,3.199-1.376,4.625,1.197"/>
<path fill="none" stroke="#FFFFFF" stroke-miterlimit="10" d="M274.982,291.683c0,0,2.928,0.433,3.471,1.819"/>
<line fill="none" stroke="#FFFFFF" stroke-miterlimit="10" x1="277.944" y1="290.402" x2="278.453" y2="292.592"/>
<path fill="none" stroke="#FFFFFF" stroke-miterlimit="10" d="M353.497,363.792c0,0,15.72-13.689,34.549-3.68"/>
<path fill="none" stroke="#FFFFFF" stroke-miterlimit="10" d="M354.621,362.917c0,0,18.568-9.129,34.76-1.776"/>
<path fill="none" stroke="#FFFFFF" stroke-miterlimit="10" d="M355.896,362.917c0,0,18.248-4.085,32.15-1.776"/>
<path fill="none" stroke="#FFFFFF" stroke-miterlimit="10" d="M357.027,361.891c0,0,9.508,2.839,31.677-1.293"/>
<path fill="none" stroke="#FFFFFF" stroke-miterlimit="10" d="M333.673,433.126c0,0,47.604-10.016,53.265-16.053"/>
<path fill="none" stroke="#FFFFFF" stroke-miterlimit="10" d="M325.457,430.851c0,0,38.197-4.229,51.525-10.078"/>
<path fill="none" stroke="#FFFFFF" stroke-miterlimit="10" d="M333.673,433.126c0,0,43.145-2.339,53.265-16.053"/>
<path fill="none" stroke="#FFFFFF" stroke-miterlimit="10" d="M336.678,435.76c0,0,36.075-2.177,49.451-17.698"/>
<path fill="none" stroke="#FFFFFF" stroke-miterlimit="10" d="M342.449,439.166c0,0,36.189-5.161,43.68-21.104"/>
<path fill="none" stroke="#FFFFFF" stroke-miterlimit="10" d="M346.813,441.961c0,0,29.173-4.667,39.316-23.899"/>
<path fill="none" stroke="#FFFFFF" stroke-miterlimit="10" d="M412.858,360.759c0,0,3.499-1.104,4.514-2.904"/>
<path fill="none" stroke="#FFFFFF" stroke-miterlimit="10" d="M367.522,364.605"/>
</svg>
