<?xml version="1.0" encoding="utf-8"?>
<!-- Generator: Adobe Illustrator 15.1.0, SVG Export Plug-In . SVG Version: 6.00 Build 0)  -->
<!DOCTYPE svg PUBLIC "-//W3C//DTD SVG 1.1//EN" "http://www.w3.org/Graphics/SVG/1.1/DTD/svg11.dtd">
<svg version="1.1" id="Layer_1" xmlns="http://www.w3.org/2000/svg" xmlns:xlink="http://www.w3.org/1999/xlink" x="0px" y="0px"
	 width="1024px" height="649.731px" viewBox="0 -21.532 1024 649.731" enable-background="new 0 -21.532 1024 649.731"
	 xml:space="preserve">
<path stroke="#FFFFFF" stroke-width="1.2521" stroke-miterlimit="10" d="M916.184,642.35c0,4.149-3.363,7.513-7.512,7.513H44.697
	c-4.149,0-7.513-3.363-7.513-7.513V-14.019c0-4.149,3.364-7.513,7.513-7.513h863.975c4.148,0,7.512,3.364,7.512,7.513V642.35z"/>
<path fill="none" stroke="#FFFFFF" stroke-width="2" stroke-miterlimit="10" d="M214.757,47.298c0,0-0.537,31.695-9.669,53.184
	c0,0-12.894,38.143,4.834,41.366c0,0,3.762,3.223,10.745-2.149c0,0,11.748,1.157,17.12,5.992"/>
<path fill="none" stroke="#FFFFFF" stroke-width="2" stroke-miterlimit="10" d="M224.625,140.684c0,0-5.033,11.909,4.1,10.834
	c0,0,13.967-3.223,38.679-44.052c0,0,11.819-20.952,3.761-23.1c0,0-5.582-4.28-20.631,12.91"/>
<line fill="none" stroke="#FFFFFF" stroke-width="2" stroke-miterlimit="10" x1="228.725" y1="151.518" x2="273.978" y2="173.544"/>
<path fill="none" stroke="#FFFFFF" stroke-width="2" stroke-miterlimit="10" d="M281.372,151.586c0,0-24.711,53.652-20.414,148.739
	c0,0,2.939,4.837,13.02,17.729c0,0,10.617,9.132,10.617,17.19"/>
<path fill="none" stroke="#FFFFFF" stroke-width="2" stroke-miterlimit="10" d="M451.669,491.573c0,0,11.281,39.216,61.242,39.216
	c0,0,23.638-26.859,53.722-49.422l39.217-28.473l8.594,9.133c0,0,17.729-4.836,21.49-15.043c0,0-49.424-51.571-47.275-74.672"/>
<path fill="none" stroke="#FFFFFF" stroke-width="1.2521" stroke-miterlimit="10" d="M562.336,374.997
	c0,0,8.492,37.196,45.342,79.841"/>
<path fill="none" stroke="#FFFFFF" stroke-width="2" stroke-miterlimit="10" d="M451.669,491.573c0,0,82.733-70.562,107.444-121.059
	"/>
<path fill="none" stroke="#FFFFFF" stroke-width="2" stroke-miterlimit="10" d="M619.613,460.219c0,0,7.188,23.297,40.496,25.981
	c0,0,68.762,1.612,78.969,5.372c0,0,13.971,6.446,18.268,0c0,0,2.684-8.074,7.52-14.244c0,0,2.686-13.563,14.504-22.491
	c0,0,7.523-17.522-4.297-16.985c0,0-76.82-1.075-81.119-5.91c0,0,1.619-49.959,6.719-74.672c0,0,7.25-16.116,3.488-29.009"/>
<path fill="none" stroke="#FFFFFF" stroke-width="2.5043" stroke-miterlimit="10" d="M260.517,285.784l-14.051,25.749
	c0,0,17.397,3.738,38.129,23.713c0,0-1.801,5.259,3.258,8.938c0,0-0.459,4.139,5.059,6.438c0,0,0.459,7.357,8.277,7.357
	c0,0,38.628,52.423,41.847,62.54c0,0,7.817,12.271,23.452,11.424l22.533-2.687"/>
<path fill="none" stroke="#FFFFFF" stroke-width="2" stroke-miterlimit="10" d="M271.165,84.366c0,0,87.964,34.028,90.264,49.663"/>
<path fill="none" stroke="#FFFFFF" stroke-width="2" stroke-miterlimit="10" d="M456.489,501.801c0,0-0.467,12.249-7.62,15.11
	c0,0-21.697,5.962-22.889,10.491l-3.099-2.384c0,0-5.008-5.865-8.346,5.77c0,0-2.146,10.204,6.2,10.92h1.431
	c0,0,2.384,2.385,6.914,1.431c0,0,2.126,2.385,6.309,1.669c0,0,1.322,5.723,5.852,5.484c0,0,2.146,3.83,8.822,0.007
	c0,0,14.067-4.942,26.227,1.697c0,0,18.836,6.641,18.836-12.195c0,0,2.653-9.536,10.266-9.326"/>
<g>
	<path fill="#FFFFFF" d="M484.634,532.648c0.596,0.212,1.105,0.4,1.535,0.465c0.45,0.048,0.659-0.024,0.919-0.187
		c0.269-0.168,0.583-0.503,0.92-0.882c0.332-0.388,0.677-0.824,1.156-1.256c0.155,0.625,0.122,1.234-0.058,1.829
		c-0.177,0.59-0.506,1.208-1.177,1.643c-0.332,0.21-0.761,0.344-1.176,0.326c-0.415-0.015-0.79-0.156-1.078-0.356
		C485.096,533.837,484.746,533.282,484.634,532.648z"/>
</g>
<g>
	<path fill="#FFFFFF" d="M421.56,541.865c-0.397-1.187-0.679-2.373-0.873-3.6c-0.201-1.223-0.288-2.474-0.239-3.756
		c0.089-1.271,0.27-2.62,1.008-3.896c0.367-0.63,0.899-1.229,1.571-1.641c0.67-0.419,1.439-0.617,2.161-0.66l0.06-0.003
		c0.046-0.003,0.094,0,0.138,0.008c0.574,0.101,0.938,0.26,1.365,0.493c0.406,0.231,0.781,0.538,1.086,0.905
		c0.623,0.734,0.921,1.674,0.925,2.523l0,0.146v0.001c-0.043,0.233-0.075,0.544-0.098,0.817c-0.024,0.282-0.042,0.565-0.022,0.835
		c0.028,0.542,0.074,1.076,0.675,1.472c-0.329,0.098-0.764,0.021-1.081-0.228c-0.336-0.232-0.556-0.571-0.738-0.901
		c-0.164-0.341-0.281-0.69-0.363-1.043c-0.076-0.361-0.121-0.689-0.124-1.093l0,0.147c-0.119-0.577-0.299-1.067-0.628-1.423
		c-0.162-0.18-0.359-0.328-0.583-0.443c-0.201-0.112-0.522-0.207-0.658-0.222l0.197,0.005c-0.95,0.101-1.653,0.513-2.122,1.338
		c-0.468,0.813-0.721,1.895-0.812,2.999c-0.114,1.112-0.08,2.267-0.016,3.426c0.081,1.154,0.207,2.337,0.38,3.479l0.003,0.02
		c0.052,0.343-0.184,0.662-0.527,0.714C421.942,542.333,421.655,542.149,421.56,541.865z"/>
</g>
<g>
	<path fill="#FFFFFF" d="M428.492,543.353c-0.347-1.012-0.588-2.008-0.729-3.06c-0.127-1.044-0.174-2.141,0.169-3.257
		c0.174-0.552,0.477-1.111,0.942-1.541c0.461-0.436,1.055-0.697,1.629-0.817c1.163-0.228,2.25-0.031,3.268,0.227
		c0.269,0.068,0.451,0.304,0.464,0.567l0.001,0.038l0,0c-0.048,0.196-0.076,0.451-0.087,0.681c-0.01,0.234-0.001,0.471,0.039,0.697
		c0.07,0.443,0.31,0.902,0.852,1.005c-0.253,0.053-0.553,0.018-0.808-0.137c-0.258-0.149-0.459-0.38-0.62-0.622
		c-0.161-0.245-0.284-0.507-0.387-0.775c-0.101-0.274-0.183-0.53-0.241-0.847v-0.002l0.466,0.605
		c-0.915-0.24-1.869-0.38-2.689-0.212c-0.823,0.161-1.387,0.693-1.637,1.514c-0.256,0.813-0.24,1.776-0.12,2.715
		c0.124,0.939,0.359,1.906,0.664,2.793l0.007,0.021c0.112,0.327-0.062,0.684-0.389,0.796
		C428.96,543.854,428.604,543.68,428.492,543.353L428.492,543.353z"/>
</g>
<g>
	<path fill="#FFFFFF" d="M434.77,544.903c-0.235-0.75-0.361-1.491-0.426-2.266c-0.062-0.773-0.053-1.563,0.111-2.398
		c0.092-0.416,0.219-0.85,0.467-1.297c0.244-0.435,0.69-0.921,1.312-1.126c0.615-0.208,1.205-0.115,1.646,0.049
		c0.449,0.166,0.822,0.381,1.155,0.624l0.108,0.08l0.029,0.026c0.457,0.531,0.949,1.079,1.432,1.613
		c0.241,0.271,0.491,0.532,0.745,0.793c0.262,0.251,0.513,0.514,0.845,0.707c-0.39,0.03-0.792-0.077-1.155-0.21
		c-0.372-0.129-0.719-0.301-1.061-0.479c-0.681-0.369-1.303-0.789-1.916-1.271l0.137,0.105c-0.565-0.301-1.192-0.398-1.333-0.289
		c-0.132,0.033-0.414,0.473-0.536,1.082c-0.273,1.21-0.261,2.67-0.323,4.067l-0.001,0.027c-0.016,0.35-0.311,0.62-0.661,0.604
		C435.073,545.333,434.848,545.149,434.77,544.903z"/>
</g>
<g>
	<path fill="#FFFFFF" d="M440.617,550.349c-0.076-0.989-0.078-1.942-0.01-2.921c0.075-0.973,0.214-1.955,0.558-2.93
		c0.173-0.484,0.405-0.972,0.754-1.418c0.344-0.443,0.845-0.84,1.433-1.019c1.208-0.352,2.301,0.078,3.184,0.521l0.104,0.053
		l0.088,0.103l0,0c0.199,0.388,0.479,0.802,0.782,1.162c0.311,0.361,0.662,0.698,1.122,0.907c-0.508-0.003-1.025-0.18-1.499-0.408
		c-0.48-0.236-0.919-0.505-1.366-0.859v-0.001l0.192,0.155c-0.759-0.396-1.597-0.644-2.232-0.438
		c-0.632,0.184-1.104,0.864-1.383,1.665c-0.549,1.62-0.597,3.534-0.479,5.314L440.617,550.349z"/>
</g>
<path fill="none" stroke="#FFFFFF" stroke-width="2" stroke-miterlimit="10" d="M529.471,316.867c0,0,10.967,46.019,24.797,53.647
	h4.846c0,0,9.221-3.816,14.229-10.969c0,0,15.021-11.683,23.127-14.544c0,0,16.248-6.61,23.145-30.366
	c0,0-23.861-48.079-48.42-69.538"/>
<g>
	<path fill="#FFFFFF" d="M577.552,252.336l-0.395-4.646c-0.069-0.776-0.175-1.545-0.277-2.317c-0.094-0.779-0.174-1.548-0.202-2.421
		c0.679,0.562,1.127,1.309,1.463,2.068c0.329,0.768,0.559,1.564,0.767,2.362c0.202,0.8,0.355,1.607,0.468,2.419
		c0.109,0.816,0.173,1.621,0.175,2.464L577.552,252.336z"/>
</g>
<g>
	<path fill="#FFFFFF" d="M576.778,251.85c-1.003-1.332-1.867-2.754-2.693-4.201c-0.418-0.721-0.805-1.461-1.189-2.204
		c-0.361-0.757-0.667-1.552-0.746-2.494c0.831,0.45,1.438,1.047,1.986,1.682c0.526,0.649,1.051,1.301,1.544,1.972
		c0.996,1.336,1.953,2.698,2.772,4.149L576.778,251.85z"/>
</g>
<path fill="none" stroke="#FFFFFF" stroke-width="1.2521" stroke-miterlimit="10" d="M559.113,370.514v2.86
	c0,0-3.895,3.576,17.803,0c0,0,12.637-1.648,17.643-1.063c0,0,30.043-20.635,35.766-45.908"/>
<path fill="none" stroke="#FFFFFF" stroke-width="2.5043" stroke-miterlimit="10" d="M623.156,342.93c0,0,19.088,8.507,33.873,23.29
	c0,0,34.656-16.073,47.131-37.959c0,0,4.369-7.034,4.131-13.626c0,0-17.404-0.393-39.102-23.044c0,0,0.953-9.539-15.977-20.983
	c0,0-1.668-1.192-4.291,0c0,0-18.838-14.728-31.713-22.982c0,0-14.545-11.354-20.982-21.368c0,0-4.596-4.053-17.676-4.291
	c0,0-10.221-7.393-15.943-7.869c0,0-3.338-8.345-12.637-8.106c0,0,0.955-45.063-56.269-38.864c0,0-35.765,3.577-53.408,31.234
	c0,0-16.692,17.7,4.766,49.265c0,0,10.253,17.496,24.559,15.828c0,0,15.975-6.783,25.512,2.927l38.149,34.507
	c0,0,2.809,10.984-3.604,16.818"/>
<path fill="none" stroke="#FFFFFF" stroke-width="2" stroke-miterlimit="10" d="M364.224,166.541c0,0-1.43,71.158-2.146,72.827
	c0,0-17.405,4.192-16.69,27.013c0,0-0.954,2.077-2.861,2.553c0,0-3.816,0.24-5.962,8.585c0,0,0,3.338-8.583,4.292
	c0,0-7.392,4.529-12.16,9.775c0,0-7.153,3.815-9.537,2.861c0,0-4.375-1.066-12.398,23.367c0,0-6.183,12.688-9.291,17.432"/>
<path fill="none" stroke="#FFFFFF" stroke-width="1.2521" stroke-miterlimit="10" d="M341.523,417.142
	c0,0-18.302-45.917-17.114-61.178c0,0,5.86-18.123,17.114-37.913c0,0,1.718-4.053,2.91-16.214c0,0,3.1-15.021,7.868-22.651
	c0,0,2.861-11.206,2.861-14.306c0,0,2.623-7.152,37.434,10.253"/>
<path fill="none" stroke="#FFFFFF" stroke-width="1.2521" stroke-miterlimit="10" d="M409.285,292.778c0,0-0.715,7.153-6.676,15.498
	c0,0-16.452,41.011-16.452,47.447c0,0-2.145,12.398,1.669,13.59"/>
<path fill="none" stroke="#FFFFFF" stroke-width="1.2521" stroke-miterlimit="10" d="M409.285,292.778
	c0,0,14.307,10.965,18.837,11.441c0,0,10.491-0.698,20.982-15.847c0,0,9.793-20.145,20.514-24.919"/>
<path fill="none" stroke="#FFFFFF" stroke-width="2" stroke-miterlimit="10" d="M355.88,264.166c0,0,18.596-31.711,15.02-53.411
	c0,0,10.252-6.435,28.611,0c0,0-1.055,36.018-22.94,57.111"/>
<path fill="none" stroke="#FFFFFF" stroke-width="1.2521" stroke-miterlimit="10" d="M355.162,264.88
	c0,0,8.582,20.749,54.124,27.897"/>
<path fill="none" stroke="#FFFFFF" stroke-width="1.2521" stroke-miterlimit="10" d="M351.5,280.565
	c0,0,24.642,24.139,51.109,27.711"/>
<path stroke="#FFFFFF" stroke-width="2" stroke-miterlimit="10" d="M388.092,429.367c0,0,2.347,1.699-2.535,7.898
	c0,0-0.367,4.292,3.098,3.338l0.365,3.577l8.4,9.774c0,0,1.853,8.107,6.382,10.73l-5.246,1.431c0,0,5.957,3.575,10.728,3.099
	c0,0,6.917,6.915,12.162,7.868c0,0,9.298,4.294,4.292,10.253c0,0,34.579-12.181,43.755-11.336c0,0,18.953-10.742,23.959-21.162
	c0,0,5.484-3.981,9.537-7.558c0,0,17.426-8.107,3.707-26.704c0,0,7.265-17.171-9.426-34.576c0,0-6.199-9.035-7.153-15.485
	c0,0-11.206,10.955-15.975-6.688l-6.676,2.395c0,0,2.146-18.846,5.961-19.085c0,0,14.782,15.201,26.942,3.548"/>
<path fill="none" stroke="#FFFFFF" stroke-width="2" stroke-miterlimit="10" d="M301.188,357.978c0,0,6.402-11.31,33.526-26.933"/>
<path fill="none" stroke="#FFFFFF" stroke-width="2" stroke-miterlimit="10" d="M284.308,338.043c0,0,19.972-19.054,42.243-35.26
	c0,0,2.624-10.252,15.975-13.113l8.339-7.877"/>
<path fill="none" stroke="#FFFFFF" stroke-width="2" stroke-linecap="round" stroke-linejoin="round" stroke-miterlimit="10" d="
	M291.502,145.609c0,0-10.203,1.454-10.705,7.304c0,0,20.003,16.58,70.073,11.573c0,0-7.629,21.223-8.821,36.243
	c0,0-1.429,65.736,3.339,65.652"/>
<g>
	<path fill="#FFFFFF" d="M287.334,156.865c1.196-3.598,2.337-7.225,3.403-10.864c1.035-3.636,2.111-7.314,2.666-10.986
		c0.247-3.835,1.863-7.854,4.997-10.425c1.561-1.278,3.474-2.093,5.43-2.442c1.962-0.359,3.957-0.291,5.885-0.007l-0.228,0.008
		c0.416-0.063,0.609-0.031,0.891-0.016c0.259,0.023,0.508,0.059,0.754,0.104c0.491,0.089,0.965,0.209,1.431,0.344
		c0.932,0.272,1.831,0.607,2.712,0.973c1.763,0.733,3.458,1.587,5.118,2.494c3.318,1.818,6.496,3.853,9.61,5.97l-0.1-0.055
		c3.478,1.334,7.351,1.985,11.145,2.358c3.822,0.354,7.679,0.363,11.517,0.111c1.919-0.126,3.835-0.321,5.744-0.572
		c0.954-0.127,1.907-0.266,2.857-0.421c0.956-0.172,1.955-0.296,2.936-0.372c1.97-0.147,3.969-0.138,5.958,0.229
		c1.948,0.369,4.06,1.137,5.396,2.923L374.738,136c1.813-0.615,3.623-1.016,5.486-1.284c1.856-0.258,3.747-0.355,5.635-0.198
		c1.884,0.157,3.777,0.57,5.531,1.375c1.753,0.795,3.338,2.003,4.553,3.508l0.096,0.12l0.026,0.126
		c0.21,1.033,0.207,1.979,0.085,2.964c-0.128,0.972-0.413,1.93-0.853,2.813c-0.875,1.784-2.388,3.178-4.065,4.108l0.253-0.265
		l-0.01,0.019c-0.188,0.284-0.296,0.321-0.437,0.423c-0.133,0.082-0.262,0.139-0.388,0.185c-0.252,0.091-0.493,0.137-0.728,0.167
		c-0.47,0.057-0.916,0.044-1.351,0.009c-0.871-0.077-1.702-0.256-2.516-0.469c-1.627-0.434-3.188-1.016-4.724-1.647l0.014,0.004
		l-3.533-1.118l3.621,0.789h-0.001l0.015,0.004c1.576,0.486,3.171,0.917,4.776,1.189c0.801,0.134,1.608,0.228,2.391,0.224
		c0.389-0.003,0.774-0.032,1.122-0.108c0.172-0.039,0.335-0.09,0.467-0.153c0.065-0.031,0.123-0.066,0.163-0.099
		c0.029-0.012,0.087-0.107,0.01,0.001l-0.009,0.016l0.091-0.175l0.163-0.09c1.514-0.842,2.809-2.051,3.556-3.573
		c0.376-0.756,0.621-1.577,0.732-2.42c0.111-0.829,0.095-1.74-0.061-2.502l0.122,0.246c-1.096-1.356-2.509-2.435-4.101-3.158
		c-1.591-0.731-3.342-1.118-5.114-1.266c-1.775-0.148-3.577-0.057-5.358,0.19c-1.772,0.252-3.565,0.655-5.232,1.221l-0.447,0.151
		l-0.271-0.369c-1.02-1.384-2.813-2.1-4.619-2.435c-1.828-0.338-3.74-0.353-5.63-0.21c-0.952,0.074-1.878,0.188-2.831,0.359
		c-0.962,0.158-1.928,0.298-2.895,0.427c-1.934,0.254-3.877,0.452-5.825,0.58c-3.896,0.256-7.817,0.248-11.716-0.113
		c-3.903-0.395-7.762-1.013-11.534-2.459l-0.042-0.016l-0.058-0.04c-3.09-2.102-6.241-4.118-9.506-5.906
		c-1.632-0.892-3.294-1.728-4.996-2.436c-0.851-0.353-1.713-0.673-2.583-0.928c-0.435-0.126-0.872-0.235-1.304-0.314
		c-0.216-0.039-0.431-0.07-0.64-0.088c-0.184-0.021-0.464-0.017-0.513-0.009l-0.138,0.021l-0.09-0.013
		c-1.828-0.269-3.688-0.327-5.474,0.001c-1.783,0.32-3.477,1.047-4.866,2.183c-1.395,1.129-2.474,2.633-3.228,4.289
		c-0.377,0.829-0.679,1.697-0.903,2.583c-0.112,0.442-0.205,0.891-0.271,1.335l-0.039,0.291l-0.025,0.378
		c-0.019,0.25-0.049,0.495-0.08,0.739c-0.585,3.855-1.663,7.501-2.706,11.175c-1.072,3.661-2.215,7.291-3.417,10.911
		L287.334,156.865z"/>
</g>
<path fill="none" stroke="#FFFFFF" stroke-width="1.2521" stroke-miterlimit="10" d="M549.971,205.991
	c0,0,2.617,20.292-22.654,36.961c0,0-24.444,16.566-17.707,36.526"/>
<path fill="none" stroke="#FFFFFF" stroke-width="1.2521" stroke-miterlimit="10" d="M562.607,214.097
	c0,0-2.865,19.588-20.986,37.205c0,0-28.718,20.164-14.598,43.928"/>
<path fill="none" stroke="#FFFFFF" stroke-width="1.2521" stroke-miterlimit="10" d="M529.676,317.706c0,0,12.184-8.25,15.045-6.343
	c0,0,15.754,33.894,28.621,48.183"/>
<path fill="none" stroke="#FFFFFF" stroke-width="1.2521" stroke-miterlimit="10" d="M630.324,326.404
	c0,0,23.123,16.671,28.369,19.532c0,0,27.969-22.803,34.369-36.078"/>
<path fill="none" stroke="#FFFFFF" stroke-width="1.2521" stroke-miterlimit="10" d="M573.342,359.545c0,0,14.061,2.604,20.26,1.651
	c0,0,9.969-13.298,9.275-20.24"/>
<path fill="none" stroke="#FFFFFF" stroke-width="1.2521" stroke-miterlimit="10" d="M607.678,336.478
	c0,0,52.457-19.118,61.512-44.887"/>
<path fill="none" stroke="#FFFFFF" stroke-width="1.2521" stroke-miterlimit="10" d="M648.922,270.608
	c0,0,6.414,2.369-16.348,25.497c0,0-11.24,10.766-16.523,11.701"/>
<path fill="none" stroke="#FFFFFF" stroke-width="1.2521" stroke-miterlimit="10" d="M653.871,311.077c0,0,6.49,10.779,4.822,34.859
	"/>
<path fill="none" stroke="#FFFFFF" stroke-width="1.2521" stroke-miterlimit="10" d="M669.189,291.591c0,0,8.465,19.66,5.779,39.863
	"/>
<path fill="none" stroke="#FFFFFF" stroke-width="1.2521" stroke-miterlimit="10" d="M630.324,326.404
	c0,0,33.262,1.061,44.645,5.051"/>
<path fill="none" stroke="#FFFFFF" stroke-width="1.2521" stroke-miterlimit="10" d="M656.42,308.887c0,0,26.908,1.417,34.857,4.093
	"/>
<path fill="none" stroke="#FFFFFF" stroke-width="1.2521" stroke-miterlimit="10" d="M530.537,317.138c0,0-4.648-1.163-5.363-5.615
	c0,0-0.477-2.966-3.814-2.636c0,0,2.383,8.676-8.107,10.821c0,0-10.729,4.054-13.114,4.054c0,0-11.444,6.834-3.577,12.716
	c0,0-1.669,5.883,1.908,9.458l1.901,4.747c0,0-1.185,4.074,2.391,5.505c0,0-0.715,6.716,7.868,3.357c0,0,6.199,3.557,24.796-6.934
	c0,0,5.02-2.058,6.068,0.17"/>
<path fill="none" stroke="#FFFFFF" stroke-width="1.2521" stroke-miterlimit="10" d="M498.95,347.135c0,0-7.156,8.336-11.21,1.185
	c0,0-7.384-9.299,11.21-31.473c0,0,21.193-24.419,29.908-19.958"/>
<line fill="none" stroke="#FFFFFF" stroke-width="1.2521" stroke-miterlimit="10" x1="515.721" y1="301.133" x2="521.527" y2="309.858"/>
<line fill="none" stroke="#FFFFFF" stroke-width="1.2521" stroke-miterlimit="10" x1="493.09" y1="324.627" x2="494.712" y2="328.929"/>
<path fill="none" stroke="#FFFFFF" stroke-width="1.2521" stroke-miterlimit="10" d="M541.494,352.782c0,0-1.207,3.354,1.369,8.625
	c0,0,4.484,6.703-5.768,15.763c0,0-5.301,8.107-13.977,7.869c0,0-3.699,2.155-5.471,0.005c0,0-8.068-1.674-9.213-6.443
	c0,0-1.86,0.716-4.006-2.146l-4.292-4.143c0,0-3.099-4.681,2.146-7.064c0,0,3.114,1.192,3.107,2.623
	c-0.008,1.431-0.008,1.431-0.008,1.431l2.192,1.213c0,0,6.392-2.365,3.054-10.969"/>
<path fill="none" stroke="#FFFFFF" stroke-width="1.2521" stroke-linecap="round" stroke-linejoin="bevel" stroke-miterlimit="10" d="
	M488.932,312.98c0,0,9.461-4.479,4.969-14.73c0,0-3.061-0.908-6.399,2.884c0,0-5.246,3.81-13.829,3.086h-10.967
	c0,0-4.054,1.425-2.861,4.642c0,0,0.212,5.565,15.736,4.119c0,0-8.584,3.629-11.207,3.867c0,0-8.345,3.879,0.238,7.78
	c0,0,2.623,0.628,10.014,0c0,0-4.292-0.544-6.914,4.302c0,0-1.195,3.066,1.906,2.525c0,0-3.337,1.765-1.906,5.023
	c0,0,1.431,1.828,2.861,1.828c0,0-2.623,9.061,2.384,7.63c0,0,2.859-1.852,4.41-4.979c0,0,9.605-4.43,10.842-7.227"/>
<path fill="none" stroke="#FFFFFF" stroke-width="1.2521" stroke-miterlimit="10" d="M488.932,312.98c0,0,6.44,7.93,4.158,11.647"/>
<g>
	<path fill="#FFFFFF" d="M303.906,148.267c2.876,1.259,5.858,2.27,8.893,2.991c3.023,0.696,6.168,1.134,9.15,0.68l0.138-0.021
		l0.167,0.059l0.003,0.001l14.943,5.864l7.458,2.971c2.491,1.016,4.948,1.965,7.452,3.108l-0.041-0.019
		c0.931,0.366,1.938,0.682,2.932,0.952c0.999,0.271,2.011,0.494,3.03,0.673c2.037,0.353,4.107,0.51,6.154,0.39l0.183-0.011
		l0.168,0.093c0.804,0.446,1.691,0.849,2.571,1.168c0.884,0.318,1.794,0.564,2.688,0.639c0.887,0.076,1.767-0.049,2.354-0.521
		c0.599-0.457,0.897-1.278,0.995-2.158l0.072-0.657l0.679,0.113c0.518,0.086,1.18,0.061,1.738-0.085
		c0.572-0.146,1.104-0.411,1.548-0.79c0.899-0.756,1.427-1.936,1.696-3.174l0.113-0.519l0.547,0.028
		c0.6,0.03,1.282-0.024,1.882-0.168c0.606-0.145,1.172-0.393,1.572-0.766c0.401-0.371,0.625-0.868,0.674-1.445
		c0.051-0.576-0.057-1.206-0.245-1.821l-0.193-0.637l0.668-0.16c1.3-0.31,2.714-0.899,3.502-1.844
		c0.39-0.472,0.562-1.019,0.494-1.607c-0.064-0.589-0.351-1.199-0.727-1.765l1.042-0.694c0.438,0.667,0.826,1.43,0.929,2.323
		c0.119,0.893-0.199,1.871-0.768,2.534c-0.559,0.68-1.264,1.134-1.976,1.491c-0.726,0.353-1.445,0.607-2.249,0.79l0.475-0.796
		c0.214,0.714,0.363,1.482,0.293,2.299c-0.058,0.81-0.432,1.675-1.067,2.248c-0.628,0.58-1.393,0.888-2.134,1.068
		c-0.756,0.175-1.477,0.238-2.269,0.199l0.66-0.491c-0.304,1.391-0.913,2.849-2.111,3.864c-0.589,0.504-1.306,0.859-2.048,1.047
		c-0.758,0.184-1.482,0.233-2.304,0.098l0.751-0.543c-0.114,1.038-0.483,2.236-1.464,3.003c-0.976,0.763-2.192,0.871-3.23,0.786
		c-1.061-0.09-2.056-0.367-3.012-0.709c-0.959-0.351-1.863-0.757-2.771-1.261l0.351,0.083c-2.166,0.126-4.328-0.04-6.445-0.406
		c-1.058-0.186-2.107-0.417-3.143-0.698c-1.041-0.284-2.05-0.597-3.082-1.003h-0.001l-0.041-0.019
		c-2.363-1.078-4.896-2.064-7.359-3.067l-7.452-2.968l-14.937-5.862l-0.003-0.001l0.305,0.038c-3.283,0.271-6.447-0.415-9.469-1.318
		C309.613,150.927,306.694,149.714,303.906,148.267z"/>
</g>
<path fill="none" stroke="#FFFFFF" stroke-width="2" stroke-miterlimit="10" d="M266.928,108.249c0,0-8.25-0.208-16.394-10.972
	c0,0-5.999-10.764-8.86-21.255c0,0-3.338-14.543-9.537-22.174c0,0-2.623-6.914-3.338-10.729c0,0,5.792-13.827-5.557-15.498
	c0,0-6.715-4.292-6.182,12.875v5.484c0,0-5.167,2.48-2.674,8.87"/>
<path fill="none" stroke="#FFFFFF" stroke-width="1.2521" stroke-miterlimit="10" d="M595.482,273.848
	c0,0,13.361-8.955,53.096,2.482"/>
<path fill="none" stroke="#FFFFFF" stroke-width="1.2521" stroke-miterlimit="10" d="M630.324,256.653
	c0,0-2.521,24.159,4.432,37.207"/>
<line fill="none" stroke="#FFFFFF" stroke-width="1.2521" stroke-miterlimit="10" x1="607.678" y1="292.992" x2="636.895" y2="291.591"/>
<path fill="none" stroke="#FFFFFF" stroke-width="1.2521" stroke-miterlimit="10" d="M582.422,256.653
	c0,0,14.061-6.353,41.756-4.353"/>
<path fill="none" stroke="#FFFFFF" stroke-width="1.2521" stroke-miterlimit="10" d="M597.832,228.561c0,0,3.461,31.62,1.43,50.917"
	/>
<path fill="none" stroke="#FFFFFF" stroke-width="1.2521" stroke-miterlimit="10" d="M615.303,246.083
	c0,0,2.957,37.655-1.203,58.136"/>
<path fill="none" stroke="#FFFFFF" stroke-width="1.2521" stroke-miterlimit="10" d="M616.051,247.625
	c0,0-44.754-18.146-69.529-1.542"/>
<path fill="none" stroke="#FFFFFF" stroke-width="1.2521" stroke-miterlimit="10" d="M524.912,272.232c0,0-2.146,9.342,9.543,21.628
	c0,0,14.736,12.8,13.213,23.599"/>
<path fill="none" stroke="#FFFFFF" stroke-width="1.2521" stroke-miterlimit="10" d="M525.51,293.86c0,0,21.934-28.579,77.791-8.064
	"/>
<path fill="none" stroke="#FFFFFF" stroke-width="1.2521" stroke-miterlimit="10" d="M546.521,310.932
	c0,0,30.057-2.299,63.639,22.636"/>
<path fill="none" stroke="#FFFFFF" stroke-width="1.2521" stroke-miterlimit="10" d="M588.127,349.267c0,0,0.064,7.252,5.475,11.93"
	/>
<path fill="none" stroke="#FFFFFF" stroke-width="2" stroke-miterlimit="10" d="M403.803,464.685c0,0,19.584-2.481,33.308-8.073
	l-10.42-1.774c0,0,20.078-17.796,41.936-18.813c0,0,16.52-4.065,19.569-10.674c0,0-7.37-8.641-11.945-20.332
	c0,0-11.039-3.558-24.582-21.604c0,0-9.634-2.287-17.561-1.017c0,0,5.689-8.483,17.561-10.087c0,0,6.026-6.223,6.789-14.334
	c0,0,6.975,8.972,9.009,8.242"/>
<path fill="none" stroke="#FFFFFF" stroke-width="1.2521" stroke-miterlimit="10" d="M388.092,429.367
	c0,0,27.415-21.3,26.144-65.521c0,0-2.019-61.312-4.95-71.067"/>
<path fill="none" stroke="#FFFFFF" stroke-width="1.2521" stroke-miterlimit="10" d="M414.058,358.884
	c0,0,26.348,8.166,31.941,14.822"/>
<path fill="none" stroke="#FFFFFF" stroke-width="1.2521" stroke-miterlimit="10" d="M413.223,339.204
	c0,0,25.641,7.821,44.586,22.203"/>
<path fill="none" stroke="#FFFFFF" stroke-width="1.2521" stroke-miterlimit="10" d="M388.092,429.367
	c0,0,11.485-29.438,13.094-53.327"/>
<path fill="none" stroke="#FFFFFF" stroke-width="1.2521" stroke-miterlimit="10" d="M398.998,317.458c0,0,3.375,42.57,2.188,50.957
	"/>
<path fill="none" stroke="#FFFFFF" stroke-width="2" stroke-miterlimit="10" d="M391.618,426.111c0,0,1.169,16.638,5.803,27.844"/>
<path fill="none" stroke="#FFFFFF" stroke-width="1.2521" stroke-miterlimit="10" d="M325.663,303.436c0,0-0.891,6.21,4.7,9.544
	c0,0-1.525,2.977,0,5.823c0,0-1.172,8.511,5.387,10.126"/>
<path fill="none" stroke="#FFFFFF" stroke-width="2" stroke-miterlimit="10" d="M376.571,267.866c0,0,31.811-27.957,65.105-21.782
	v24.524c0,0-21.857,1.159-30.498,9.957"/>
<g>
	<path fill="#FFFFFF" d="M460.741,231.924c0.443,1.611,0.668,3.277,0.696,4.969c0.004,0.846-0.033,1.705-0.213,2.563
		c-0.178,0.853-0.474,1.73-1.084,2.482l0.078-0.154v0c-0.227,0.942-0.186,2.07,0.273,2.915c0.451,0.864,1.309,1.525,2.33,1.919
		c1.01,0.429,2.145,0.644,3.291,0.782c1.149,0.145,2.323,0.183,3.507,0.227c-1.156,0.264-2.337,0.424-3.539,0.461
		c-1.199,0.03-2.423-0.07-3.633-0.431c-1.178-0.379-2.421-1.101-3.1-2.333c-0.675-1.233-0.74-2.636-0.315-3.939l0.001-0.004
		l0.003-0.011l0.075-0.144c0.32-0.614,0.54-1.334,0.728-2.081c0.18-0.75,0.335-1.531,0.448-2.327
		C460.514,235.224,460.637,233.587,460.741,231.924z"/>
</g>
<path fill="none" stroke="#FFFFFF" stroke-width="1.2521" stroke-miterlimit="10" d="M582.422,256.653c0,0-36.16-7.345-43.211-3.456
	"/>
<path fill="none" stroke="#FFFFFF" stroke-width="1.2521" stroke-miterlimit="10" d="M592.256,269.271
	c0,0-33.467-9.354-54.096-2.891"/>
<path fill="none" stroke="#FFFFFF" stroke-width="1.2521" stroke-miterlimit="10" d="M559.662,224.221c0,0,35.031,0.899,39.205,5.69
	"/>
<path fill="none" stroke="#FFFFFF" stroke-width="1.2521" stroke-miterlimit="10" d="M597.832,344.333
	c0,0,7.148-50.498-15.41-87.681"/>
<path fill="none" stroke="#FFFFFF" stroke-width="1.2521" stroke-miterlimit="10" d="M609.268,334.673c0,0,5.957-22.2-5.967-48.878"
	/>
<path fill="none" stroke="#FFFFFF" stroke-width="1.2521" stroke-miterlimit="10" d="M588.127,349.267
	c0,0-4.52-75.918-28.465-99.554c0,0,1.58-21.857,0-26.941"/>
<path fill="none" stroke="#FFFFFF" stroke-width="1.2521" stroke-miterlimit="10" d="M573.342,359.545
	c0,0,2.258-62.306-29.502-99.412l1.32-12.508"/>
<path fill="none" stroke="#FFFFFF" stroke-width="1.2521" stroke-miterlimit="10" d="M542.863,303.288
	c0,0,42.285-9.098,67.893,12.506"/>
<path fill="none" stroke="#FFFFFF" stroke-width="1.2521" stroke-miterlimit="10" d="M546.848,315.793
	c0,0,26.344,14.692,45.408,30.296"/>
<path fill="none" stroke="#FFFFFF" stroke-width="1.2521" stroke-miterlimit="10" d="M557.088,335.311
	c0,0,21.41,14.439,22.176,19.856"/>
<path fill="none" stroke="#FFFFFF" stroke-width="1.2521" stroke-miterlimit="10" d="M565.572,349.267c0,0-1.92-58.66-39.396-79.996
	"/>
<path fill="none" stroke="#FFFFFF" stroke-width="1.2521" stroke-miterlimit="10" d="M572.149,245.097
	c0,0-49.905,13.816-40.501,53.058"/>
<path fill="none" stroke="#FFFFFF" stroke-width="2" stroke-linecap="round" stroke-linejoin="round" stroke-miterlimit="10" d="
	M396.106,450.351c0,0,25.906-42.044,55.563-50.939c0,0-51.951-3.947-58.928,36.148"/>
<g>
	<path fill="#FFFFFF" d="M422.205,429.367c-1.266,1.269-2.584,2.408-3.445,3.737c-0.417,0.66-0.658,1.364-0.482,2.007
		c0.165,0.643,0.688,1.251,1.341,1.731l-0.04-0.025c1.079,0.674,2.153,1.356,3.21,2.068c1.055,0.716,2.106,1.438,3.13,2.207
		c-1.179-0.501-2.33-1.051-3.478-1.605c-1.145-0.56-2.274-1.146-3.397-1.744l-0.011-0.006l-0.028-0.02
		c-0.763-0.519-1.578-1.219-1.878-2.298c-0.304-1.081,0.071-2.196,0.613-2.979c0.547-0.807,1.248-1.435,2.007-1.938
		C420.507,430.001,421.322,429.594,422.205,429.367z"/>
</g>
<path fill="none" stroke="#FFFFFF" stroke-width="0.5" stroke-miterlimit="10" d="M437.111,456.612c0,0,57.19,1.797,51.084-31.261"
	/>
<path fill="none" stroke="#FFFFFF" stroke-width="0.75" stroke-miterlimit="10" d="M451.669,383.416c0,0,17.966-0.525,27.37-4.337
	c0,0-12.551-10.993-27.37-6.767"/>
<line fill="none" stroke="#FFFFFF" stroke-width="1.2521" stroke-miterlimit="10" x1="362.078" y1="239.368" x2="367.5" y2="237.88"/>
<path fill="none" stroke="#FFFFFF" stroke-width="0.5" stroke-miterlimit="10" stroke-dasharray="1.5,3" d="M360.391,263.454
	c0,0,17.375-34.327,14.764-54.407"/>
<g>
	<path fill="#FFFFFF" d="M494.606,303.817c0.704-0.665,1.418-1.287,2.171-1.878c0.376-0.293,0.762-0.576,1.165-0.834
		c0.402-0.253,0.825-0.502,1.287-0.612c-0.423,0.208-0.763,0.53-1.091,0.855c-0.326,0.33-0.63,0.681-0.924,1.039
		c-0.585,0.718-1.139,1.475-1.649,2.234L494.606,303.817z"/>
</g>
<g>
	<path fill="#FFFFFF" d="M502.164,298.155c0.315-0.733,0.799-1.281,1.324-1.782c0.537-0.489,1.127-0.918,1.904-1.143
		c-0.299,0.751-0.785,1.296-1.324,1.782C503.517,297.486,502.925,297.914,502.164,298.155z"/>
</g>
<g>
	<path fill="#FFFFFF" d="M510.805,291.591c0.755-1.198,1.61-2.317,2.521-3.4c0.447-0.55,0.947-1.052,1.46-1.563
		c0.27-0.242,0.546-0.48,0.858-0.709c0.153-0.116,0.332-0.218,0.536-0.321c0.121-0.049,0.211-0.101,0.4-0.137
		c0.132-0.031,0.482-0.07,0.795,0.196l-0.84,0.929c0.167,0.169,0.331,0.104,0.295,0.125c0.017-0.009-0.051,0.023-0.089,0.041
		c-0.106,0.057-0.228,0.137-0.356,0.226c-0.259,0.173-0.521,0.381-0.779,0.595c-0.54,0.409-1.047,0.875-1.587,1.312
		C512.957,289.78,511.907,290.705,510.805,291.591z"/>
</g>
<g>
	<path fill="#FFFFFF" d="M517.201,384.606c1.596-1.496,3.169-3.035,4.695-4.61c0.763-0.79,1.515-1.591,2.24-2.414
		c0.722-0.826,1.434-1.665,2.039-2.585c-0.517,0.975-1.15,1.885-1.795,2.78c-0.648,0.895-1.325,1.768-2.014,2.632
		c-1.381,1.726-2.804,3.41-4.271,5.072L517.201,384.606z"/>
</g>
<g>
	<path fill="#FFFFFF" d="M522.61,384.674c1.24-1.561,2.464-3.145,3.658-4.746c1.187-1.607,2.374-3.217,3.407-4.932
		c-0.851,1.815-1.869,3.551-2.887,5.279c-1.026,1.726-2.079,3.431-3.161,5.127L522.61,384.674z"/>
</g>
<g>
	<path fill="#FFFFFF" d="M470.272,337.757c0.491-0.219,1.008-0.504,1.496-0.799c0.492-0.298,0.97-0.624,1.434-0.973
		c0.926-0.698,1.787-1.499,2.531-2.418c-0.571,1.035-1.292,2-2.11,2.882c-0.41,0.44-0.842,0.863-1.297,1.264
		c-0.46,0.402-0.918,0.778-1.452,1.142L470.272,337.757z"/>
</g>
<g>
	<path fill="#FFFFFF" d="M469.383,330.875c1.094-0.336,2.192-0.701,3.271-1.101c0.54-0.201,1.076-0.411,1.601-0.645
		c0.517-0.244,1.06-0.467,1.478-0.868c-0.344,0.477-0.853,0.804-1.325,1.142c-0.483,0.33-0.981,0.638-1.483,0.936
		c-1.007,0.597-2.027,1.156-3.072,1.696L469.383,330.875z"/>
</g>
<g>
	<path fill="#FFFFFF" d="M625.831,435.665c8.598-5.942,17.102-12.055,25.429-18.384c4.159-3.172,8.276-6.4,12.272-9.774
		c1.995-1.688,3.962-3.413,5.85-5.223c1.855-1.827,3.763-3.665,5.099-5.926c-1.265,2.305-3.121,4.213-4.923,6.104
		c-1.835,1.874-3.751,3.665-5.696,5.422c-3.897,3.508-7.919,6.874-11.982,10.184c-8.143,6.606-16.452,12.991-24.89,19.229
		L625.831,435.665z"/>
</g>
<g>
	<path fill="#FFFFFF" d="M780.735,453.13c0.144,0.251,0.442,0.645,0.716,0.953c0.286,0.327,0.598,0.643,0.925,0.945
		c0.654,0.606,1.37,1.166,2.12,1.684c1.501,1.035,3.137,1.906,4.828,2.664c3.39,1.509,7.002,2.563,10.668,3.356l-0.145-0.021
		c0.813,0.065,1.556,0.177,2.329,0.33c0.766,0.157,1.531,0.356,2.295,0.648c0.759,0.3,1.539,0.67,2.242,1.352
		c0.345,0.342,0.665,0.791,0.837,1.327c0.178,0.534,0.178,1.115,0.07,1.613l-0.002,0.005l-0.344,0.936l-0.633-0.146l-4.318-0.999
		h-0.002l0,0c1.544-0.113,3.099-0.094,4.66,0.109c0.78,0.111,1.57,0.24,2.366,0.52c0.396,0.144,0.8,0.315,1.206,0.587
		c0.388,0.269,0.866,0.671,1.051,1.379l-0.052-0.161c0.136,0.307,0.217,0.546,0.299,0.831c0.076,0.277,0.137,0.565,0.167,0.875
		c0.043,0.599-0.001,1.363-0.506,2.043l-0.004,0.007l-0.274-1.449c0.589,0.379,1.08,0.758,1.583,1.206
		c0.493,0.446,0.967,0.938,1.37,1.562c0.386,0.606,0.763,1.449,0.587,2.435c-0.185,0.988-0.87,1.651-1.464,2.062l0.078-1.584
		c0.54,0.479,0.954,0.942,1.366,1.491c0.398,0.544,0.758,1.146,0.994,1.857c0.234,0.701,0.319,1.564,0.059,2.376
		c-0.253,0.813-0.794,1.453-1.355,1.911l0.326-1.059c0.34,1.204,0.589,2.366,0.791,3.572c0.197,1.199,0.334,2.417,0.36,3.659
		c0.02,1.24-0.052,2.514-0.423,3.804c-0.188,0.642-0.464,1.291-0.885,1.891c-0.417,0.599-1.006,1.131-1.688,1.469l-0.38,0.188
		l-0.355-0.125c-0.931-0.328-1.639-0.626-2.453-0.949l-2.358-0.964l-4.692-1.96l-0.044-0.019l-0.063-0.034
		c-3.47-1.892-7.186-3.516-10.939-4.872c-3.766-1.349-7.632-2.423-11.559-3.039c-3.918-0.609-7.922-0.761-11.767-0.059
		c-3.836,0.687-7.477,2.336-10.301,4.97l-1.357-1.469c3.122-2.916,7.167-4.734,11.297-5.468c4.146-0.755,8.36-0.583,12.437,0.05
		c4.086,0.641,8.063,1.75,11.926,3.133c3.867,1.4,7.604,3.027,11.252,5.016l-0.105-0.053l4.68,1.955l2.343,0.958
		c0.758,0.304,1.616,0.65,2.28,0.888l-0.734,0.063c0.75-0.364,1.264-1.151,1.548-2.135c0.285-0.979,0.363-2.089,0.343-3.199
		c-0.023-1.115-0.148-2.248-0.334-3.373c-0.187-1.119-0.436-2.266-0.736-3.33l-0.18-0.639l0.506-0.42
		c0.737-0.611,0.942-1.244,0.661-2.116c-0.14-0.428-0.393-0.872-0.702-1.292c-0.303-0.411-0.697-0.84-1.052-1.155l-0.97-0.859
		l1.049-0.725c0.386-0.268,0.604-0.556,0.635-0.781c0.053-0.225-0.047-0.596-0.306-0.993c-0.253-0.395-0.618-0.789-1.022-1.152
		c-0.398-0.358-0.869-0.718-1.298-0.992l-0.806-0.518l0.532-0.933v-0.001c0.081-0.108,0.171-0.367,0.151-0.724
		c0-0.174-0.021-0.365-0.056-0.558c-0.033-0.185-0.094-0.41-0.141-0.552l-0.053-0.16l0.001-0.001
		c0.011-0.049-0.063-0.245-0.279-0.432c-0.205-0.188-0.487-0.369-0.791-0.528c-0.611-0.321-1.301-0.604-2.009-0.836
		c-1.422-0.467-2.907-0.851-4.411-1.199l0,0h0.002l4.318-0.999l-0.977,0.789l-0.001-0.002c0.083-0.448-0.005-0.733-0.362-1.106
		c-0.36-0.357-0.935-0.667-1.549-0.901c-0.619-0.237-1.29-0.416-1.975-0.555c-0.678-0.137-1.402-0.242-2.064-0.295l-0.081-0.007
		l-0.063-0.014c-3.765-0.816-7.497-1.899-11.063-3.486c-1.779-0.797-3.517-1.719-5.148-2.844c-0.814-0.563-1.603-1.177-2.344-1.862
		c-0.37-0.344-0.729-0.706-1.069-1.095c-0.348-0.408-0.647-0.761-0.979-1.335L780.735,453.13z"/>
</g>
<circle fill="#FFFFFF" cx="405.071" cy="451.62" r="1.268"/>
<circle fill="#FFFFFF" cx="444.214" cy="416.703" r="1.785"/>
<g>
	<path fill="#FFFFFF" d="M327.544,145.609c0.075-0.712,0.267-1.338,0.489-1.945c0.234-0.6,0.486-1.184,0.797-1.734
		c0.297-0.559,0.603-1.108,0.944-1.645c0.334-0.543,0.68-1.069,1.073-1.642c0.132,0.692,0.033,1.384-0.116,2.035
		c-0.15,0.656-0.394,1.274-0.677,1.868c-0.27,0.602-0.628,1.154-1.029,1.678C328.614,144.74,328.152,145.227,327.544,145.609z"/>
</g>
<g>
	<path fill="#FFFFFF" d="M219.272,112.464c0.999,0.07,1.824,0.365,2.607,0.716c0.771,0.366,1.486,0.805,1.996,1.512l-1.266,1.646
		c-0.814-0.311-1.422-0.888-1.974-1.539C220.094,114.133,219.597,113.411,219.272,112.464z"/>
</g>
<g>
	<path fill="#FFFFFF" d="M225.88,120.852c0.74,0.27,1.344,0.707,1.904,1.191c0.548,0.495,1.022,1.07,1.409,1.724
		c0.373,0.653,0.716,1.389,0.743,2.234c0.024,0.816-0.309,1.847-1.21,2.222c-0.312-0.886-0.625-1.3-0.852-1.831
		c-0.242-0.509-0.401-1.07-0.642-1.65l-0.712-1.822C226.292,122.271,226.053,121.614,225.88,120.852z"/>
</g>
<g>
	<path fill="#FFFFFF" d="M247.737,122.527c0.16-0.517,0.447-0.968,0.787-1.377c0.343-0.407,0.763-0.766,1.263-1.027
		c0.491-0.271,1.107-0.417,1.712-0.309c0.604,0.123,1.113,0.521,1.322,1.038c-0.543-0.148-0.979-0.222-1.386-0.166
		c-0.405,0.032-0.789,0.181-1.197,0.348C249.427,121.409,248.648,121.982,247.737,122.527z"/>
</g>
<g>
	<path fill="#FFFFFF" d="M217.06,101.537c-0.631-0.485-1.041-1.14-1.366-1.821c-0.328-0.685-0.491-1.434-0.582-2.187
		c-0.176-1.5,0.04-3.104,0.856-4.38c0.005,1.5,0.098,2.848,0.349,4.203c0.12,0.676,0.297,1.335,0.416,2.023
		C216.862,100.065,216.997,100.754,217.06,101.537z"/>
</g>
<g>
	<path fill="#FFFFFF" d="M216.326,84.366c0.111-0.832,0.343-1.622,0.623-2.39c0.283-0.767,0.618-1.514,1.011-2.233
		c0.393-0.719,0.824-1.423,1.347-2.073c0.522-0.619,1.108-1.332,1.951-1.549c-0.612,0.541-0.933,1.275-1.327,1.961l-1.1,2.122
		C218.092,81.624,217.342,83.041,216.326,84.366z"/>
</g>
<g>
	<path fill="#FFFFFF" d="M224.863,71.8c0.522-0.929,0.978-1.756,1.407-2.594c0.423-0.834,0.834-1.651,1.179-2.511
		c0.339-0.859,0.635-1.747,0.871-2.673c0.248-0.926,0.431-1.885,0.663-2.896c0.38,0.967,0.531,2,0.541,3.044
		c0.006,1.043-0.168,2.098-0.508,3.102c-0.337,1.003-0.841,1.963-1.541,2.765C226.773,70.823,225.917,71.519,224.863,71.8z"/>
</g>
<path fill="none" stroke="#FFFFFF" stroke-width="1.2883" stroke-miterlimit="10" d="M324.409,165.207
	c0,0,12.191-6.011,23.087-2.675"/>
<g>
	<polygon fill="#FFFFFF" points="375.125,165.816 367.5,163.365 375.414,164.597 	"/>
</g>
<g>
	<path fill="#FFFFFF" d="M379.369,161.28c-1.511-0.404-3.006-0.83-4.497-1.289c-0.745-0.23-1.487-0.468-2.222-0.726
		c-0.731-0.265-1.474-0.523-2.153-0.905c0.721,0.286,1.482,0.44,2.237,0.604c0.758,0.156,1.52,0.292,2.283,0.419
		c1.526,0.252,3.062,0.473,4.591,0.668L379.369,161.28z"/>
</g>
<g>
	<polygon fill="#FFFFFF" points="372.53,153.893 384.114,155.039 383.923,156.276 	"/>
</g>
<line fill="none" stroke="#FFFFFF" stroke-width="1.2521" stroke-miterlimit="10" x1="393.312" y1="432.82" x2="401.186" y2="442.847"/>
<line fill="none" stroke="#FFFFFF" stroke-width="1.2521" stroke-miterlimit="10" x1="398.998" y1="418.488" x2="409.285" y2="432.314"/>
<line fill="none" stroke="#FFFFFF" stroke-width="1.2521" stroke-miterlimit="10" x1="412.069" y1="407.803" x2="420.274" y2="420.21"/>
<line fill="none" stroke="#FFFFFF" stroke-width="1.2521" stroke-miterlimit="10" x1="428.937" y1="401.395" x2="434.108" y2="408.409"/>
<path fill="none" stroke="#FFFFFF" stroke-width="0.5" stroke-miterlimit="10" d="M427.738,453.955c0,0,59.478-4.479,60.458-26.591"
	/>
<path fill="none" stroke="#FFFFFF" stroke-width="0.5" stroke-miterlimit="10" d="M430.028,453.746c0,0,50.833-7.829,58.167-26.382"
	/>
<path fill="none" stroke="#FFFFFF" stroke-width="0.5" stroke-miterlimit="10" d="M428.937,454.837c0,0,55.379-2.052,59.716-22.896"
	/>
<path fill="none" stroke="#FFFFFF" stroke-width="0.5" stroke-miterlimit="10" d="M430.028,453.746c0,0,44.304,7.139,57.444-18.517"
	/>
<path fill="none" stroke="#FFFFFF" stroke-width="0.5" stroke-miterlimit="10" d="M427.738,455.016c0,0,19.484-6.753,37.616-13.924
	c0,0,17.798-6.867,21.446-13.729"/>
<path fill="none" stroke="#FFFFFF" stroke-width="0.5" stroke-miterlimit="10" d="M428.937,454.837c0,0,24.658-11.002,32.791-14.282
	c0,0,19.646-6.583,25.072-13.191"/>
<path fill="none" stroke="#FFFFFF" stroke-width="0.5" stroke-miterlimit="10" d="M426.691,454.837c0,0,23.713-13.015,44.751-19.608
	"/>
<path fill="none" stroke="#FFFFFF" stroke-width="0.75" stroke-miterlimit="10" d="M425.738,487.335c0,0,48.14-22.745,51.629-39.014
	c0,0,29.915-9.293,28.023-26.479"/>
<path fill="none" stroke="#FFFFFF" stroke-width="0.75" stroke-miterlimit="10" d="M479.039,379.079
	c0,0,22.369,17.535,25.657,17.279c0,0-31.966-3.517-28.445,8.661"/>
<path fill="none" stroke="#FFFFFF" stroke-width="0.75" stroke-miterlimit="10" stroke-dasharray="2" d="M364.224,264.104
	c0,0,18.28-33.573,14.05-55.754"/>
<path fill="none" stroke="#FFFFFF" stroke-width="0.5" stroke-miterlimit="10" stroke-dasharray="1.5,3" d="M367.5,264.88
	c0,0,19.345-38.056,14.724-56.985"/>
<path fill="none" stroke="#FFFFFF" stroke-width="0.75" stroke-miterlimit="10" stroke-dasharray="2" d="M370.497,265.666
	c0,0,17.78-34.267,16.255-57.771"/>
<path fill="none" stroke="#FFFFFF" stroke-width="0.75" stroke-miterlimit="10" stroke-dasharray="2" d="M374.993,267.253
	c0,0,21.082-29.759,20.614-57.709"/>
<path fill="none" stroke="#FFFFFF" stroke-width="0.5" stroke-miterlimit="10" stroke-dasharray="1.5,3" d="M372.606,266.38
	c0,0,17.958-30.143,18.466-57.846"/>
<path fill="none" stroke="#FFFFFF" stroke-width="1.2521" stroke-miterlimit="10" d="M343.415,288.832
	c0,0-14.542,20.577-13.052,24.148"/>
<path fill="none" stroke="#FFFFFF" stroke-width="0.5" stroke-miterlimit="10" stroke-dasharray="1.5,3" d="M284.781,340.283
	c0,0,32.372-28.035,40.83-32.477"/>
<path fill="none" stroke="#FFFFFF" stroke-width="0.75" stroke-miterlimit="10" stroke-dasharray="2" d="M286.44,342.938
	c0,0,26.559-25.032,40.688-33.08"/>
<path fill="none" stroke="#FFFFFF" stroke-width="0.5" stroke-miterlimit="10" stroke-dasharray="1.5,3" d="M287.853,344.183
	c0,0,29.266-24.348,40.191-33.106"/>
<path fill="none" stroke="#FFFFFF" stroke-width="0.75" stroke-miterlimit="10" stroke-dasharray="2" d="M287.853,347.135
	c0,0,33.294-26.228,41.443-34.887"/>
<line fill="none" stroke="#FFFFFF" stroke-width="0.5" stroke-miterlimit="10" stroke-dasharray="1.5,3" x1="289.57" y1="348.406" x2="329.687" y2="316.183"/>
<line fill="none" stroke="#FFFFFF" stroke-width="0.75" stroke-miterlimit="10" stroke-dasharray="2" x1="292.235" y1="350.305" x2="330.363" y2="318.803"/>
<path fill="none" stroke="#FFFFFF" stroke-width="0.5" stroke-miterlimit="10" stroke-dasharray="1.5,3" d="M293.408,352.782
	c0,0,34.065-28.548,37.271-29.213"/>
<path fill="none" stroke="#FFFFFF" stroke-width="0.75" stroke-miterlimit="10" stroke-dasharray="2" d="M294.685,355.125
	c0,0,26.421-22.944,37.259-28.727"/>
<path fill="none" stroke="#FFFFFF" stroke-width="0.5" stroke-miterlimit="10" stroke-dasharray="1.5,3" d="M296.196,356.567
	c0,0,29.327-25.237,37.829-28.306"/>
<path fill="none" stroke="#FFFFFF" stroke-width="0.75" stroke-miterlimit="10" stroke-dasharray="2" d="M349.923,283.836
	c0,0-15.635,20.076-19.56,29.144"/>
<path fill="none" stroke="#FFFFFF" stroke-width="0.75" stroke-miterlimit="10" stroke-dasharray="2" d="M330.363,318.803
	c0,0,4.816-16.08,16.75-27.212"/>
<path fill="none" stroke="#FFFFFF" stroke-width="0.5" stroke-miterlimit="10" stroke-dasharray="1.5,3" d="M345.289,298.155
	c0,0-12.224,14.68-14.609,23.968"/>
<path fill="none" stroke="#FFFFFF" stroke-width="0.75" stroke-miterlimit="10" stroke-dasharray="2" d="M344.067,305.198
	c0,0-8.57,5.65-13.061,19.43"/>
<path fill="none" stroke="#FFFFFF" stroke-width="0.5" stroke-miterlimit="10" stroke-dasharray="1.5,3" d="M335.75,328.929
	c0,0-7.713-6.816,7.665-20.653"/>
<path fill="none" stroke="#FFFFFF" stroke-width="0.75" stroke-miterlimit="10" stroke-dasharray="2" d="M337.026,326.398
	c0,0-5.326-8.595,6.187-15.321"/>
<path fill="none" stroke="#FFFFFF" stroke-width="0.5" stroke-miterlimit="10" stroke-dasharray="1.5,3" d="M340.143,320.52
	c0,0-8.343-1.446,2.358-5.885"/>
<path fill="none" stroke="#FFFFFF" stroke-width="0.5" stroke-miterlimit="10" stroke-dasharray="1.5,3" d="M327.128,300.493
	c0,0-2.029,7.446,3.552,8.777"/>
<path fill="none" stroke="#FFFFFF" stroke-width="0.75" stroke-miterlimit="10" stroke-dasharray="2" d="M328.043,299.461
	c0,0-1.699,10.672,3.9,6.034"/>
<line fill="none" stroke="#FFFFFF" stroke-width="0.5" stroke-miterlimit="10" stroke-dasharray="1.5,3" x1="328.043" y1="299.461" x2="331.944" y2="305.496"/>
<path fill="none" stroke="#FFFFFF" stroke-width="0.75" stroke-miterlimit="10" stroke-dasharray="2" d="M328.043,299.461
	c0,0,6.548-0.718,3.9,6.034"/>
<path fill="none" stroke="#FFFFFF" stroke-width="0.75" stroke-miterlimit="10" stroke-dasharray="2" d="M328.724,298.155
	c0,0,5.561-1.314,5.99,4.096"/>
<path fill="none" stroke="#FFFFFF" stroke-width="0.75" stroke-miterlimit="10" stroke-dasharray="2" d="M331.006,295.65
	c0,0,6.297,0.655,5.829,3.812"/>
<path fill="none" stroke="#FFFFFF" stroke-width="0.75" stroke-miterlimit="10" stroke-dasharray="2" d="M332.574,294.845
	c0,0,4.006-1.723,5.791,1.499"/>
<path fill="none" stroke="#FFFFFF" stroke-width="0.75" stroke-miterlimit="10" stroke-dasharray="2" d="M335.796,292.108
	c0,0,3.666,0.542,4.347,2.278"/>
<line fill="none" stroke="#FFFFFF" stroke-width="1.2521" stroke-miterlimit="10" x1="339.505" y1="290.503" x2="340.143" y2="293.247"/>
<path fill="none" stroke="#FFFFFF" stroke-width="0.75" stroke-miterlimit="10" d="M434.108,382.399c0,0,19.684-17.142,43.26-4.607"
	/>
<path fill="none" stroke="#FFFFFF" stroke-width="0.75" stroke-miterlimit="10" d="M435.515,381.303c0,0,23.25-11.431,43.524-2.225"
	/>
<path fill="none" stroke="#FFFFFF" stroke-width="0.75" stroke-miterlimit="10" d="M437.111,381.303c0,0,22.849-5.115,40.256-2.225"
	/>
<path fill="none" stroke="#FFFFFF" stroke-width="0.75" stroke-miterlimit="10" d="M438.527,380.018c0,0,11.906,3.555,39.664-1.619"
	/>
<path fill="none" stroke="#FFFFFF" stroke-width="0.5" stroke-miterlimit="10" d="M409.285,469.214c0,0,59.607-12.541,66.695-20.101
	"/>
<path fill="none" stroke="#FFFFFF" stroke-width="0.5" stroke-miterlimit="10" d="M398.998,466.365c0,0,47.828-5.296,64.517-12.619"
	/>
<path fill="none" stroke="#FFFFFF" stroke-miterlimit="10" d="M409.285,469.214c0,0,54.023-2.929,66.695-20.101
	c0,0,15.812-3.612,17.472,5.724"/>
<path fill="none" stroke="#FFFFFF" stroke-width="0.75" stroke-miterlimit="10" d="M413.048,472.512c0,0,45.17-2.726,61.919-22.161"
	/>
<path fill="none" stroke="#FFFFFF" stroke-width="0.75" stroke-miterlimit="10" d="M420.274,476.776c0,0,45.314-6.463,54.693-26.425
	"/>
<path fill="none" stroke="#FFFFFF" stroke-width="0.75" stroke-miterlimit="10" d="M425.738,480.277c0,0,36.528-5.844,49.229-29.926
	"/>
<g>
	<path fill="#FFFFFF" d="M508.245,378.003c1.058-0.245,2.143-0.602,3.156-1.063c1.004-0.474,2.01-1.043,2.687-1.977
		c-0.497,1.049-1.43,1.845-2.374,2.519c-0.967,0.673-1.984,1.231-3.088,1.714L508.245,378.003z"/>
</g>
<path fill="none" stroke="#FFFFFF" stroke-width="0.75" stroke-miterlimit="10" d="M451.669,383.416"/>
<g>
	<path fill="#FFFFFF" d="M813.55,485.624c-1.67-0.296-3.137-1.104-4.699-1.699c-1.557-0.612-3.129-1.189-4.804-1.628
		c1.726-0.228,3.498-0.058,5.201,0.293c0.853,0.182,1.702,0.389,2.525,0.671c0.82,0.296,1.608,0.659,2.317,1.234L813.55,485.624z"/>
</g>
<g>
	<path fill="#FFFFFF" d="M812.53,479.548c-0.685-0.134-1.396-0.301-2.087-0.468c-0.695-0.164-1.394-0.344-2.104-0.439
		c-1.414-0.178-2.878-0.239-4.293,0.318c1.165-0.997,2.812-1.378,4.35-1.41c1.561-0.045,3.125,0.128,4.558,0.821L812.53,479.548z"/>
</g>
<g>
	<path fill="#FFFFFF" d="M810.579,473.98c-1.129,0.116-2.188-0.19-3.264-0.388c-0.537-0.105-1.075-0.199-1.616-0.262
		c-0.543-0.058-1.086-0.117-1.652,0.037c0.397-0.452,1.01-0.695,1.581-0.856c0.584-0.16,1.178-0.235,1.768-0.276
		c1.178-0.057,2.359-0.042,3.443,0.521L810.579,473.98z"/>
</g>
<g>
	<path fill="#FFFFFF" d="M357.958,151.586c1.313-1.959,2.64-3.761,3.501-5.702c0.423-0.967,0.709-1.947,0.743-2.955
		c0.032-1.01-0.255-2.048-0.773-3.134c1.031,0.601,1.84,1.721,2.06,3.014c0.253,1.291-0.048,2.614-0.562,3.734
		c-0.522,1.129-1.248,2.119-2.096,2.96C359.989,150.346,359.043,151.082,357.958,151.586z"/>
</g>
<g>
	<path fill="#FFFFFF" d="M308.602,162.753c0.72,0.19,1.535,0.298,2.308,0.292c0.778-0.008,1.561-0.135,2.229-0.495
		c0.671-0.351,1.177-0.988,1.4-1.757c0.232-0.767,0.232-1.612,0.135-2.433c0.198,0.803,0.313,1.65,0.17,2.505
		c-0.129,0.851-0.619,1.695-1.369,2.214c-0.741,0.53-1.626,0.783-2.493,0.903c-0.88,0.114-1.734,0.115-2.642-0.004L308.602,162.753z
		"/>
</g>
<path fill="none" stroke="#FFFFFF" stroke-width="0.75" stroke-miterlimit="10" d="M452.91,385.039c0,0,37.592,4.403,48.689,11.065"
	/>
<path fill="none" stroke="#FFFFFF" stroke-width="0.75" stroke-miterlimit="10" d="M453.67,385.999c0,0,29.656,9.68,45.559,9.977"/>
<path fill="none" stroke="#FFFFFF" stroke-width="0.75" stroke-miterlimit="10" d="M455.738,388.509c0,0,16.068,9.882,31.735,7.466"
	/>
<path fill="none" stroke="#FFFFFF" stroke-width="0.75" stroke-miterlimit="10" d="M462.885,395.975c0,0,10.53,4.445,19.784,0.383"
	/>
<path fill="none" stroke="#FFFFFF" stroke-width="0.75" stroke-miterlimit="10" d="M468.392,400.518c0,0,6.425,1.503,9.799-1.334"/>
<path fill="none" stroke="#FFFFFF" stroke-width="0.75" stroke-miterlimit="10" d="M456.419,365.157c0,0,15.715,4.51,18.548,11.455"
	/>
<path fill="none" stroke="#FFFFFF" stroke-width="0.75" stroke-miterlimit="10" d="M468.392,365.888c0,0,9.151,9.94,14.961,16.511"
	/>
<path fill="none" stroke="#FFFFFF" stroke-width="1.2521" stroke-miterlimit="10" d="M474.143,363.826
	c0,0,6.445,18.867,29.127,32.149"/>
<path fill="none" stroke="#FFFFFF" stroke-width="0.75" stroke-miterlimit="10" d="M484.32,373.707c0,0,9.524,14.721,18.951,21.213"
	/>
<path fill="none" stroke="#FFFFFF" stroke-width="0.75" stroke-miterlimit="10" d="M487.473,373.207c0,0,8.265,15.896,15.798,20.563
	"/>
<path fill="none" stroke="#FFFFFF" stroke-width="0.75" stroke-miterlimit="10" d="M437.111,483.542
	c0,0,48.292-10.666,49.688-34.429"/>
<path fill="none" stroke="#FFFFFF" stroke-width="0.75" stroke-miterlimit="10" d="M435.515,483.542c0,0,26.428-5.89,48.805-34.429"
	/>
<path fill="none" stroke="#FFFFFF" stroke-width="0.75" stroke-miterlimit="10" d="M482.669,444.296
	c0,0,21.059-11.556,22.027-21.944"/>
<path fill="none" stroke="#FFFFFF" stroke-width="0.75" stroke-miterlimit="10" d="M487.473,436.991c0,0,12.864-6.937,15.798-13.818
	"/>
<path fill="none" stroke="#FFFFFF" stroke-width="1.2521" stroke-miterlimit="10" d="M488.707,429.367c0,0,6.663-0.856,12.893-4.016
	"/>
<path fill="none" stroke="#FFFFFF" stroke-width="0.75" stroke-miterlimit="10" d="M480.775,448.426c0,0,32.635-8.046,25.921-26.583
	"/>
<path fill="none" stroke="#FFFFFF" stroke-width="1.2521" stroke-miterlimit="10" d="M486.8,449.114c0,0,24.482-6.911,22.927-23.673
	"/>
<path fill="none" stroke="#FFFFFF" stroke-width="1.2521" stroke-miterlimit="10" d="M490.579,450.351
	c0,0,20.636-4.651,21.242-18.409"/>
<path fill="none" stroke="#FFFFFF" stroke-width="0.75" stroke-miterlimit="10" d="M476.45,402.703c0,0,28.361,5.482,30.247,17.873
	c1.15,7.563-18.5,4.775-18.5,4.775"/>
<path fill="none" stroke="#FFFFFF" stroke-width="0.75" stroke-miterlimit="10" d="M476.014,402.703c0,0,32.326,0.041,30.682,17.873
	"/>
<path fill="none" stroke="#FFFFFF" stroke-width="0.75" stroke-miterlimit="10" d="M477.255,400.916c0,0,26.724-6.603,30.32,14.002"
	/>
<path fill="none" stroke="#FFFFFF" stroke-width="0.75" stroke-miterlimit="10" d="M482.669,397.187c0,0,23.94-0.374,25.767,12.882"
	/>
<path fill="none" stroke="#FFFFFF" stroke-width="0.75" stroke-miterlimit="10" d="M495.552,395.766c0,0,11.286,2.872,11.573,6.937"
	/>
<path fill="none" stroke="#FFFFFF" stroke-width="0.75" stroke-miterlimit="10" d="M477.368,407.414
	c0,0,19.094,14.241,28.023,16.429"/>
<path fill="none" stroke="#FFFFFF" stroke-width="0.75" stroke-miterlimit="10" d="M476.45,407.414c0,0,25.69,3.437,28.941,14.43
	v1.999"/>
<path fill="none" stroke="#FFFFFF" stroke-width="0.75" stroke-miterlimit="10" d="M478.728,408.409c0,0,19.217,6.357,25.968,13.943
	"/>
<path fill="none" stroke="#FFFFFF" stroke-width="0.75" stroke-miterlimit="10" d="M480.533,414.006c0,0,12.318,9.927,21.066,11.345
	"/>
<path fill="none" stroke="#FFFFFF" stroke-width="0.75" stroke-miterlimit="10" d="M484.621,420.576c0,0,9.253,5.477,13.678,6.239"
	/>
<path fill="none" stroke="#FFFFFF" stroke-width="1.2521" stroke-miterlimit="10" d="M426,303.586c0,0,11.813,6.632,11.111,12.597"
	/>
<path fill="none" stroke="#FFFFFF" stroke-width="0.5" stroke-miterlimit="10" stroke-dasharray="1.5,3" d="M380,269.271
	c0,0,38.809-26.385,61.676-19.622"/>
<path fill="none" stroke="#FFFFFF" stroke-width="0.75" stroke-miterlimit="10" stroke-dasharray="2" d="M383.347,270.733
	c0,0,45.201-26.409,58.33-16.713"/>
<path fill="none" stroke="#FFFFFF" stroke-width="0.5" stroke-miterlimit="10" stroke-dasharray="1.5,3" d="M388.092,272.931
	c0,0,39.915-23.705,53.584-14.025"/>
<path fill="none" stroke="#FFFFFF" stroke-width="0.75" stroke-miterlimit="10" stroke-dasharray="2" d="M391.073,274.377
	c0,0,29.359-17.644,50.604-13.07"/>
<path fill="none" stroke="#FFFFFF" stroke-width="0.5" stroke-miterlimit="10" stroke-dasharray="1.5,3" d="M416.375,267.253
	c0,0,17.583-6.349,25.301-2.373"/>
<path fill="none" stroke="#FFFFFF" stroke-width="0.75" stroke-miterlimit="10" stroke-dasharray="2" d="M414.278,270.733
	c0,0,13.187-5.473,27.398-3.27"/>
<path fill="none" stroke="#FFFFFF" stroke-width="0.5" stroke-miterlimit="10" stroke-dasharray="1.5,3" d="M412.511,276.665
	c0,0,13.896-10.853,29.165-6.057"/>
<g>
	<path fill="#FFFFFF" d="M516.955,208.535c0.657-0.365,1.375-0.61,2.122-0.78c0.749-0.148,1.546-0.224,2.368-0.023
		c0.82,0.164,1.656,0.796,2.014,1.638c0.363,0.834,0.358,1.694,0.281,2.481l0.005-0.075c-0.019,0.535-0.104,0.983-0.266,1.458
		c-0.171,0.458-0.393,0.92-0.745,1.296c-0.335,0.386-0.795,0.672-1.272,0.802c-0.482,0.122-0.968,0.102-1.401-0.04
		c0.438-0.134,0.836-0.284,1.152-0.52c0.322-0.222,0.559-0.51,0.741-0.826c0.169-0.326,0.314-0.671,0.391-1.049
		c0.083-0.363,0.142-0.783,0.148-1.122l0.001-0.048l0.004-0.026c0.091-0.667,0.075-1.335-0.13-1.873
		c-0.186-0.548-0.616-0.925-1.209-1.164c-0.596-0.225-1.305-0.304-2.017-0.3C518.426,208.358,517.695,208.434,516.955,208.535z"/>
</g>
<path fill="none" stroke="#FFFFFF" stroke-width="1.2521" stroke-miterlimit="10" d="M612.52,456.629l1.893,2.191
	c0,0,14.586-7.994,15.912-12.228l-2.387-1.649L612.52,456.629z"/>
<path fill="none" stroke="#FFFFFF" stroke-width="1.2521" stroke-miterlimit="10" d="M608.607,451.764l1.893,2.19
	c0,0,14.586-7.993,15.91-12.227l-2.385-1.649L608.607,451.764z"/>
<path fill="none" stroke="#FFFFFF" stroke-width="1.2521" stroke-miterlimit="10" d="M604.869,446.885l1.893,2.19
	c0,0,14.586-7.993,15.912-12.227l-2.387-1.649L604.869,446.885z"/>
<path fill="none" stroke="#FFFFFF" stroke-width="1.2521" stroke-miterlimit="10" d="M601.111,441.738l1.895,2.191
	c0,0,14.586-7.993,15.91-12.227l-2.385-1.649L601.111,441.738z"/>
<path fill="none" stroke="#FFFFFF" stroke-width="1.2521" stroke-miterlimit="10" d="M597.219,436.689l1.893,2.191
	c0,0,14.588-7.993,15.912-12.227l-2.385-1.649L597.219,436.689z"/>
<path fill="none" stroke="#FFFFFF" stroke-width="1.2521" stroke-miterlimit="10" d="M593.463,432.111l1.893,2.191
	c0,0,14.586-7.993,15.912-12.227l-2.387-1.649L593.463,432.111z"/>
<path fill="none" stroke="#FFFFFF" stroke-width="1.2521" stroke-miterlimit="10" d="M589.705,427.102l1.895,2.191
	c0,0,14.586-7.993,15.91-12.227l-2.385-1.649L589.705,427.102z"/>
<path fill="none" stroke="#FFFFFF" stroke-width="1.2521" stroke-miterlimit="10" d="M585.949,422.094l1.895,2.191
	c0,0,14.586-7.994,15.91-12.228l-2.385-1.649L585.949,422.094z"/>
<path fill="none" stroke="#FFFFFF" stroke-width="1.2521" stroke-miterlimit="10" d="M582.193,415.833l1.893,2.191
	c0,0,14.586-7.994,15.912-12.228l-2.385-1.649L582.193,415.833z"/>
<path fill="none" stroke="#FFFFFF" stroke-width="0.75" stroke-miterlimit="10" d="M452.355,384.313c0,0,28.028-2.245,45.943,9.456"
	/>
<path fill="none" stroke="#FFFFFF" stroke-width="0.75" stroke-miterlimit="10" d="M468.392,381.794c0,0,11.787,0.67,26.694,8.656"
	/>
<line fill="none" stroke="#FFFFFF" stroke-width="0.75" stroke-miterlimit="10" x1="477.255" y1="380.02" x2="487.473" y2="386.847"/>
<g>
	<path fill="#FFFFFF" d="M480.384,222.903c0.382-0.717,0.982-1.284,1.634-1.759c0.661-0.464,1.401-0.836,2.187-1.057
		c0.777-0.251,1.604-0.347,2.414-0.289c0.809,0.077,1.609,0.268,2.313,0.719c-0.808,0.21-1.542,0.307-2.263,0.445
		c-0.718,0.126-1.417,0.257-2.115,0.412C483.159,221.714,481.815,222.217,480.384,222.903z"/>
</g>
<g>
	<path fill="#FFFFFF" d="M439.451,234.186c-0.043-0.958,0.462-1.694,1.086-2.199c0.649-0.489,1.429-0.792,2.216-0.958
		c1.589-0.321,3.238,0.003,4.479,0.896c-1.521,0.159-2.834,0.332-4.016,0.782c-0.597,0.205-1.134,0.51-1.687,0.8
		C440.958,233.787,440.362,234.002,439.451,234.186z"/>
</g>
<ellipse fill="#FFFFFF" cx="484.219" cy="228.489" rx="1.748" ry="1.422"/>
<ellipse fill="#FFFFFF" cx="445.483" cy="239.844" rx="1.748" ry="1.422"/>
<g>
	<path fill="#FFFFFF" d="M472.502,258.083c-0.097-0.667,0.162-1.262,0.519-1.749c0.368-0.489,0.893-0.843,1.455-1.07
		c1.129-0.457,2.42-0.41,3.427,0.223c-0.548,0.249-1.039,0.422-1.494,0.621c-0.456,0.188-0.871,0.392-1.268,0.6l-1.182,0.667
		C473.537,257.597,473.101,257.819,472.502,258.083z"/>
</g>
<path stroke="#FFFFFF" stroke-width="1.2521" stroke-miterlimit="10" d="M524.756,243.355l-3.83,1.838h-3.971l-3.074-0.096
	l-3.076,0.096l-0.734,2.433c0,0-1.84-1.903-2.392-2.433c-0.552-0.529-2.944,2.433-2.944,2.433h-3.312l-3.496,0.137l-1.84,0.438
	c0,0-0.92,1.019-2.024,1.57c-1.104,0.552-3.312-1.229-3.312-1.229l-2.576-3.443c0,0-3.128,0.81-3.956,0.986
	c-0.828,0.177-2.116,0.19-2.668,0c-0.552-0.191-3.128,0-3.128,0l-2.668,1.542l-1.564,0.574c0,0-4.573-0.574-5.704,0
	c-1.131,0.574-1.657,1.386-2.761,2.411c-1.104,1.024-2.392,0.583-2.392,0.583s-4.232,0.784-4.968,0.867
	c-0.735,0.083-1.104,2.603-1.104,2.603c-1.288,2.869-5.152,3.177-5.152,3.177l1.84,2.71l3.312,2.328l2.161,0.575l1.887,1.427
	l3.21-0.776h3.819l2.907,1.309h3.128h3.68c0,0,2.76-0.923,3.68-1.309c0.92-0.386,1.656-0.65,1.656-0.65h5.42l5.284,1.959
	l2.001,1.841l4.959-2.496l2.723,0.655l2.919-1.309l1.739-1.226l2.369-3.973l1.212,0.675c4.155-7.854,13.493-14.388,13.493-14.388
	L524.756,243.355z M488.175,257.84l-2.208,1.065c0,0-3.864,1.352-4.416,1.645c-0.552,0.292-2.576,0-2.576,0l-2.208-1.645
	l-0.736,1.645l-2.944-0.673v2.036l-3.468-0.606v0.606l-3.339-0.606l-2.944-3.467v-1.056l2.208-2.428h4.075l3.468-2.057l2.668-0.998
	c0,0,5.428-0.244,6.716,0c1.289,0.244,2.187,0,2.187,0l3.517,2.718V257.84z"/>
<path stroke="#FFFFFF" stroke-width="2" stroke-miterlimit="10" d="M409.285,292.778c0,0-0.355-9.067,4.993-22.045
	c0,0,5.618-8.675,5.889-18.672c0,0,5.61-12.954,9.861-22.15c0,0,0.418-4.347-1.745-4.077c0,0-1.623-4.308-5.681-1.613
	c0,0-2.435-2.965-4.87,0c0,0-3.881,1.381-4.51,5.69c0,0-7.284,18.205-9.419,20.271c0,0-5.864,9.479-6.382,16.507
	c0,0-8.391,14.158-6.348,21.685C391.073,288.373,400.699,291.775,409.285,292.778z"/>
<g>
	<path fill="#FFFFFF" d="M423.186,224.448l-5.479,13.375l-2.691,6.707c-0.86,2.248-1.819,4.466-2.504,6.773
		c0.586-2.338,1.448-4.598,2.211-6.882l2.399-6.821l4.898-13.606L423.186,224.448z"/>
</g>
<g>
	<polygon fill="#FFFFFF" points="428.872,226.046 419.35,250.611 427.694,225.621 	"/>
</g>
</svg>
