<?xml version="1.0" encoding="utf-8"?>
<!-- Generator: Adobe Illustrator 15.1.0, SVG Export Plug-In . SVG Version: 6.00 Build 0)  -->
<!DOCTYPE svg PUBLIC "-//W3C//DTD SVG 1.1//EN" "http://www.w3.org/Graphics/SVG/1.1/DTD/svg11.dtd">
<svg version="1.1" id="Layer_1" xmlns="http://www.w3.org/2000/svg" xmlns:xlink="http://www.w3.org/1999/xlink" x="0px" y="0px"
	 width="800px" height="600px" viewBox="0 0 800 600" enable-background="new 0 0 800 600" xml:space="preserve">
<image overflow="visible" width="1536" height="2048" xlink:href="../../../../../../../Downloads/15310781_10153992106181373_1464629938_o.jpg"  transform="matrix(0.4061 0 0 0.4061 65.25 -167.6665)">
</image>
<path fill="none" stroke="#000000" stroke-width="2" stroke-miterlimit="10" d="M305.183,600c0,0-13.682-6.94-13.682-21.99
	c0,0,49.255-75.247,11.63-174.44c0,0-27.364-46.519-41.045-67.041c0,0-41.045-54.042-56.779-78.67c0,0-8.893-11.858-15.734-9.691
	c0,0-15.735,0.114-10.946-26.565"/>
<path fill="none" stroke="#000000" stroke-miterlimit="10" d="M192.309,207.92c0,0,36.257-23.259,60.2-28.048
	c0,0,15.734-10.945,23.259,7.525c0,0,5.473,8.209,0,23.259c0,0,51.306,64.304,60.884,69.777"/>
<path fill="none" stroke="#000000" stroke-miterlimit="10" d="M357.858,300c0,0,11.17,8.479,19.267,13.953"/>
<path fill="none" stroke="#000000" stroke-miterlimit="10" d="M383.169,300c0,0-23.943,5.061-46.518-6.569
	c0,0,3.421-34.205,8.894-71.83"/>
<path fill="none" stroke="#000000" stroke-miterlimit="10" d="M317.292,224.338c0,0,54.247,2.053,95.292-31.468L400,213.393
	c0,0,52.947-11.229,92.624-36.74c0,0,65.671-31.667,75.933-49.454c0,0,36.941,6.157,30.101-17.786c0,0-4.104-18.47-23.943-4.104
	c0,0-1.54-8.081-5.484-10.967c-1.314-0.962-2.896-1.347-4.777-0.663c-7.524,2.736-4.788,17.102,0.685,21.207
	c0,0-70.461-35.573-145.026-31.468l24.627,15.734c0,0-62.936,19.838-86.879,28.731C357.858,127.883,358.133,174.398,317.292,224.338
	z"/>
<path fill="none" stroke="#000000" stroke-miterlimit="10" d="M345.545,221.602c0,0,4.103,61.979,41.044,85.375"/>
<path fill="none" stroke="#000000" stroke-miterlimit="10" d="M579.48,127.891c0,0,21.229,32.828,26.701,60.191
	c0,0,12.997,28.731,25.995,30.1c0,0-9.577,4.988-23.259,10.361c0,0,4.104,27.811,10.261,35.746c0,0-32.836,4.516-46.518,22.302"/>
<path fill="none" stroke="#000000" stroke-miterlimit="10" d="M568.557,127.199c0,0,23.943,35.572,10.945,69.776
	c0,0,0.207,12.361,3.866,27.387c0,0,11.868,21.867-10.707,62.229"/>
<path fill="none" stroke="#000000" stroke-miterlimit="10" d="M386.589,238.705c0,0,158.972-7.946,177.179-14.342
	c0,0-2.051,58.808-79.354,65.649C484.414,290.011,417.373,298.904,386.589,238.705z"/>
<path fill="none" stroke="#000000" stroke-miterlimit="10" d="M450.894,313.953c0,0,30.1,12.313,49.254,0"/>
<path fill="none" stroke="#000000" stroke-miterlimit="10" d="M557.612,286.591c0,0,11.914-2.735,28.874,0
	c0,0,50.479,21.89,67.582,47.201L664.33,600"/>
<path fill="none" stroke="#000000" stroke-miterlimit="10" d="M372.224,322.162l9.136-18.921c0,0,19.595-0.233,28.488,6.607
	c0,0,173.075,203.86,254.481,269.531"/>
<path fill="none" stroke="#000000" stroke-miterlimit="10" d="M372.224,322.162c0,0,173.758,243.048,225.065,277.838"/>
<path fill="none" stroke="#000000" stroke-miterlimit="10" d="M463.875,372.114c0,0,73.898-63.631,93.737-85.523"/>
<path fill="none" stroke="#000000" stroke-miterlimit="10" d="M591.396,288.844c0,0-44.349,96.354-93.109,121.957"/>
<path fill="none" stroke="#000000" stroke-miterlimit="10" d="M309.402,535.628c0,0,55.299,23.228,102.5,25.279
	c0,0,179.108,25.999,250.314-15.732"/>
<path fill="none" stroke="#000000" stroke-miterlimit="10" d="M317.292,491.13c-0.396,0.828,159.677,46.488,343.315,12.299"/>
<line fill="none" stroke="#000000" stroke-miterlimit="10" x1="410.442" y1="237.434" x2="411.801" y2="269.804"/>
<line fill="none" stroke="#000000" stroke-miterlimit="10" x1="446.5" y1="235" x2="446.5" y2="287"/>
<line fill="none" stroke="#000000" stroke-miterlimit="10" x1="484.757" y1="232.809" x2="484.414" y2="290.011"/>
<line fill="none" stroke="#000000" stroke-miterlimit="10" x1="518.5" y1="230" x2="518.5" y2="282"/>
<line fill="none" stroke="#000000" stroke-miterlimit="10" x1="544.842" y1="228.543" x2="546.923" y2="262.646"/>
<path fill="none" stroke="#000000" stroke-miterlimit="10" d="M475.178,216.621c0,0,6.928,4.878,5.802-3.377"/>
<circle fill="none" stroke="#000000" stroke-miterlimit="10" cx="396.586" cy="216.658" r="3.414"/>
<circle fill="none" stroke="#000000" stroke-miterlimit="10" cx="545.586" cy="203.658" r="3.414"/>
<path fill="none" stroke="#000000" stroke-miterlimit="10" d="M337.5,285.375c0,0,25.318,13.574,40.12,14.625"/>
<path fill="none" stroke="#000000" stroke-miterlimit="10" d="M338.378,277.452c0,0,29.361,22.072,37.076,22.31"/>
<path fill="none" stroke="#000000" stroke-miterlimit="10" d="M339.258,269.804c0,0,25.652,26.448,38.362,30.196"/>
<path fill="none" stroke="#000000" stroke-miterlimit="10" d="M340.11,262.646c0,0,32.482,34.102,37.51,37.354"/>
<line fill="none" stroke="#000000" stroke-miterlimit="10" x1="340.925" y1="256" x2="370.857" y2="292.688"/>
<line fill="none" stroke="#000000" stroke-miterlimit="10" x1="341.915" y1="248.167" x2="363.534" y2="282"/>
<line fill="none" stroke="#000000" stroke-miterlimit="10" x1="342.772" y1="241.597" x2="358.865" y2="273.035"/>
<line fill="none" stroke="#000000" stroke-miterlimit="10" x1="343.329" y1="237.434" x2="354.594" y2="262.646"/>
<line fill="none" stroke="#000000" stroke-miterlimit="10" x1="344.349" y1="230" x2="350.818" y2="253.619"/>
<path fill="none" stroke="#000000" stroke-miterlimit="10" d="M444.737,99.151c0,0,28.178,33.326,5.005,98.851"/>
<path fill="none" stroke="#000000" stroke-miterlimit="10" d="M410.442,196.364c0,0,43.457-79.218,34.295-97.213"/>
<path fill="none" stroke="#000000" stroke-miterlimit="10" d="M317.292,224.338c0,0,106.587-67.791,127.445-125.187"/>
<path fill="none" stroke="#000000" stroke-miterlimit="10" d="M449.742,198.002c0,0,91.189-84.427,118.814-70.804"/>
<path fill="none" stroke="#000000" stroke-miterlimit="10" d="M338.378,253.619c0,0-76.541,60.943-131.327,126.986"/>
<path fill="none" stroke="#000000" stroke-miterlimit="10" d="M330.882,235c0,0-54.412,15.77-112.575,96.072"/>
<path fill="none" stroke="#000000" stroke-miterlimit="10" d="M298.611,226.753c0,0-75.799,56.16-91.56,76.487"/>
<path fill="none" stroke="#000000" stroke-miterlimit="10" d="M319.25,196.364c0,0-111.073,45.774-167.735,139.586"/>
<path fill="none" stroke="#000000" stroke-miterlimit="10" d="M187.913,218.052c0,0,22.979-15.607,22.14,16.948l11.633,26"/>
<line fill="none" stroke="#000000" stroke-miterlimit="10" x1="232.94" y1="278.468" x2="264.48" y2="332.196"/>
<line fill="none" stroke="#000000" stroke-miterlimit="10" x1="157.893" y1="253.619" x2="172.528" y2="226.753"/>
<path fill="none" stroke="#000000" stroke-miterlimit="10" d="M172.528,240.186c0,0,2.273-2.941-4.492-5.186
	c0,0-12.394-4.871-18.398-23.258c0,0-6.004-11.257-14.635-3.752c0,0-2.252,14.734-7.88,16.373"/>
<line fill="none" stroke="#000000" stroke-miterlimit="10" x1="170.651" y1="274.344" x2="280.224" y2="374.599"/>
<path fill="none" stroke="#000000" stroke-miterlimit="10" d="M160.145,305.332c0,0,13.133,6.952,19.513,14.094
	c0,0,26.643,22.506,47.281,30.396c0,0,68.112,42.446,76.176,60.979"/>
<line fill="none" stroke="#000000" stroke-miterlimit="10" x1="177.72" y1="253.619" x2="225.438" y2="297.298"/>
<line fill="none" stroke="#000000" stroke-miterlimit="10" x1="213.433" y1="296.175" x2="258.084" y2="335.95"/>
<line fill="none" stroke="#000000" stroke-miterlimit="10" x1="286.604" y1="203.862" x2="305.632" y2="247.083"/>
<line fill="none" stroke="#000000" stroke-miterlimit="10" x1="323.383" y1="224.279" x2="340.11" y2="262.646"/>
<path fill="none" stroke="#000000" stroke-miterlimit="10" d="M115.629,285.132c0,0-11.14,1.761-14.142-1.981
	c0,0-5.195-10.541-13.075-13.06c0,0-22.455-7.592-13.825-19.592H88c0,0-14.359-8.324-15.387-8.903"/>
<path fill="none" stroke="#000000" stroke-miterlimit="10" d="M319.25,200.494l-6.004-12.008c0,0,10.721-0.75,4.047-15.385
	c0,0-5.173-13.134-15.68,0c0,0-4.878,1.125-9.381,0"/>
<path fill="none" stroke="#000000" stroke-miterlimit="10" d="M292.004,167.047c0,0-10.769-7.939-7.391-29.328
	c0,0,8.312-21.335,7.562-30.716c0,0-1.473-12.356-10.104-5.227c0,0-5.998,12.021-9.371,9.02c0,0-2.843-42.772-15.226-51.027
	c0,0-5.975-2.995-6.975,4.135V107c0,0-10.426-30.712-15.118-38.968c0,0-3.941-3.002-6.943-0.375l-3.002,4.503
	c0,0-5.254,23.641,1.876,34.148c0,0-14.258-35.274-22.514-33.397c0,0-7.191,1.876-3.221,16.511c0,0-0.593,14.259,0,12.758
	s-18.169-25.893-17.794-4.878"/>
<path fill="none" stroke="#000000" stroke-miterlimit="10" d="M187.913,107.433c0,0-22.516-27.394-32.272-16.136
	c0,0-1.126,3.002,11.257,31.521c0,0,6.004,11.257,1.501,15.01c0,0-6.751-7.06-16.885-24.731c0,0-9.758-16.921-18.764-8.666
	c0,0-2.251,6.162,7.505,21.28c0,0,11.257,19.731,7.505,22.866c0,0-3.377,2.009-8.631-9.999"/>
<path fill="none" stroke="#000000" stroke-miterlimit="10" d="M117.366,122.442c0,0-6.85-3.001-1.736,6.755
	c0,0,18.549,24.015,16.897,30.77c0,0-4.278-3.479-9.344-6.243c0,0-9.569,1.64,0,13.323c0,0,4.45,3.427,9.448,4.928"/>
<path fill="none" stroke="#000000" stroke-miterlimit="10" d="M199.17,127.696c0,0,7.88,4.878,10.882,1.876l6.004-13.884
	c0,0,16.886-4.503,13.509,13.134c0,0-4.502,11.245-4.127,19.882"/>
<path fill="none" stroke="#000000" stroke-miterlimit="10" d="M225.438,153.725c0,0,0.892,7.17,4.574,8.02"/>
<path fill="none" stroke="#000000" stroke-miterlimit="10" d="M233.693,171.976c0,0,6.161,8.306,11.523,9.782"/>
<path fill="none" stroke="#000000" stroke-miterlimit="10" d="M185.286,211.376c0,0,0.483-4.123,8.685-4.5"/>
<path fill="none" stroke="#000000" stroke-miterlimit="10" d="M193.971,211.376c0,0,1.18-9.756,0-16.886"/>
<path fill="none" stroke="#000000" stroke-miterlimit="10" d="M192.309,176.866c0,0,0.482-14.747-11.151-9.819
	c0,0-2.626,5.303-6.754,27.443c0,0-1.876,5.629-9.193-3.752c0,0-25.33-43.542-45.218-42.034c0,0-5.194,1.777,22.515,42.034
	l-15.385-13.872"/>
<path fill="none" stroke="#000000" stroke-miterlimit="10" d="M113.733,165.596c0,0-11.377-7.479-13.253-3.739
	c0,0-3.002,8.617,22.702,38.637c0,0-19.659-25.425-29.061-19.842c0,0-1.896,6.709,17.992,30.725c0,0-24.391-20.263-27.018-8.443
	c0,0,5.254,9.176,24.016,23.819c0,0-29.134-27.384-36.498-15.376c0,0,22.279,19.104,21.508,23.624l-14.655-5"/>
<path fill="none" stroke="#000000" stroke-miterlimit="10" d="M109.111,226.753c0,0-28.843-33.856-17.262-39.393
	c0,0,37.602,19.426,35.5,36.918"/>
<path fill="none" stroke="#000000" stroke-miterlimit="10" d="M457.892,164.492c0,0,44.305-38.402,107.245-49.607"/>
<path fill="none" stroke="#000000" stroke-miterlimit="10" d="M568.557,127.199c0,0-0.3-12.758,6.157-21.891"/>
<path fill="none" stroke="#000000" stroke-miterlimit="10" d="M579.502,196.975c0,0,5.754,25.844,29.416,31.568"/>
<path fill="none" stroke="#000000" stroke-miterlimit="10" d="M568.557,127.199c0,0,25.693-3.019,25.653-14.103
	C594.21,113.096,584.461,94.055,568.557,127.199z"/>
<path fill="none" stroke="#000000" stroke-miterlimit="10" d="M568.557,127.199c0,0,20.993-4.687,17.93-14.103
	C586.486,113.096,585.212,108.689,568.557,127.199z"/>
<line fill="none" stroke="#000000" stroke-miterlimit="10" x1="565.137" y1="114.885" x2="569.176" y2="119.918"/>
<path fill="none" stroke="#000000" stroke-miterlimit="10" d="M317.292,224.338c0,0,118.881-57.25,128.713-123.477"/>
<path fill="none" stroke="#000000" stroke-miterlimit="10" d="M317.292,224.338c0,0,97.582-72.678,127.445-125.187"/>
<path fill="none" stroke="#000000" stroke-miterlimit="10" d="M320.905,221.602c0,0,92.468-99.962,123.833-122.45"/>
<path fill="none" stroke="#000000" stroke-miterlimit="10" d="M319.481,223.252c0,0,104.189-29.073,126.464-115.599"/>
<path fill="none" stroke="#000000" stroke-miterlimit="10" d="M319.481,223.252c0,0,99.437-14.03,123.526-105.826"/>
<path fill="none" stroke="#000000" stroke-miterlimit="10" d="M400,213.393c0,0,46.305-39.927,46.006-112.531"/>
<path fill="none" stroke="#000000" stroke-miterlimit="10" d="M449.742,198.002c0,0,41.02-67.102,119.434-78.084"/>
<path fill="none" stroke="#000000" stroke-miterlimit="10" d="M451.812,197.179c0,0,75.236-44.587,116.745-69.98"/>
<path fill="none" stroke="#000000" stroke-miterlimit="10" d="M451.812,197.179c0,0,76.737-60.348,116.745-69.98"/>
<path fill="none" stroke="#000000" stroke-miterlimit="10" d="M579.675,200.494c0,0,11.917,41.748,38.415,62.152"/>
<path fill="none" stroke="#000000" stroke-miterlimit="10" d="M579.948,203.862c0,0,6.766,46.635,38.142,58.784"/>
<path fill="none" stroke="#000000" stroke-miterlimit="10" d="M579.675,200.494c0,0,20.548,48.877,38.415,62.152"/>
<path fill="none" stroke="#000000" stroke-miterlimit="10" d="M586.486,212.389c0,0,23.868,42.236,31.604,50.257"/>
<path fill="none" stroke="#000000" stroke-miterlimit="10" d="M581.728,216.658c0,0,6.038,47.632,37.451,47.631"/>
<path fill="none" stroke="#000000" stroke-miterlimit="10" d="M322.324,220.072c0,0,56.413-86.008,120.105-119.211"/>
<path fill="none" stroke="#000000" stroke-miterlimit="10" d="M343.329,183.08c0.062-0.133,48.916-65.526,99.1-82.218"/>
<path fill="none" stroke="#000000" stroke-miterlimit="10" d="M350.71,164.492c0,0,35.156-48.815,91.718-63.631"/>
<path fill="none" stroke="#000000" stroke-miterlimit="10" d="M355.098,148.577c0,0,17.977-25.666,81.123-46.726"/>
<path fill="none" stroke="#000000" stroke-miterlimit="10" d="M357.339,135.268c0,0,15.125-10.946,59.626-26.332"/>
<path fill="none" stroke="#000000" stroke-miterlimit="10" d="M319.481,223.252c0,0,52.677,4.304,103.523-51.441"/>
<path fill="none" stroke="#000000" stroke-miterlimit="10" d="M400,213.393c0,0,62.784-60.117,49.742-105.74"/>
<path fill="none" stroke="#000000" stroke-miterlimit="10" d="M400,213.393c0,0,46.415-20.016,55.817-89.817"/>
<path fill="none" stroke="#000000" stroke-miterlimit="10" d="M404.328,212.389c0,0,48.643-18.25,54.559-72.7"/>
<path fill="none" stroke="#000000" stroke-miterlimit="10" d="M411.121,210.652c0,0,36.065-10.116,46.771-46.16"/>
<path fill="none" stroke="#000000" stroke-miterlimit="10" d="M420.457,206.895c0,0,31.979-12.213,34.707-27.308"/>
<path fill="none" stroke="#000000" stroke-miterlimit="10" d="M453.604,183.879c0,0,39.123-58.607,113.553-63.961"/>
<path fill="none" stroke="#000000" stroke-miterlimit="10" d="M486.572,88.853c-1.537,15.19-28.681,75.639-28.681,75.639
	s29.287-49.183,75.485-62.641"/>
<path fill="none" stroke="#000000" stroke-miterlimit="10" d="M551.875,108.937c-46.183,13.885-93.983,55.556-93.983,55.556
	s44.19-44.178,87.694-58.099"/>
<path fill="none" stroke="#000000" stroke-miterlimit="10" d="M567.156,119.918c0,0,3.343-17.369-7.022-14.61"/>
<path fill="none" stroke="#000000" stroke-miterlimit="10" d="M568.555,119.144c0,0,7.354-20.344-7.651-22.218"/>
<path fill="none" stroke="#000000" stroke-miterlimit="10" d="M458.605,157.127c0,0,19.986-56.072,22.498-69.334"/>
<path fill="none" stroke="#000000" stroke-miterlimit="10" d="M475.178,86.758c0,0-10.266,49.19-16.291,69.578"/>
<path fill="none" stroke="#000000" stroke-miterlimit="10" d="M458.397,163.359c0,0,31.682-43.185,81.323-59.211"/>
<path fill="none" stroke="#000000" stroke-miterlimit="10" d="M557.376,111.292c0,0-55.004,15.082-98.771,52.5"/>
<path fill="none" stroke="#000000" stroke-miterlimit="10" d="M458.605,163.891c0,0,16.371-44.69,69.758-63.764"/>
<path fill="none" stroke="#000000" stroke-miterlimit="10" d="M464.647,151.898c0,0,15.047-30.946,53.706-54.973"/>
<path fill="none" stroke="#000000" stroke-miterlimit="10" d="M458.887,84.544c0,0,6.33,45.626,0,69.18"/>
</svg>
